<?xml version="1.0" encoding="UTF-8" standalone="no"?>
<svg
   xml:space="preserve"
   viewBox="0 0 508 285.75"
   version="1.1"
   id="svg129"
   sodipodi:docname="startomrode.svg"
   inkscape:version="1.1 (c68e22c387, 2021-05-23)"
   xmlns:inkscape="http://www.inkscape.org/namespaces/inkscape"
   xmlns:sodipodi="http://sodipodi.sourceforge.net/DTD/sodipodi-0.dtd"
   xmlns:xlink="http://www.w3.org/1999/xlink"
   xmlns="http://www.w3.org/2000/svg"
   xmlns:svg="http://www.w3.org/2000/svg"><sodipodi:namedview
     id="namedview131"
     pagecolor="#ffffff"
     bordercolor="#666666"
     borderopacity="1.0"
     inkscape:pageshadow="2"
     inkscape:pageopacity="0.0"
     inkscape:pagecheckerboard="0"
     showgrid="false"
     inkscape:zoom="2.4685039"
     inkscape:cx="253.79745"
     inkscape:cy="142.79904"
     inkscape:window-width="1920"
     inkscape:window-height="991"
     inkscape:window-x="-9"
     inkscape:window-y="-9"
     inkscape:window-maximized="1"
     inkscape:current-layer="svg129" /><defs
     id="defs3"><path
       id="a"
       fill="context-stroke"
       fill-rule="evenodd"
       stroke-linejoin="round"
       stroke-width=".63"
       d="M8.72 4.03-2.21.02 8.72-4a6.84 6.84 0 0 0 0 8.03z" /></defs><defs
     id="defs29"><clipPath
       id="d"><path
         d="M140 104.16h25V128h-25Zm0 0"
         id="path5" /></clipPath><clipPath
       id="e"><path
         d="M221 130h54.68v119H221Zm0 0"
         id="path8" /></clipPath><clipPath
       id="f"><path
         d="M236 104.16h25V128h-25Zm0 0"
         id="path11" /></clipPath><clipPath
       id="g"><path
         d="M82.82 137.22H102v47.97H82.82Zm0 0"
         id="path14" /></clipPath><clipPath
       id="h"><path
         d="M104 157h19.32v28.2H104Zm0 0"
         id="path17" /></clipPath><clipPath
       id="i"><path
         d="M90 39.18h222.45V216H90Zm0 0"
         id="path20" /></clipPath><marker
       id="c"
       orient="auto"
       overflow="visible"
       refX="0"
       refY="0"><use
         xlink:href="#a"
         fill-rule="evenodd"
         stroke-linejoin="round"
         stroke-width=".63"
         transform="matrix(-1.1 0 0 -1.1 -1.1 0)"
         id="use23" /></marker><marker
       id="b"
       orient="auto"
       overflow="visible"
       refX="0"
       refY="0"><use
         xlink:href="#a"
         fill-rule="evenodd"
         stroke-linejoin="round"
         stroke-width=".63"
         transform="translate(1.1) scale(1.1)"
         id="use26" /></marker></defs><g
     stroke="#000"
     stroke-width="1.06"
     id="g35"><path
       fill="#858585"
       fill-opacity=".24"
       stroke-opacity=".32"
       d="m4.64-5.7-15.87 15.88S19.43 36.33 31.1 52.52C38.33 62.54 46.88 80.78 52.27 93v128.3a27 27 0 0 0 27 27h279.37a27 27 0 0 0 27-27v-83.87c3.88-5.33 9.05-11 15.88-16.12 9.98-7.48 26.2-11.2 38.64-12.08 32.89-2.36 60.48.37 88.36 17.37l-5.3-42.33c-38.31-6.87-86.8-17.99-129 5.69-2.67 1.27-5.71 3.45-8.58 5.77V84.8a27 27 0 0 0-27-27H140.07a68.9 68.9 0 0 1-14.12-11.88C115.38 34.09 110.48-5.7 110.48-5.7H84.02s.27 32.56 5.29 47.62c2.1 6.28 4.4 11.5 6.73 15.88H79.27c-2.86 0-5.56.56-8.15 1.39-8.1-9.69-20.87-24.67-29.44-33.14C30.13 14.62 4.64-5.7 4.64-5.7Zm84.57 86.06c2.5.12 5.33.68 8.49 1.81l109.92 39.24c13.98 4.99 22.87 3.2 34.64-7.04 26.15-22.7 27.07-26.07 79.06-28.33 24.07-1.05 30.81 7.14 31.97 20.1.42 34.18 1.14 66.41.8 105.53a15.88 15.88 0 0 1-15.87 15.87l-248.91-.4a15.85 15.85 0 0 1-15.88-15.87V94.85c0-7.15 4.9-15.02 15.78-14.5z"
       color="#000"
       id="path31" /><path
       fill="none"
       d="M216.96 63.5h119.06"
       id="path33" /></g><path
     fill="none"
     stroke="#23b523"
     stroke-dasharray="9.53 3.17"
     stroke-width="1.59"
     marker-start="url(#b)"
     d="M63.5 105.83c0-26.45 10.58-31.75 31.75-31.75h79.38"
     id="path37" /><path
     fill="none"
     stroke="#000"
     stroke-width="1.06"
     marker-end="url(#c)"
     d="M63.5 222.25c0 21.17 12.71 15.88 31.75 15.88"
     id="path39" /><path
     fill="none"
     stroke="#000"
     stroke-width="1.06"
     marker-end="url(#c)"
     d="M338.67 238.13c37.04 0 32.4-7.5 31.75-37.05"
     id="path41" /><path
     fill="none"
     stroke="#000"
     stroke-width="1.06"
     marker-end="url(#c)"
     d="M375.7 158.75c0-47.63 15.88-47.63 37.05-58.2"
     id="path43" /><path
     fill="none"
     stroke="#000"
     stroke-width="1.06"
     marker-end="url(#c)"
     d="m179.92 63.5-48.66.3c-14.18.08-25.43-10.88-30.72-37.34"
     id="path45" /><path
     fill="none"
     stroke="#000"
     stroke-dasharray="4.76 1.59"
     stroke-width="1.59"
     d="M206.38 58.2v58.22"
     id="path47" /><text
     xml:space="preserve"
     x="-113.7"
     y="198.86"
     stroke-width=".26"
     font-family="sans-serif"
     font-size="16.93"
     style="line-height:1.25"
     transform="rotate(-90)"
     id="text51"><tspan
       x="-113.7"
       y="198.86"
       id="tspan49">START</tspan></text><path
     fill="none"
     stroke="#000"
     stroke-width="1.06"
     marker-end="url(#c)"
     d="M10.58 15.88C48.42 41.8 52.92 58.2 63.5 79.38"
     id="path53" /><path
     fill="none"
     d="M375.5 223.74h88.48v88.88H375.5z"
     id="path57" /><path
     fill="#cae9f5"
     stroke="#000"
     stroke-width=".39"
     d="M381 156.1h25.03v70.75H381z"
     id="path75" /><path
     fill="#f4d9ca"
     stroke="#000"
     stroke-width=".44"
     d="M415.4 124.35h29.1v103.19h-29.1z"
     id="path77" /><g
     clip-path="url(#g)"
     transform="rotate(-90 295.15 -41.57) scale(.3528)"
     id="g81"><path
       fill="#100f0d"
       d="M100.29 155.73a.8.8 0 0 1-.24.57l-.89.9H87.6v1.6h11.57l.9.9c.14.14.23.34.23.55v1.08a.8.8 0 0 1-.24.56l-.89.9H87.6v1.6h11.57l.9.9a.8.8 0 0 1 .23.56v1.08a.8.8 0 0 1-.24.56l-.89.9H87.6v1.6h11.57l.9.9a.8.8 0 0 1 .23.56v1.07a.8.8 0 0 1-.24.57l-.89.9H87.6v1.6h11.57l.9.89a.8.8 0 0 1 .23.57v4.93c0 .88-.72 1.6-1.6 1.6H86a1.6 1.6 0 0 1-1.58-1.6v-4.93a.8.8 0 0 1 .23-.57l1.13-1.13a.81.81 0 0 0 0-1.13l-1.13-1.13a.8.8 0 0 1-.23-.57v-1.07a.8.8 0 0 1 .23-.57l1.13-1.13a.81.81 0 0 0 0-1.13l-1.13-1.13a.8.8 0 0 1-.23-.56v-1.08a.8.8 0 0 1 .23-.56l1.13-1.13a.81.81 0 0 0 0-1.14l-1.13-1.13a.8.8 0 0 1-.23-.56v-1.08c0-.21.08-.41.23-.56l1.13-1.13a.8.8 0 0 0 .23-.57.8.8 0 0 0-.23-.56l-1.13-1.13a.8.8 0 0 1-.23-.57v-.77c0-1.56.37-3.12 1.07-4.51l.57-.13a13.4 13.4 0 0 1 6.16.08 14.85 14.85 0 0 0 6.58.16l.43-.09a9.97 9.97 0 0 1 1.07 4.5zM88.38 139.6c0-.44.35-.8.8-.8h6.34c.44 0 .8.36.8.8v2.4h-7.94zm8.73 5.98v-1.98a.8.8 0 0 0 .8-.8v-3.2a2.4 2.4 0 0 0-2.39-2.4h-6.35a2.4 2.4 0 0 0-2.38 2.4v3.2c0 .44.36.8.8.8h7.93v2.4c0 .27.14.52.36.66a9.9 9.9 0 0 1 2.45 2.36c-1.89.36-3.87.3-5.73-.17a15 15 0 0 0-5.89-.28 9.8 9.8 0 0 1 2.11-1.9.8.8 0 0 0 .35-.67v-.8H87.6v.38a11.36 11.36 0 0 0-3.4 3.92 11.65 11.65 0 0 0-1.37 5.46v.77c0 .64.25 1.25.7 1.7l.56.56-.56.57c-.45.45-.7 1.05-.7 1.7v1.07c0 .64.25 1.24.7 1.7l.56.56-.56.57c-.45.45-.7 1.05-.7 1.7v1.07c0 .64.25 1.24.7 1.7l.56.56-.56.56c-.45.46-.7 1.06-.7 1.7v1.07c0 .64.25 1.25.7 1.7l.56.57-.56.56a2.4 2.4 0 0 0-.7 1.7v4.93a3.2 3.2 0 0 0 3.18 3.2h12.7a3.19 3.19 0 0 0 3.17-3.2v-4.93a2.4 2.4 0 0 0-.7-1.7l-.56-.56.57-.57c.44-.45.7-1.06.7-1.7v-1.07c0-.64-.26-1.24-.7-1.7l-.57-.56.57-.57c.44-.45.7-1.05.7-1.7v-1.07c0-.64-.26-1.24-.7-1.7l-.57-.56.57-.57c.44-.45.7-1.05.7-1.7v-1.07c0-.64-.26-1.24-.7-1.7l-.57-.56.57-.56c.44-.45.7-1.06.7-1.7v-.77a11.62 11.62 0 0 0-4.77-9.38"
       id="path79" /></g><path
     fill="#100f0d"
     d="M400.91 223.23v-.56h-1.69v.56h1.7m-9.39.02h.05v-.56h-.05c-.48 0-.95-.1-1.4-.27l-.2.52c.5.2 1.05.31 1.6.31"
     id="path83" /><g
     clip-path="url(#h)"
     transform="rotate(-90 295.15 -41.57) scale(.3528)"
     id="g87"><path
       fill="#100f0d"
       d="M119.4 183.58h-11.25l-1.63-18.14.73-.18c2.2-.56 4.53-.59 6.75-.09 2.32.52 4.75.52 7.06 0zm2.24-24.79-.43 4.7-.1.03c-2.2.55-4.55.59-6.76.09a16.27 16.27 0 0 0-7.5.1l-.48.12-.45-5.04zm1.45-1.34a.8.8 0 0 0-.58-.25h-17.46a.8.8 0 0 0-.59.25.82.82 0 0 0-.2.62l2.38 26.38a.8.8 0 0 0 .79.73h12.7a.8.8 0 0 0 .79-.73l2.38-26.38a.8.8 0 0 0-.2-.62"
       id="path85" /></g><path
     fill="#100f0d"
     d="m395.72 214.8.06.56.65-.05-.06-.56-.65.06m1.28.44 3.1-.28-.06-.55-3.1.28.05.55"
     id="path89" /><path
     fill="#040606"
     d="m452.59 94.54-7.88-56.25a1.41 1.36 0 0 0-1.59-1.16 1.42 1.36 0 0 0-1.2 1.52l7.83 55.97a3.68 3.53 0 0 0-2.52 3.36h8.19a3.71 3.56 0 0 0-2.83-3.45"
     id="path91" /><g
     clip-path="url(#i)"
     transform="matrix(.2245 0 0 .2152 427.67 24.58)"
     id="g95"><path
       fill="#040606"
       d="M282.46 107.18c4.02-21.63 8.15-42.48 12.39-62.42-72.98-25.12-133.37 43.39-204.1 35.1l18.07 134.63c70.73 8.25 131.11-60.25 204.12-35.14a4232.3 4232.3 0 0 0-30.48-72.17"
       id="path93" /></g><path
     fill="#fff"
     d="m469.73 55.32.9-.2-4.16-8.34-1.1 7.7-4.55-6.43.15 9.25.91-.2-.11-6.18 4.16 5.77 1.01-6.94Zm2.62-3.79.63-4.15 2.5 3.44zm6.08 1.82-5.57-7.46a1.23 1.18 0 0 0 .54-.45 1.14 1.1 0 0 0 .18-.91 1.14 1.1 0 0 0-.59-.74 1.27 1.22 0 0 0-1.73.39 1.17 1.12 0 0 0-.16.9 1.13 1.09 0 0 0 .57.75c.23.13.47.19.72.17l-1.51 9.06.96-.22.37-2.45 3.79-.86 1.47 2.04zm-6.57-8.8c.08-.12.2-.2.36-.24a.55.55 0 0 1 .41.06c.13.08.22.18.25.32.04.13.01.25-.07.37a.56.54 0 0 1-.35.23.57.57 0 0 1-.43-.06.52.5 0 0 1-.17-.69Zm8.33 7.51-1.82-7.4-.89.2 2.03 8.25.88-.2 3.08-.7-.2-.84Zm0 0"
     id="path97" /><path
     fill="none"
     stroke="#000"
     stroke-width="1.06"
     marker-end="url(#c)"
     d="M365.13 158.75c0-58.2 5.29-79.38-15.88-95.25"
     id="path99" /><text
     xml:space="preserve"
     x="138.25"
     y="21.17"
     stroke-width=".26"
     font-family="sans-serif"
     font-size="11.29"
     style="line-height:1.25"
     id="text105"><tspan
       x="138.25"
       y="21.17"
       id="tspan101">Direkt efter start körs först ett varv på startområdet</tspan><tspan
       x="138.25"
       y="35.28"
       id="tspan103">Innan man svänger ut på spåret</tspan></text><text
     xml:space="preserve"
     x="125.01"
     y="156.76"
     stroke-width=".26"
     font-family="sans-serif"
     font-size="11.29"
     style="line-height:1.25"
     id="text111"><tspan
       x="125.01"
       y="156.76"
       id="tspan107">För de som kör 40km sker en varvning</tspan><tspan
       x="125.01"
       y="170.88"
       id="tspan109">innan man svänger av mot mål</tspan></text><path
     d="M433.64 221.08a.24.24 0 0 1-.28.17l-3.49-.78a.24.24 0 0 1 .1-.46l3.49.78c.11.03.22.13.18.29zm-.09-8.28-3.5.7a.24.24 0 0 1-.1-.46l3.5-.7a.24.24 0 0 1 .28.17.24.24 0 0 1-.18.28z"
     id="path113" /><path
     d="M427.12 209.51a18.31 18.31 0 0 0-4.09 1.54 3.7 3.7 0 0 0-1.02 1.7c-1.27.1-2.14 1.63-2.16 3.9s.8 3.82 2.08 3.93a3.7 3.7 0 0 0 .98 1.73c.01.02 1.56.92 4.05 1.63a24.06 24.06 0 0 0 10.26.58l1.33-.19a.24.24 0 0 0 .2-.23l.02-1.6a.24.24 0 0 0-.2-.24l-1.3-.2-.4-.2.24-.06a.24.24 0 0 0 .18-.22l.1-9.49a.24.24 0 0 0-.18-.23l-.24-.06.41-.2 1.3-.16a.24.24 0 0 0 .21-.23l.02-1.61a.24.24 0 0 0-.2-.24l-1.33-.21a24.06 24.06 0 0 0-10.26.36zm-4.63 3.3a3.4 3.4 0 0 1 .76-1.32l2.32.55-.05 4.43h-.93l-1-.5c.04-.52.12-2.05-.53-2.8a1.19 1.19 0 0 0-.57-.37zm3.45 8.58.05-4.44 9.5.1-.05 4.62c-.98.15-5.54.76-9.5-.28Zm9.98.19.04-4.52h.22l-.05 4.47zm-11.93-4.89-.74.35a.23.23 0 0 0-.08.04l-.4.33.02-1.46a11.17 11.17 0 0 1 .46.38zm-1.7 1.07a2.1 2.1 0 0 1-.75.39c-.27 0-.45-.62-.44-1.49.01-.87.2-1.48.47-1.48.12 0 .41.17.75.41zm-1.97-1.1c.02-2.04.77-3.45 1.82-3.43.23 0 .42.08.57.25.4.47.46 1.48.43 2.15-.46-.38-1.18-.91-1.57-.92-.6 0-.93.69-.94 1.95s.3 1.95.9 1.96c.39 0 1.11-.5 1.59-.88.01.66-.06 1.67-.48 2.13a.73.73 0 0 1-.58.25c-1.04-.01-1.76-1.44-1.74-3.47Zm2.09 3.89c.22-.06.41-.18.58-.36.66-.73.62-2.27.58-2.78l1.01-.48.94.01-.05 4.44-2.33.5a3.36 3.36 0 0 1-.73-1.33zm15.89 2.14-.01 1.2-.2.03.01-1.26zm-.67-.1-.01 1.4-.2.02.02-1.45zm-.66-.15-.02 1.64a23.59 23.59 0 0 1-9.84-.6 20.2 20.2 0 0 1-3.35-1.25l1.94-.42c4.42 1.2 9.63.36 10 .3l.42-.1zm-.15-1.06-.22.05.05-4.37h.22zm.1-9.1-.05 4.31h-.21l.04-4.37zm-.69-.17-.05 4.48h-.21l.05-4.53zm-.68-.15-.05 4.62-9.5-.1.04-4.44c3.98-.96 8.53-.25 9.5-.08zm2.89-2.16-.02 1.2-.2.02.02-1.26zm-.67-.11-.02 1.4-.2.02.02-1.45zm-.67-.11-.01 1.65-.86.4-.42-.1c-.37-.08-5.55-1.03-10 .08l-1.94-.46c.64-.3 1.8-.78 3.36-1.18a23.59 23.59 0 0 1 9.87-.39z"
     id="path115" /><text
     xml:space="preserve"
     x="-205.02"
     y="396.98"
     stroke-width=".26"
     font-family="sans-serif"
     font-size="11.29"
     style="line-height:1.25"
     transform="rotate(-90)"
     id="text119"><tspan
       x="-205.02"
       y="396.98"
       id="tspan117">Vätska</tspan></text><text
     xml:space="preserve"
     x="-206.36"
     y="432.03"
     stroke-width=".22"
     font-family="sans-serif"
     font-size="9.44"
     style="line-height:1.25"
     transform="rotate(-90)"
     id="text123"><tspan
       x="-206.36"
       y="432.03"
       id="tspan121">Överdragskläder</tspan></text></svg>
