<?xml version="1.0" encoding="UTF-8"?><svg id="Layer_2" xmlns="http://www.w3.org/2000/svg" viewBox="0 0 138.36 147.85"><defs><style>.cls-1{fill:#231f20;}.cls-1,.cls-2{stroke-width:0px;}.cls-2{fill:#c10230;}</style></defs><g id="Layer_1-2"><g id="U_Logo_RedBlack"><path class="cls-1" d="m12.01,147.85c-3.92,0-6.9-.69-8.95-2.07-2.04-1.38-3.06-3.45-3.06-6.22v-12.75h4.16v12.69c0,.85.13,1.61.39,2.27.26.66.69,1.22,1.3,1.67.61.45,1.42.8,2.43,1.03,1.01.23,2.25.35,3.73.35s2.73-.12,3.73-.35c1.01-.23,1.82-.58,2.43-1.03.61-.45,1.04-1.01,1.3-1.67.26-.66.39-1.42.39-2.27v-12.69h4.16v12.75c0,2.77-1.02,4.84-3.06,6.22-2.04,1.38-5.03,2.07-8.95,2.07"/><path class="cls-1" d="m51.93,147.4v-14.05l-9.76,14.05h-3.17l-9.76-14.05v14.05h-4.19v-20.59h4.44l11.1,15.98,11.09-15.98h4.44v20.59h-4.19Z"/><path class="cls-1" d="m70.84,131.54l-4.09,6.85h8.17l-4.09-6.85Zm9.44,15.86l-3.56-6.01h-11.77l-3.56,6.01h-4.61l12.33-20.59h3.45l12.33,20.59h-4.61Z"/><path class="cls-1" d="m99.19,129.81h-9.65v6.09h9.86c.26,0,.55-.02.88-.05.31-.04.61-.08.93-.14.32-.06.63-.13.93-.22.56-.2,1.07-.52,1.52-.93.45-.42.67-1.05.67-1.91,0-1.08-.45-1.82-1.36-2.23-.9-.41-2.17-.61-3.79-.61m6.2,17.59c-.54-.37-.9-.97-1.09-1.79-.19-.83-.3-1.99-.35-3.49-.02-.67-.1-1.2-.23-1.61-.13-.41-.36-.73-.7-.97-.34-.24-.83-.41-1.46-.49-.64-.08-1.48-.13-2.54-.13h-9.47v8.49h-4.16v-20.59h13.67c1.2,0,2.37.09,3.51.26,1.14.18,2.15.49,3.03.93.88.45,1.59,1.05,2.11,1.81.53.76.79,1.73.79,2.92,0,.85-.24,1.68-.72,2.49-.48.81-1.24,1.49-2.27,2.05.85.45,1.48,1.01,1.9,1.7.42.69.66,1.44.7,2.25.02.87.06,1.6.1,2.18.05.58.12,1.09.21,1.53.09.44.22.84.39,1.21.16.37.39.79.67,1.25h-4.08Z"/><path class="cls-1" d="m123.84,131.54l-4.09,6.85h8.17l-4.09-6.85Zm9.44,15.86l-3.56-6.01h-11.77l-3.56,6.01h-4.61l12.33-20.59h3.45l12.33,20.59h-4.62Z"/><path class="cls-2" d="m95.04,0h43.32v58.47l-.17,16.38c0,28.06-14.38,42.09-43.15,42.09h-51.89C14.38,116.94,0,102.91,0,74.85V0h42.97l.18,64.33c0,10.46,6.39,15.71,19.18,15.78h13.54c12.78,0,19.18-5.26,19.18-15.78V0Z"/></g></g></svg>