<svg xmlns="http://www.w3.org/2000/svg" xml:space="preserve" viewBox="0 0 768 832"><path d="M514.1 653.3c-8.6 3.5-16.7 7-25.2 9.8-8.2 2.8-16.7 4.6-24.8 8.1-6.7 3 2.2.8-19.4 5.8-10 2.3 0 1.1-30 3.3a326 326 0 0 1-42-.5c-14.3-.9-28.8-1.2-43-5-12.5-3.3-25.2-6.3-37.6-10.2-10.4-3.3-21-6.5-30.5-12.5-2.6-1.7-6-2.1-8.7-3.5-8.2-4.3-15.6-9.9-23.2-15-5.5-3.7-11.2-7.1-16.8-10.6-5-3-9.5-6.9-13.5-10.7-8.7-8.4-18.6-15.6-26.9-24.4-6.7-7.1-11.7-15.5-17.5-23.3-3.5-4.7-7.6-9-10.5-14.1-3.5-6.3-6.4-13.1-10.3-19-5.4-8.2-8.4-17.2-11.7-26.1-3.1-8.7-7.2-17.1-7.5-26.8-2.6-10-5-19-6.9-28.7a162.7 162.7 0 0 1-2.8-48.6 208 208 0 0 1 2.6-28.2c4-12.4 5.7-32 10.1-41.1 3.5-6.8 5.3-14.3 7.7-21.2 3.2-9.1 8.3-16.8 12.7-25 5-9 12-17 17.6-25.6 6.8-10.6 17-18.1 23.8-28.6a39 39 0 0 1 11.3-11.2c7-4.4 11.7-11 18.6-15.5 9.5-6 18-13.6 27.5-19.6a226.9 226.9 0 0 1 64.9-28.7c10.5-2.8 21-5.2 32.2-7 10-1.7 15-3 25.7-4.4 14.3.5 30-2.4 42.4-1.5 8.4.7 16.8 1 25.3 2.4 27.4 4.2 17 2.3 27.4 4.2 7.7 1.5 15.2 4.3 22.9 6.4 15.4 4 29.2 11.8 44.2 16.7a348 348 0 0 1 85.3 65.1c7.2 7.9 14.2 16.3 19.7 25.8 3.7 6.3 8 12.4 12 18.6 5.8 8.8 9 18.7 13 28.3a240 240 0 0 1 10 32.2c2 7.1 4 14.4 5.4 21.9 2 10.6.6 21.2 1.8 31.7 1.7 15.6-1 31.1-.6 46.8.2 6.1-2.9 12.3-4.4 18.5 0 .2-.3.3-.3.5 1 9.5-5.3 17.4-6.2 26.6-.3 4.2-2.7 7.9-4.3 11.5-4 9-7.2 18.2-11.4 27a177.8 177.8 0 0 1-21.8 34.5c-8.4 10.5-15.3 22.3-25 31.8-9.2 9.1-19.9 17-29.9 25.4-6.6 5.6-14.4 9.5-20.2 15.9-2.2 2.3-5.3 2-7.5 3.6-7.2 5.6-15.8 9-23.7 14.2m33-125.1c-2.4.1-4.8.3-6.8 2.3-2.7 2.5-6.4 2.4-9.4 1-3.4-1.3-.6-3.7-.1-5.8.2-.7-.7-1.7-1-2.6-2-4.8-.8-9.2 3.3-12.5l6.3-5.4c-1.6-1-2.6 0-3.6.3-6 2.1-7.8 1.1-8.8-5.5-.3-2.1-1-4-3.7-5.4-.5 6.5.8 12.8-3.3 17.9-3.6 4.5-8.5 7.7-13.6 11.8 4.2.7 5.5-2.1 7.5-3.3 6.6-3.6 9.8-2.1 11.1 5.4 1.4 8 6 11 13.8 9 1.3-.3 3.4-1.2 3.7-.3 2.3 5.7 9 2.6 12.4 6.7.8-8.1 5.1-14.2 10.4-19.8-3.7-2.1-7 2.2-10.2-1 .2-2.6 2.2-6-3.1-8.2 1 6-.4 11-4 15.2l-.8.2M424.7 630.5c-1.5-2.4-4-4-5.2-6.7-3-6.6-9.6-7.9-15.5-3.3-3.6 2.8-8 2.4-10.6-1-4-5.1-14-7.4-19.1-3.5-4.6 3.5-9.7 6.3-14.2 9.9-6.6 5.2-13.6 5-21.2 3.1-8.3-2-16.5-2.8-23.8 3.3-1.4 1.2-2.8 2-4.5.9-2-1.2-4.1-1-6.3-1-5.5-.1-10.2-2.6-15-4.8-1.5-.8-2.6-2.2-2.4-4.1.3-2 1.7-3.3 3.5-4 1.3-.4 3-.4 4.4-.4h40c1.6 0 3.4 0 5-.4a91.2 91.2 0 0 1 23.3-3.6c4 0 7.4-1.5 10.5-4.5-4.3 2.8-7.7-2.2-11.5-1-11.8 4.3-24.4 4.2-36.5 5a832 832 0 0 1-47 2.1c-12 .1-24 .2-34.7-6a187 187 0 0 1-19.3-12.5c-8-6-17.7-8.5-27.2-11.4-2.1-.7-3.8-.2-4.4 2.5 8.7 1.8 16.5 5 22.6 11 2 2 6 3.5 4.7 7-1.2 3.3-5 1.5-7.6 2.1h-.5c-1.2.2-2.5.3-2.5 1.9 0 1.5 1.4 1.8 2.5 1.7 5.3-.1 11.3 2 14.3-5.6a36 36 0 0 0 15.5 9.6c8.2 2.7 16.7 2 25.1 2 3.4.1 6.8 0 8.7 3.5.7 1.4.2 2.6-.7 3.7-2.8 3.2-6.4 2.2-9.8 1.8l-.5-.1c-5.4-2.8-11.1-1.2-16.7-1.4-2 0-3.4 1.3-3.9 3.3-.4 2.2-.5 4.3 1.5 6 5.7 4.3 12.5 8 18.8 9.5 10.4 2.5 21.9 2.4 30.9-6.3 4-4 6.8-3.5 11.2.2 3.7 3 7.3 7.3 11.5 8.3 8 1.7 15.6 6.5 24.4 2.6 5.1-2.2 11.1-1.7 15.7-6.3 3-3 7.5-2.7 11 .2 5.4 4.6 11 5.3 17.3 1.6 3-1.7 5.7-3.4 8.2-5.7 2.4-2.3 4.5-1.3 5.1 2 .6 3.3-1.4 5.8-2.6 8.5-2 4.6 0 8.3 5 8.8h5c4.4-.3 5.4-1.8 4-5.8-3.3-9.1.2-15.3 9.7-17.1 3-.6 4.6-1.9 3.8-5.6m-23.3-344.3c-1.1 6.2 2 11.9 2.3 18 .3 6.1-4.3 12-1 18.1 4.1-.6 7.7-2.9 11 .1.1 3.6-3.9 3.1-4.7 5.7 1.7 3 4.8 2.5 7.5 3 1.8.4 3.6 1.4 3.3 3.7-.1 1.6-1.4 2.8-3.1 2.3-8.8-2.6-18-2.8-27-4.6-3-.6-5.2.9-5.6 3.5-.4 2.8 2.4 2.9 4.3 2.7 4.8-.6 9 1.7 13.6 2.6 3.6.8 7.1 2.7 10.4 5.2 5.2 3.8 11 7.9 18.4 4 1.5-.8 3.4-.8 4.5.7 1.2 1.6 1 3.5 0 5.2-3.1 5-11 8-16.7 5.7a10.3 10.3 0 0 0-8.2 0c-3.7 1.5-8 2-11-.3-6.2-4.8-12.7-2-19.2-2 3.2 3.7 5.4 8 9.4 10.8 1.2.8 2.4 2 2 3.7-.6 1.9-2.2 1.8-3.7 1.8-2.2 0-4.3 0-6.4-.8-8-3.2-16.1-4.8-24.6-2-1.2.3-2.2-.3-3.3-.4-10.8-1.5-18.7-11-30-11.2-2.1 0-3.9-2-5.4-3.5-4.2-4-9-7.7-9.2-14.5-2.3 1.2-2 2.8-1.7 3.8 2.5 9 6.2 17.5 11.8 25 1.2 1.8 3 3 5.3 1.5.4-3-4.3-4.1-2-7.3.3 0 .7-.2 1-.1.6.2 1.3.4 1.7 1 5.3 6.8 13 10.1 20.6 13.4 7.2 3 15 5.3 22.4 0 .8-.6 1.7-1.2 2.6-1.4 3-.8 7-2 8.8 1 2.4 4.3 5.8 4.3 9.7 4.3 4-.1 8 .2 12-.2 9.6-.9 17.6-5.8 25.4-11.5-6 .2-11.2-3-17-2.9-5.7 0-11-1.4-16.8-4.6 4-2.7 6.8-1.7 9.7-1.4 6.5.6 12.7 2.3 19.2 2.9 6.7.7 12-3.4 18.2-4.3 2.6-.4 4.7-3.3 4.8-6.9.1-3.4-1-5.6-4.4-7-2.1-.8-3.7-2.7-5-4.7-3.5-5.3-7.2-10.6-10.4-16.1a30.6 30.6 0 0 1-5-20.8 24 24 0 0 0-4.1-18.9c-2.7-3.5-4.8-7.5-7-11.3-.8-1.2-.8-2.6.7-3.5 1.1-.8 2.3-.3 3.1.5 1 1 1.7 2 2.5 3 2.8 3.6 9.5 5.9 13.5 4.6-9-8.4-9-8.4-20.2-11.4-1.7-.5-3.2-1.4-3.8-3-1-2.4-2.9-3.8-5.2-5-6-3.5-13-6.1-15-14 0-.4-.6-.7-.9-1-6.2 4-8.1 3.8-14.1-1.4-1.7-1.4-3.4-2.6-5.7-1.7-.5 1.5.6 2.3 1 3.4.3 1 .3 2-.5 2.8-1 1-2.4 1-3.2.2-2.2-2.4-5.4-3.4-7.6-6-5.1-6-11.8-9.8-20.2-8.5-2.1.4-3.5 1.2-2.4 4 1.7.2 4-2 5.4.3 2.6 4.5 7.1 7.5 9.3 12.1 1.6 3.4 4.2 5.3 7 6.7 1.8.8 5 2.7 6.4.4 4.3-6.8 11-4.5 15.7-3a98.8 98.8 0 0 1 26.8 10.9c5 3.2 6.3 7.5 3 12.5a32.8 32.8 0 0 0-3 6M291 331c3.8 2.3 8.5.6 12 2.3 7.7 3.6 15.5 1.3 22.8.8 12-1 23.7-3.7 35.9-3.3 3.6.2 7.3.5 11 0 8.6-1.4 16.6-4.3 20.8-13 2.6-5.2 3.4-11 4.8-16.5 1.2-4.8-3.2-8-7.8-6.3-1.5.6-2.6 1.4-4 2.2-9 5.3-17 12.7-28.2 14.4-7.5 1.1-15.3 2.1-22.5 5.3-3.3 1.4-6.5 3.2-10 4.2a40 40 0 0 1-20.6-.7 77.2 77.2 0 0 1-29.6-11.7c-5.8-4.4-12.8-7.1-19.6-10.8l-.8 2.8c-1.4 5.5 2.4 8.7 5.3 12.5 4.1 5.4 7.3 11.6 15.3 12 .9 0 1.8.9 2.5 1.5A17 17 0 0 0 291 331m186.5 90.7 2.8 1.1c8 2.6 16.5 2.8 24.4 6a111 111 0 0 0 17.8 5.8c6.9 1.6 14 2.2 20.7 4.5 2.9 1 5.8 3 8.5 2.6 11.1-1.5 19.9 6.1 30.6 7.2 10 1 20.1 5.6 30.2 8.4 1.2.3 2.3.8 2 2.9a14.9 14.9 0 0 1-11.6 0c-11.2-4.6-23.5-4.9-34.9-8.8-7-2.3-14.5-2.9-21.5-5.2-7.6-2.5-15.4-3.8-23-6.1-6.6-2-13.9-2.3-20-5.1-7.4-3.4-15.3-3.9-22.5-7-5.3-2.1-11.2-.3-16-2.4-10.3-4.6-21.6-4.6-32-8.4-1.4-.6-3.3-.2-5-.1-1.3 0-2.6.5-2.8 2.2-.2 1.7.7 3.3 2.3 3.3 4 0 7.5 2.7 11.7 2.3a26 26 0 0 1 13.5 2.2c2.8 1.2 5.9 1.2 8.6 2 5 1.5 10.6.4 15.1 2.3 10.4 4.2 22 4.5 32 9.7 1 .5 2.3.7 3.4.8 10.3.6 19.7 5.1 29.6 7.4 9.3 2.2 18.6 5.6 28 8.1 11 3 22.6 4.4 33.5 8a23.4 23.4 0 0 0 16.4-.4c4.2-1.5 5.3-3.9 3.5-8-1.2-2.7-3.8-3.9-6-5.5-4-2.8-8.7-1.7-13-3.2-8.7-3-17.5-6.2-26.5-7.9-14.1-2.6-27.4-8.2-41.6-10.4-3.3-.5-5.8-3.7-9.2-3.7-11 .3-21-4.8-31.8-6.6a162.1 162.1 0 0 1-32.3-8.9c-6.5-2.5-13.6-1.9-20-5.2-3.1-1.5-7.3-3.3-11.5-2.3-1.6.3-2.9.9-3.6 2.3-1 1.8.5 2.9 1.6 3.7 3.4 2.7 7.4 4.2 11.8 4.4 3.3.2 6.8-.9 9.9.6 8.3 4 17.6 4.1 27 7.4m-79.5 136.6c-3.9-6.7-9.4-12.2-12-19.8-.7-2.5-4-4.1-5-6.6-2.8-7.1-7.1-13.3-11.2-19.5-5.4-8.2-10.2-17-16.1-24.8-4.7-6-7.3-13.2-11.8-19.3a114 114 0 0 1-10.5-17.3c-3.4-6.9-7.5-13.4-10.7-20.5-.7-1.7-2.6-2.8-3.2-4.9a68.8 68.8 0 0 0-7.6-15c-4.2-6.7-7.7-13.8-11.5-20.8-5.7-10.6-13.8-19.8-18.5-31-1.1-2.6-2.2-5.3-3.8-7.6-1.7-2.4-3.7-5.4-7.4-2.9 3 10.6 10.5 18.5 14.3 28.6 3.3 9 9.7 16.8 14 25.5 3.4 7 7.3 13.8 11.2 20.2 3.8 6.4 6.4 13.5 11.6 19.4 6.8 7.8 11.7 17.2 17.2 26.1 3 4.6 6.4 9 8 14.3 3.2 9.7 8.6 18.3 13.3 27.3 4 7.8 9.7 14.6 13.6 22.8 4.1 8.4 9.6 16.6 15.7 23.8 8 9.3 11.8 20.9 19.4 30.2 2.2 2.7 2 6.4 4.2 9.3 5 6.3 8.7 13.3 13 20a379 379 0 0 1 18 31.3c2.4 4.5 5.7 8.5 8.6 12.7 1.3 2 3.1 2.3 5.2 1.1 2.3-1.3 1.5-3 .6-4.6l-2.4-4.4c-6.5-11.4-16-20.8-21.3-33-3.4-8.1-9.2-15-13.6-22.5-7.1-12.4-13-25.5-21.3-38.1m67.2-63c-1.7 0-3.4.3-4.8-.9-1.5-1.1-3.2-2.4-2-4.5.8-1.8 2.7-1.8 4.3-1.3 10 3 20 1.6 30-.3 6.6-1.3 8.3-4 6.4-10-7.7 5.7-16.5 3.7-25 3.7-4.7 0-5.4-1.6-3.4-6.2 6.9.8 13.5 3.8 20.7 1.2 2.5-1 5.1-1.2 4.9-4.4-.3-2.9-2.5-4-5.3-4.2-5.2-.4-10.4.8-15.4-.6-1-.3-2 .1-2.2.8-1.5 4.6-5.4 3.9-8.7 3.6-6.5-.5-12.4.8-18 4.2-6 3.6-6.7 6.5-2.7 12 2.5 3.4 4 7 3.8 11.5-.4 6.3 6 13 12 13.1 3.8 0 7.2.2 10.3 2.9 2.2 2 5.4 1.7 7.9-.2 2.6-2 5.8-3.3 8-5.9 1.8-2.2 4.3-3 6.6-1.4 2.7 2.1-.3 4.2-.8 6.2-.6 2.3-4 1.9-4.3 4.7 1.6 2.7 3.9 5 7 2.7 6.8-4.9 13.3-10 19.6-15.4 4.2-3.6 4.6-7.7 2-12-2-3.4-9.6-7.3-12.7-5.8a63 63 0 0 1-18.4 5.4c-6.4 1-12.4 4.1-19.8 1.1m-51-46.2c.5 1 .7 2 1.3 2.7a43 43 0 0 1 10 18c1.8 5.2 6 6.7 11.1 4.4 5.6-2.5 11-5.4 17-8.4-13.2-9.7-24-21.1-35-32.4-5.4 7-5.5 7-13.1 4.5-5.7-1.8-3-6.5-3.6-10-.2-.7 0-1.4 0-2 .2-2 0-4-2.3-4.4-2.4-.4-3.5 2.1-3.3 3.5.5 6-2.2 11-4.8 15.8-3.4 6.3-4.4 13.9-10 19.2-5.5 5.3-5 7.2 2 10 1.2.5 2.6.9 3.8.8 9.2-.1 18 1.5 26.8 3.8 1.6.5 3.5.6 4.7-.8 1-1.3 1.2-3.2.3-4.3-4.2-5-5.8-12-11-16.3-3.9-3.2-2.3-6.4-1.4-10.2 3.6 1.2 5 3.8 7.6 6.1m34.1-10.2c5.2 5.2 12.2 6.7 18.7 8.7 11.7 3.6 23.6 6.6 32.7 15.5.8.8 2 1.7 3 1.7 5.5-.1 10.9 2.3 16.2 2 10.3-.6 20 2 29.8 4.4a18 18 0 0 1 9.3 5.3c-3.8 4.4-7.9-1.7-11.9.7 3.6 3.8 8.1 4.8 12.4 6.5 2.9 1.1 5.1 1 6.4-1.7 1.3-2.7 1.3-6.2-2-7.2-6.4-2-11.7-6-18-8.3-6.6-2.4-13.5-4.1-20.2-6.3a46 46 0 0 1-22.2-13.7c-1.6-2-3.9-2.7-6.5-3.2-9-2-18-4.4-26.9-6.7-5.9-1.5-11.6-4-17.7-4.3a27 27 0 0 1-12.4-3c-3.9-2-8.1-1.5-13.3-.2 3.7 3.9 5.2 8 8.4 11 7.8 7.4 15 15.4 23.9 21.8 3.4 2.4 6.6 3.5 10.5 1.4 4.3-2.3 8.7-3 13.4-.9 1.8.8 3.7 1 6.4-.5-6.9-2.6-13.3-4-19.3-6.5a161 161 0 0 1-23.2-12.3c-1.7-1.1-1.7-2.9-1.1-4.4.7-2 2-1.1 3.6.2M460 572.6c-5.1 8.3-10 13.1-15.8 11.4-6.8-2-14-2.3-20.8-4-1.5-.4-3.4-2.9-4.7-.3-1.3 2.3 1.6 3.2 2.7 4.7.8 1 2.2 1.4 3.5 1.7 10 2.7 20 5.5 30.5 1.9 4.7-1.6 9.2-5.4 10.3-10.4.7-3.1 2.8-5.6 5.7-6.3 3-.8 4.5 2 5.7 4.5a8 8 0 0 0 7.9 5c6.8-.2 13-1.6 17.7-7.1 2.3-2.7 5-3.8 8.3-1.5 5 3.5 9.7 2.3 12.6-3 2.7-5 9.6-7.9 15-5.6 5.3 2.2 10.8 1 16.2 1.2 3.2 0 3-2.5 3-4.7 0-2.1.3-4.7-3-4.8-11.4-.4-22.9-1.4-32.1 7.9-4.4 4.4-14.6 5.5-18.1 2.2-4.2-3.9-9.3-5.7-14-8.5-2.7-1.6-4.8-1.5-7.9-.5-4.4 1.5-8.2 4.3-12.9 5a5.6 5.6 0 0 0-4 3.6c-1.1 3-3.3 5-5.8 7.6m-127.9-381c2 6.2 4.8 12.3 4 19.2-.4 3.5-2 5.9-5.3 6.1-3.9.3-4.8 2.3-4.5 5.6.1 2.6-1.1 4-3.9 4-2.4 0-5-.2-5-3.4 0-2.6-1.6-4-3.4-5.4.9-3 2.7-4 5.3-4 2.2 0 4.4.1 6.5-.1 3.7-.4 5.7-2.7 4.7-6.1-1-3.5-1.4-7.1-2.2-10.6-.5-2.6-2-6.4-5.7-4.1-7 4.3-14 8.7-15.8 18-.6 3-1.1 4.9 1.3 7 4 3.3 7.7 6.9 1.6 13h7.5c13.7 0 27.3.3 41 0 4.6-.2 8.6 2 13 2 2.6 0 6.1-1 5.3-3-1.2-3.2-1-7-4-9.8-5.5-5-11.7-5.2-18.2-4.8-3.6.2-6.4-.9-7.2-4.5-.8-3.7-3.2-7-3-11 .2-5.6-3.1-9.1-7-12.4a3.5 3.5 0 0 0-4.6-.5c-1.7 1-.8 2.6-.4 4.8M228.7 298c4.8 4.6 9.2-.5 13.7-1 2.2 2.1 1.1 4.6 1.4 6.8.4 2.8 2.4 4 5.6 4.9-4-10.2.8-18.7 3.8-27.6-4.4-1.5-5 1.7-6.5 4s.8 6.2-3.7 7.6c-1.4-5.1-2-10 1.3-14.3 2.7-3.5 2.3-7 .8-10.6-.8-1.8-2-3.5-2.6-5.3-1.9-5.8-4.3-6.8-9.7-4 0 1.5 1.1 2.4 1.9 3.4 1.3 1.7 2 3.7.7 5.5-1.4 2.1-3.2.7-4.9 0-1-.4-2.2-.5-3.3-.9-1.7-.6-2.6-2.1-1.7-3.5 2.3-3.6 0-6.1-1.8-8.5-1.7-2.3-2.8-4.8-4.2-7.3L205.2 223c-.8-1.4-2.2-2-3.9-1.7-1.9.5-1.8 2.1-1.9 3.6-.1 1.7.5 3.2 1 4.8 1 3.1 3.7 5 5.2 7.9 3.2 6.5 6.8 12.8 10.5 19 3.5 5.9 3.4 8.7-1.3 13.1-2.2 2.1-3 3.9.4 5.7 1.9 1 4 1.9 4.3 4.5.7 7 3.1 13 9.2 18m35.2 290.7c5.8 4.5 11.9 7.2 19 2.7 1-.7 2.2-.8 3.2-1.4 5.3-2.9 11.9-4.4 12.3-12.5 0-2.7 2.4-5.3 5.6-4 7.4 3.3 13.5-.3 20-2.8 2.5-1 3.2-3.2 2.8-5.7-.4-2.9-2.4-3.6-5-4-5-.7-9.6.8-14.1 2.2a38 38 0 0 0-21 13.4c-5.7 8.1-5.3 8.4-12.2 1.4-1.4-1.4-2.8-2.7-3.6-4.7-1-2.2-3-3.4-4.8-4.9-6.5-5.2-14-3.7-21-3-5.4.4-10.7 2.5-15 6.8 2.7 1 5.3 1.2 7.2.2 5.8-3.2 9.9-.2 13.7 3.4 4.3 4 8.3 8.2 12.9 12.9m7.7-290c9.2 6.8 19.8 10.6 30.3 14.4 8.1 2.9 16.3 6 24.8 1 1.7-1 4.7-.4 4.6-3.5 0-2.8-2.4-3.7-4.4-4.8-7.4-4.3-14.6-9.1-22.4-12.4-6.4-2.6-12.8-7.7-20.6-3.8-1 .5-2.5.3-3.4-.1-5.6-3-12.2-2.7-18-5-2.6-1-4.5.6-5.2 3.3a6.7 6.7 0 0 0 5.7 8c3 .2 5.4 1.5 8.6 2.9M492 636c-2.4-.5-4.5-2.2-7.2-1.8-7.6 1-13-3-17.8-8-4.1-4.3-8.3-8.1-14.8-8-1.3.1-2.6-.4-3.8-.9-2-.8-4.5-1.5-3.4-4.5.8-2.3 2.7-2.8 5.2-2.2 5 1.1 10.5-1 15.7 3-.5-2.8-1.5-3.8-2.5-3.9-7.6-.6-15.2-1.7-22.7.7-2.6.8-3 1.9-2 5 2 5.8 6.8 9.4 8.9 14.8 1.6 4.3 4.6 6.5 9.2 5.7 9.8-1.7 17.2 3.1 24.6 8.3 3.2 2.2 6.6 3.2 10.5 3.8 5.7.8 9.8-2.4 14.4-4.3a271 271 0 0 0 18.7-9.3c2.3-1.2 2.5-2.8 0-4.5-4-2.6-11.4-2.4-16.3 1.6-4.8 4-10 5-16.7 4.5M354.2 280.5c-5.9 5-11.4 10.9-20.3 9.7-1-.1-2 .6-2 1.8-.2 1.3.7 2.4 1.7 2.7 4.7 1.6 8.7 5 13.9 5.2 2.2 0 4.1.4 6 1.8 4.3 3.3 9.5 2.7 14.2 0 5.9-3.4 10-10 17.6-10.2 1.3 0 2.6-.6 3.9-1 2.4-1 4-2.6 3.3-5.4-.9-3.6-10.5-10.9-14.4-10.8a36 36 0 0 0-11.2 1.5c-4 1.3-7.6 4.1-12.7 4.7m-17.7 233c4.3.6 7.4-1.2 10-5-1.9-2.5-2.6-5.2.2-7.8 1.5-1.4 1.1-3 0-4.5-5.4-7-9.1-15-13.1-22.7-1.2-2.4-2.1-6-5.3-4.7-3.6 1.3-8.5.7-10 6-1.7 5.1-1 10.2-1.3 15.4 0 3.2.8 5.4 4.4 6 2.4.3 4.8 1.7 4.7 4.4-.2 3.2-3.2 2.2-5.1 2.5-1.5.2-3.3-.2-3.6 2-.3 1.8 1.3 2.8 2.6 3.2 5.2 1.8 9.8 5.7 16.5 5.3m187.3 91c7.8-.6 15.5-3 23.4-2.8h20c4.7 0 7-2.8 9-6.7a9.8 9.8 0 0 0-7.6-1c-8.9 2.2-18 2.3-27 3-14.5.9-28.8 1.5-43.3 3.5-11.6 1.6-23.5 3.5-35.5 2.7-7.4-.5-15-.1-22.4 0-1.3 0-3-.6-4.5 1.7h22c4 0 7.7.6 11.7 1.7 5.2 1.5 10.7 3.8 16.7.5 9.6-5.3 20-5.5 30.4-2.8 2.1.6 4.2 1.4 7 .3M319 380.3c-3.3-2.3-6 .3-9 1-3.5 1-6.9 1.5-9-2.6 2.5-2.5 5.3-1.4 7.6-2.7 3.2-1.7 4.3-3.8 1.4-6.5-4.9-4.4-6.3-10.3-8-16.1-1.9-6.4-7-10.3-13.6-9.8-1.3 0-2 .9-2.6 2a10.9 10.9 0 0 0-.4 11.3 237 237 0 0 0 13.9 24.3c2.3 3.5 6.5 7 8.7 6.4 3.8-1.1 9.1-1.7 11-7.3m51.9 35.6c-1-1-2.5-1-3.2-.1-3.1 4.2-5.5 1.8-8-.7-1-1-2.2-2.2-3.5-1.6-4 2-10 .2-11.8 6.5-.6 1.9-3 3.2-4.4 4.8-2.3 2.6-5 4.6-6.5 8-1.2 3-2.5 6.3 0 8.3 2.3 2 5.7 1.1 8.7-.7 5-3 9-7.4 14.4-9.6a23.3 23.3 0 0 0 14.3-15m39.8-162.6c-2.2-.5-4.3-1.5-6.7-1.9-5.7-.8-11.3-2-14.4-7.8-.8-1.6-2.3-3.3-4.7-2.8-1.1 2.1-.3 3.8 1.1 4.6 7.8 3.8 12 12.4 21.6 14.3 6.1 1.3 11.5 2.6 17.7.6 5.1-1.7 10-4.2 15.5-5 3.4-.5 7.6.4 10.9-2.1-6-3-14.2-2.3-19.8 1.6A26 26 0 0 1 416 259c-3.8-.1-7.5-1.8-11.3-2.8v-2c10.5-.7 21.7 1.2 30.2-7-2.7-5-1-8 5-8.4 8.7-.6 17.3-.6 25.2 3.8 3.8 2 6.9 1.3 9.7-1.5-1.3-3-3.6-3-6-3-3.6 0-7.5.5-10.9-.5-14.9-4.4-27.2.3-39 9.3 2.8 2 5-1 7.2.3.4 2.4-1.5 4-2.9 4-4.1-.3-7.6 2.4-12.5 2M376.2 489c6.6-1 10.8-5.3 15-9.7-1.2-1.7-2.4-2.7-3.9-3-7.7-1.1-14.7-4.3-22-7-4.4-1.8-9.2-5-14.7-1.5.4 2.5.9 4.8 2.7 6.7a32 32 0 0 1 5.7 10.4c2.2 5.8 3.4 5.8 9 3 3.1-1.5 3.2-6.3 7.4-6.2.9 3.2.9 3.2.8 7.3m-174.5 73.7c-9-4.1-20-2-25.6 5-1.6 2-4 4.4-2.4 7 1.8 2.9 4 6 8.5 6 5.4-.1 7.7-3.9 10-7.8 4.2-7 7.6-8.2 12.8-4.7a32.4 32.4 0 0 0 22.3 4.3c-3.2-3-6.4-4.1-9.6-5.5-4.9-2.3-10.6-1.1-16-4.3m168-117.6-6.4 6.4c-7.6 7.7-7.5 7.5 1.7 12.4 3.5 1.9 5.4.8 7-1.6 3.6-5 7.1-10 9-16 .4-1.4.7-2.8 1.8-4a48 48 0 0 0 11.1-24.7c-4-1.1-4.6 2.1-5.7 4.4-4.2 9-8.5 17.9-18.5 23.1m-3.7-13.6c-4.4 5.2-9.8 9-16 11.5a22.3 22.3 0 0 0-8.5 7.5c-2.6 3.3.2 6.2 2.4 8 2.4 2.1 3.4-.9 4.7-2.5a62.5 62.5 0 0 1 16-15.5 47.7 47.7 0 0 0 19-20.3c.9-1.8 2.3-3.9-.1-5.2-2.5-1.4-5.7-.5-6.3 2-1.4 6.6-6.9 9.6-11.2 14.5m167.8 183.3c-6.2-4.7-13.3-6-21-5.8-4.6.2-9.2.2-13.9 0-3.7 0-7 1.2-9.6 3.5-3.5 3.1-7.3 3-11.1 1.6-2.6-1-5-1.2-7.8-.8 2.7 2.9 4.9 5.8 7.6 8.1 6.1 5.1 10.4 4.5 15.5-1.8 8.6-10.7 17-12.6 29.3-6.4a61 61 0 0 1 14.6 10c2 2 4.8 2.6 6.6.4 1.8-2.3-.7-4-2.3-5.3a16 16 0 0 0-7.9-3.5M298 241.6c.1 4.4-6.2 5.7-5.1 11 3.6-1.5 7-.3 10.3.2 6 1 12.4 1.2 17.5 6 2.9 2.7 7 4.1 11.2 1.4-4.7-5-7.8-10.5-8.9-17-.4-2.3-.7-4.4-3.4-4.8-2.7-.4-3.9 1.5-4.7 3.6-.7 1.5-1.4 3-1.7 4.6-.5 2-1.3 3.1-3.3 3.2-1.8 0-3.2-.6-4-2.4l-2.4-6c-1-3.3-3.2-4.4-5.5.2m198.7 162.8c-2-2.3-3-5-5-7.4-7.6-8.8-18.1-12.5-28.3-16.7-4.2-1.7-8.4-3.8-13.1-4-1.6 0-3.7-.3-4 2-.3 2.4 1 3.8 3.3 4.3 1.1.2 2.3.2 3.5.2 8.3-.4 16 2 23.3 5.6 2.5 1.2 4.9 2.6 5.4 7-3.4-1.8-6-4.3-10.3-3.1 8 7.2 13.6 16.3 24.4 20.6l-2.5-7.6c1.3-1.7 2.4.5 3.3-1M266 339a7.8 7.8 0 0 0-3.5 3.4c-.8 1.3-2.2 1.7-3.4.6-1.2-1-.3-2.2.5-3l4.8-5c1.1-1.2 1.9-2.7.4-4-1.4-1.3-3.1-.9-4.4.5-.8 1-1.2 2.4-2 3.4-2 2.6-4.2 4.3-7.7 1.6l5.1-8c1-1.4 3.7-2.5 2-4.4-2-2.3-3.7.4-5.3 1.6l-1.2 1c-1.3 1-2.8 2.1-4.3.4-1.2-1.4-.5-2.8.6-4 1.8-1.7 3.1-3.7 1.5-6.1-1.9-3-4.4-1-6.4-.7-2.3 2.8.3 5.2.1 7.8-.6 8 3 14.6 7.7 20.7 1.6 2.2 3.9 4 6.8 2.7 2.2-1 4.4-1.4 6.7-1.6 2.6-.3 3.4-2.3 4.1-4.5.5-1.5.5-2.6-2-2.4m57.4 185.4c1 .2 2 .4 3 .4 2.2.2 4.8-.3 5.6 2.9.7 3.3-1.7 4.3-4 5.3l-1.8.9c-1.3.6-2.7 1.4-1.6 3 1 1.4 2.6.6 3.5-.4 3.6-3.9 9.6-5.4 11.4-11 11.6 6 11.6 6 16 3.6-.4-.3-.7-.6-1.2-.7-6.4-1.6-6.9-3.1-2.4-8l1-1c2.6-2.7 1.3-4-1.6-4.8-2-.5-3.5.5-5 1.8-3.8 3.4-8.4 5.2-13.3 3.6-3.1-1-6.7-1.4-9.4-4-1.8-2-4.6-2-6 .3-1.4 2-.4 4 2 5.3 1.1.6 2 1.6 3.8 2.8m38-158.7h14c-3.2-3.4-6.7-4.3-10.9-4.8-6.8-.7-14.8 1.6-18.9-7.1-.5-1-2.8-2.7-5.3-1.7.4 3.8 6.1 5.2 4.4 10-2.5-.4-4.3-2-5-3.8-1.6-3.4-4-4.8-7.5-5.7-5.8-1.4-12.3-2.3-13.5-10.2-.2-1.3-2-2.4-3.6-1.5-1.9 1.1-2.7 3.1-1.6 4.8 3.1 4.5 5.9 9.2 12.4 10.4 5.5.9 11.3 1.7 15.8 6.2 2.5 2.6 6.2 5.6 10.5 4.4 2.8-.8 5.5-.8 9.2-1m-63.2 239.5c-12.1-.2-23.8 2.6-35.6 5 10.4.7 20.9 1.6 31.2.2 3-.5 8 0 9-2.8 2-4.8 5.3-3.6 8.5-3.9 4.5-.2 9.4 1.1 13-3-3.2-7-7.4-8.7-13.8-6.2-1 .4-2 .8-2.9.8-3.5 0-4.7 2-4.4 5.1.2 3-.6 5-5 4.8M579.5 534c1.6-2.8 5.2-4.2 6-7.6-4.7-4.3-9.4-5.3-12.9-3-8 5.4-11.8 12.5-10 18.3 7 1.3 11.9-2.7 17-7.7M413 404c0 2.5-.3 4.8-1.2 7.3-2.4 6-4 12.4-2 19.1 2.3.1 3.3-1.2 4.5-2.4 4.2-4.2 4.4-10 5.2-15.4.5-3.2.3-6.4 1.5-9.7 1.2-3 1.6-7-1-10.6-4.1 2.8-5.2 7-7 11.7m-61.2-12c1-.2 2.3-.3 2-1.6a3.2 3.2 0 0 0-2.9-2.4c-5.4-.7-10-3.2-14.4-6-1.8-1.2-3.6-2.6-6-1.8-.3 3 2 5.4 1.6 8.3-.6 5.5 1.9 8.8 7.4 10a32 32 0 0 1 7 2.5c2.3 1 4.1.7 4.8-1.6.7-2.5-1.2-3.6-3.3-4-2.5-.3-4.5-1-4.8-3.9 3-1.8 5.4.3 8.6.5M341 594.6c-2-2-4.1-4.3-6.3-6.3a14.4 14.4 0 0 0-11.3-4.2c-1.5.2-3.2 0-3.8 1.8-.5 1.7 1.2 2 2.1 3 4.5 4.8 10.2 8.5 13.3 14.6.9 1.7 2.4 3.3 5 2.3 2.3-.9 4-2.1 4-5 .1-2.3-.7-4.1-3-6.2m242-9.1c2.3.3 4-1 5.9-2.1 1.1-.7 1.8-1.8 1-3.4-3.1-6.9-17-14.3-24.5-13-1.6.3-3.2.9-3.4 2.5-.3 1.7 1.2 2.6 2.6 3.2 7 2.7 12.6 7.1 18.3 12.8M413.7 354.8c-9-5.5-17.3-13.3-29.3-11.5-3.6.6-6.9-.2-9.4-3.2-1.5-1.7-3.4-2.5-6.7-.8 5.2 1.9 7 7.1 11.5 8.3 6.2 1.7 12.3 3.7 18.4 5.4 4.7 1.4 9.9 4 15.5 1.8M343 278.6c2.2.4 4.3-.3 4.8-2.4.6-2.3-1.5-3.8-3.2-4.5-5.2-2.4-10.9-4-16.4-2.4-6.1 1.7-12 1.8-18.1.7-2.2-.4-4.3.4-5.3 2.9l5.2 8.8c.5-1.3 0-2.2 0-3.2-.1-1.9-1-4.4 1.6-5 2.7-.8 3.3 1.5 3.6 3.6.6 3.3 4.3 4.4 5 7.7.2-2.9-1.5-5.2-.7-8 .4-1.6.5-3.3 2.6-3.6 1.8-.3 3.4.1 4.2 2a5.6 5.6 0 0 0 3.4 3.3l1.4-.3c0-1.6-2.2-2.5-1.1-4.1 3.2-3 6-2.6 8.7 1 1 1.2 2.4 2.2 4.3 3.5m8 269.2c6.2-.4 4.5-5.7 6.4-9.2-6.6-1.3-12.8.4-18.7-2.3-1.8-.8-3.4 1-4.3 2.6-1 1.7.4 2.7 1.2 4 3.6 5.5 9 5.3 15.5 4.9m-6.6-286.4c-3.9-6.1-8.2-12-13.1-17.3 4.1 19.3 21.6 31.4 35.8 25-6.6-4.7-15.2-3.4-22.7-7.7M295 234.8c4.3.5 8-1.2 12.4-3-6.4-3-4.5-11.5-11.2-14-4.6 3-7.7 7-7.9 12.7-.1 4.1 1.7 6 6.7 4.3m66.8 160.6c-2 3.3-3.1 6.9-2.3 10.8.3 2 1.5 3.3 3.6 3.4 2 0 2.3-1.3 2.8-2.9 1-3 2.8-6 3.3-9.1.6-3.7 3.9-7 2-11.7a19 19 0 0 0-9.4 9.5m79.6-23.2c.3-.8 1-2 .7-2.2-2.3-2.5-5.2-1.6-7.9-1-2 .4-4.5.8-3.9 4 .7 3.8-1 6-4.4 7.4-1.5.7-2.9 1.6-3.1 3.7 1.7 2 4 3.8 6.3 1.8 4.4-4 9.3-7.5 12.3-13.7M402.8 397l3.8-1c5.8-1 7.6-3.5 6.7-9.7-8.4 2-16.5 4.8-26.1 6 4.8 5 10.2 3.7 15.6 4.7m63-2.4c-7.8-3-14.3-10.2-24.2-7.8 1.2 2.8 3.3 3 5.3 4 8.8 3.8 19 4.9 25 14.2 1 1.6 3.7 4.1 6.8 1.2-3.4-4.7-8.6-7.1-12.9-11.6m-75.2 8.3c-.5-2-2.2-2.7-3.6-3.8-2.5-2-5.7-1.4-8.1-3.4-2.6-2.2-3.9-.4-4.4 2-1.3 6.1 2.4 10 9.6 10.1 3.1.1 6-.2 6.5-5m184.2 145.4c12.8-6.3 18-10.6 17-17.5a13 13 0 0 0-7.2 5.8c-3.3 5.7-8.8 7.5-14.4 9.6-1.8.7-3.6 1.6-5.3 2.7-1.2.8-2.1 2.4-1 3.8 1.2 1.5 2.8 1 4-.1 1.8-1.8 4.1-2.7 6.9-4.3m-225.9 28.3c4.5-1 9-1.8 13-4.9-16.9-6.5-19.8-6.5-22.2 0 2.5 2.1 5.7 3 9.2 5m71.4-311.4c-2.4.3-5.1-.8-8.4 1.7 4.6 0 7.8.7 10.5 3.2a5.4 5.4 0 0 0 6.6.1c4.5-3.5 9.3-3.6 15-2.3-1.5-3.5-3.7-4.7-6.7-4.7-5.5-.1-11-.5-17 2M560 587.9h8.5c1.7 0 3.5-.2 4.3-1.9 1-2-.6-3.7-1.7-4.8a9.6 9.6 0 0 0-8.6-3c-3.3.7-4.7 3.5-6 6-1 1.7.3 3.5 3.5 3.7M450.3 397.4a53.9 53.9 0 0 1-13.3-5c-2.2-1.3-4.3-1.5-6.5.7 8.5 7 18 10 29 9.3-1.7-3.7-5.2-4-9.2-5m-76.2-47c-1.8-1.6-3.5-3.4-5.4-5-3.2-2.9-7.4-2.8-10.9 0 .6 3.6 5.4 1.2 6.3 4 0 2.2-3.3 1.7-2.7 3.7 6 3.9 11.7 0 17.6 0l-4.9-2.6m-51.6 114c3.2-2 2.7-5.2 2.5-8-.2-2.2-2.3-3.6-4.1-4.6-1.5-.9-2.7.3-3.2 1.5-1.8 3.8-5.4 6.6-6.3 11.2 3.5.9 7 .6 11.1-.1m-12-199.3c3.1.1 6.3.6 9.5-1.2l-11-5.4c-3.8-1.8-7.4-2.5-10.6 1.3 3.3 3.6 6.2 7 12.1 5.3M385 570.1c-4.1-1.6-8-5.2-13-2.2.5 3 1.7 4.7 5 5.1 3.8.5 7.4 1.8 11 3 1.7.5 3.3 1.1 4.2-1 .8-1.9-.5-3.3-2-4-1.3-.6-3-.6-5.2-.9m-25.7-366.8c-3.2-2.8-5.5-6.8-9.9-8.8.7 10.2 5.8 18.6 14 15.7-1.2-2.1-1.6-4.7-4-6.9m-5 349.9c-3.8 4-8.1 1-13.4.3 2.3 2.2 2 5.3 4.6 5.3 4.8 0 8.8 2.4 14 3.8-3.5-5.6 1.8-9.7 1.4-14.8-3 1-4.1 3.4-6.6 5.4M540.6 513l-4.5 4.6c-1.7 1.5-.9 2.8 0 4.3.6 1.4 1.2 2.7 3 2.6 3.1-.2 8.4-6.9 7.4-9.8-.9-2.6-2.4-4.6-6-1.7m-189 85.7c3 .2 6.4.1 5.9-4-.6-4.7-7-7.5-11.8-5.5 1.1 3.4 2.3 6.7 5.8 9.5m46.3 14.2c4.7.7 8.1-1.3 11-5.3-5-1.1-9.7-.5-14.4-.5-1.2 0-2.3.4-2.6 1.7-.3 1.4.6 2.2 1.5 3 1 1 2.3 1 4.5 1M272.2 366c-.6-2-1.9-3.8-3.5-5.2-1.3-1.2-2.8-2-4.4-1-1.8 1-1 2.7-.5 4.3 1.5 4.1 4.3 6.3 8.6 7.2 1-1.7 1.3-3.1-.2-5.3m254.2 87.7a16 16 0 0 1 8.9 2.6c1.8 1 3.7 2.2 5.7 3 1.6.6 4 1.4 4.5-1.2.4-2-1.5-2.8-3.3-2.8-2.6.1-5-.8-7-2.1-3.8-2.2-8-1.7-11.9-2.9-.2 2.2 1.4 2.5 3 3.4m52.5 109.9c2.1 1.2 4.6 1.8 6.4 3.6 1.2 1.2 2.6 2.2 4.4 1.3 1.3-.7 1.1-2 1.1-3 0-2.2-1.1-3.8-3.1-4-4.6-.4-9.3-.7-14 1l5.2 1m-216.3 23.8c-1.6-1-3.4-1.6-3.7 1-.3 3 6.2 6.6 8.6 4.6 2.2-1.8 4.5-2 7-1.7 1.3-4.4-1.2-5.5-4.6-6.4-.4 1.7 1.1 3.7-1 4.6-2.4 1-4.1-.1-6.3-2.1m246.3-27.6c1.4-3.4-1-4-3.4-4.3-3-.2-6.2-.6-7 3.5-.7 2.9.7 4.3 3.7 4.1 2.4-.2 4.3-1.6 6.7-3.3m-72-84.2c-1.4-1-2.7-2.1-4.2-2.6-2.6-.9-5.3-1-6.9 1.9-.6 1.2 0 2.3 1 3 3.2 2 6.7 1.1 10 .8 1.8-.2 1.3-1.6 0-3.1m-238.1-202c-2.8 1-5 2.9-4.1 5.8 1.2 3.9 5.7 2.3 8.7 4-.9-3.4-.3-7.4-4.6-9.8M520 531c.3-1.8 0-3.3-2-4.5-2.6 1.7-6 2.2-8.2 5 3.7 4.2 5.4 4.2 10.2-.5M385.7 266.4c-3.8-3-8-4.3-13-2.5 3.8 4.3 8 4.1 13 2.5m-50.8 287c1.3.1 2.6.7 3.4-1.3-2.9-2.9-5.9-5.5-11-4.7 1.4 3.7 4.8 4 7.6 6m58.6-278.8c-2.1 2.9 0 3.7 2.2 4 1.7.4 4 .8 4.5-1.5.5-3-2.1-2.7-4-2.8-.7 0-1.3 0-2.7.3m192.8 277.6c-1.8 1.7-4.7.5-7.8 2.4 5.3.4 9.4 1 13.7-.2-1.3-3-3-3.4-5.9-2.2M279.6 339c-1.3-1.1-2.3-3-4.8-2.2-1 4.4 1.5 5.9 5 6.8 1.4-1.6 1-2.8-.2-4.6m124.7 68-1.1 2.2c-.4 1-1 2.2.3 3.1 1 .8 2.2.5 3.1-.3 1.5-1.3 1.5-3 1.2-4.6-.4-2-1.7-1.7-3.5-.4m-40.2 173.8c1.4-.4 3.3 0 4.8-2.2-5.5-.9-9.5 2.8-14.3 2.6 3 1.4 5.9.9 9.5-.4m-22.9-273c1-.2 2.5.3 2.6-1.9-2.3-.2-3.7-3.7-6.7-1.4 0 2.5 1.5 3.2 4.1 3.3m1 38.3 4.2 1c-6-5-6-5-9.8-4.2 1.1 1.9 3.1 2.3 5.6 3.2m3.7 234.3c-2.3.4-4-2.9-6.9-1.4 4.5 3 5.6 3.3 9.6 2.1-.9-.3-1.5-.5-2.7-.7M513.1 474c-1.5-1.2-3-1.3-4.4.2-.6.7-.3 1.8.5 2 1.8.7 3.7 1.2 4-2.2m-94 8c-.8-2.9-2.7-1.7-4.2-1-1 .6-1.3 1.7-.3 2.5 1.8 1.6 3 .4 4.4-1.5zM487 688.7c2.1 1.3 4.2 2 5.8 3.5 6.5 6 7 10 1.5 17-1.7 2.1-2.2 3.7 0 5.4 5.3 4.3 8.3 11.4 16 12.7 1.2.2 2.3 1.4 2.4 3-.8 2.4-2.9 1.7-4.6 1.8-2.6.1-5.1.1-7.7 1.2-5 2.1-7.5-2-9.3-5.3-2.2-4.3-6.6-6.6-8.8-10.8-.7-1.4-2.8-1.1-4-.3-1.7 1.1-1.6 3.1-1 4.6 1.1 3.1 1.9 6.3 1.6 9.7 3.3 1.5 8 .3 8.8 5.2-1.3 1.7-3 1.6-4.7 1.5-5.2-.4-10.2.4-14.9 2.7-1.3.7-2.7 1-3.6-.4-1.1-1.5-.4-2.8 1.1-3.6a4 4 0 0 0 1.8-5.6c-4-8-3.1-16.8-5.1-25-1.2-4.8-2.8-7-7.5-7.3 0-3.3 2-4.7 4.4-4.6 6.6.1 12.1-3.2 18.1-4.9 3.2-.9 6.1-1.5 9.6-.5m-8.6 22.2c5.7-1.6 8-5.6 6.3-10.8-1.6-4.7-7-6.2-13-3.5.4 1.5 1.1 3 1.4 4.6.2 1.6.1 3.3.1 5 0 3 1.2 4.7 5.2 4.7zm200.6-103.2c-5 3.3-6.7 9.5-13 13.5 2.8-8.2-2.7-10-6.7-13.1-7.1-5.6-14.3-11-22.4-15.3-2.2.4-3.6 4-6.6 1.7-.7-2.6 1.7-4 2.8-5.5 4.5-6.7 8.7-13.5 14.3-19.5 7-7.5 18-6 21.6 5.2 1.9 5.6 4.8 7.9 10.7 7.9 4.4 0 9 .9 13.1-1.8.9-.5 2-.2 2.8.5-1.6 8.7-8.6 14.4-17 11.5-3.9-1.3-8-.9-11.8-1.8-2.3-.6-3.3 1.2-4.3 2.7-1.2 1.6.4 2.8 1.3 3.8 2.2 2.5 5.7 3 8 4.8 3.8 3 5-2.2 8.1-1.8 2 2.5 1.5 4.8-.9 7.2m-20.6-18.5c2.7-5 2-9.2-1.6-11.8-3.2-2.3-8.3-1.4-11 1.9-3.6 4.2 1 4.8 2.8 6.6 1.2 1.3 3 2 4.5 3s2.7 3.3 5.3.3zm-494.6 29.2c-4.4.6-9.4-2-11.4 4-.4 1-1 2.1-1 3.2.6 6.9-1.8 13.3-3.1 19.9-.5 2.4 2.8 4.5-.4 7.4a110 110 0 0 1-15.2-15.3c7.3-3.6 7.3-3.6 7.3-12.2v-6.8c-4.8 4.7-4.8 4.7-8.9 17.1-8-4.6-11-13.2-17.5-18.7 2.3-3 3.9-1.1 5.6-.4 1.7.7 3.4 2.6 5.3.3 5.9-7.1 14.3-11.4 20.4-18.2 2.4-2.6 4-4.8 1.7-8.3-.9-1.2-.6-2.6.7-3.5 1-.8 2.6-.9 3.2.1 3.3 5.8 9 9.4 13.1 14.4 1 1.2 2.3 3 .8 4.4-1.8 1.8-3-.3-4.1-1.3-1.8-1.5-3.7-1.8-5.4-.2-2.5 2.3-4.9 4.8-8.2 8.1 7.3.9 13.2.5 18.8.3 1.5-1.7-1.3-4.1 1.3-5 2.3-1 3.7.9 5 2.3 3.4 3.6 7.3 6.6 10.7 11.4-7.3 2-12.3-3.5-18.7-3zm22.2 72.8-6.2-3c-1.3-.7-3.1-1.1-2.2-3.1.6-1.5 2.1-2.7 3.6-2 4.9 2.2 6.3-1 8.3-4.4a273 273 0 0 0 10.6-19.1c1.7-3.5 3.1-6.3-1-8.9-.4-.2-.3-1.1-.6-2.1 4.2-1.2 7.8-1.6 11.3 1.3a13 13 0 0 0 5.6 3.1c8.7 1.4 14 7.8 18.9 13.8a20.1 20.1 0 0 1 3.2 19.8C231.9 702 222 704 209 703a21 21 0 0 1-10.3-4.8c-4-3-8.3-4.7-13-7m36.6-3.4c.5-1 .8-2.3 1.6-3.1 9-10.2 4.3-17.4-4.1-24.3-2.6-2.2-6.3-2.5-7.9.6-3.8 7.3-8.3 14.3-12.1 21.6-2.5 4.7.2 11.2 4.4 12.8 6.7 2.5 14.4-.6 18-7.6zM332.6 89.2c7.3 6 7.6 9.7 1.5 16.6-2.4 2.7-2.4 5 0 7.4 5.5 5.2 10.1 11.4 17 15.4-9.7 5.6-15 4.2-21-4-2.7-3.9-6.7-6.9-10.2-10.2-.7-.7-1.6-1.1-2.7-.5-1.2.7-1.2 1.7-.9 3 .6 2 .7 4.2 1.3 6.3 1.2 4.2 2.4 8.7 9 8.4l-.9 1.6-22.4 5-1.4-1c5.7-4.5 4.3-10.2 3.8-15.5-.5-5-2-10-3-15-.1-.7-.6-1.5-.7-2.3-1.2-6.8-1.2-6.8-7-9.8.7-3.2 3.1-4.1 6-3.8 5 .7 9.4-1.2 14-2.7 5.9-2 11.6-2.1 17.6 1m-7.7 9c-.3-2.4-1.8-4-3.7-5.1-3-2-7.6-1-7.8 1.7-.4 3.4-.2 7 0 10.5 0 1.8 1.4 2.3 3 2.6 6.7 1.2 8.6-.8 8.5-9.7zm81.5 609.4c-2.2-.4-4-.5-5.8-.7-1.3-.2-2.1-1-2.1-2.4s.9-2.2 2.2-2.4l1.4-.2c12.3.7 24.3-3.2 36.6-2.1 7 .6 7.6.7 7.4 7.9 0 1.4.2 3-1.2 4.2-2.4.4-3.3-1.7-4.7-3-1.4-1.3-1.7-3.7-4.3-3.7-5.1.2-10.4-.8-15.4.7-2.4.7-1.4 3.8-1.3 5.8.3 7.5 2.6 9.6 9.5 9.3 2.6-.1 4-.9 4.4-3.6.3-1.8 1.7-3.5 3.8-3.1 2 .4 3.1 2 3.2 4v10.5c0 1.5-.6 2.7-2.2 2.9-1.6.2-2.4-.7-3-2.1-2-6.2-7.2-2.9-11-3.1-3.8-.2-2.7 3.5-2.7 5.7 0 10.9-1 9.7 9.4 9.8l7.5-.1c5.2-.4 6.2-4.9 8.1-8.5.8-1.6 1.4-3.2 3.6-2.5 2.2.7 2.5 2.8 1.7 4.5a19.4 19.4 0 0 0-1.8 7.6c-.1 2.1-2 3.4-4 4-.4.2-1 .3-1.4.2-12.3-1.3-24.4 2.5-36.6 2.1-1.8 0-3.7.5-5-1.2l.3-1.2c7.1-4.5 8.8-9.6 5.7-17.6-1.8-4.7-.5-9.5-.9-14.3-.2-2.4.8-5-1.4-7.4zM585 632.7c1.6-.5 2.7-2 4.4-1.4 1.2 1.4 1 2.8 0 4-3 3-1.4 5.6.7 7.8 7.7 8 13 17.7 20 26.2 2.2 2.5 1.1 5-2.3 4.8a232 232 0 0 1-22-2.8c-7-1.3-14-3.3-21-4.8-1.6-.4-3.4-.4-4.9 1.3 3 7.4 8.2 13.3 14 18.8 1.6 1.5 3.5 1.5 5.5.6 2.6-1 3.5.3 3 2.7-.8 3-12 9.6-15.2 8.9-.4 0-.6-.7-1.1-1.4 5.6-2.7 3-6.3 1-9.6L555 670c-3.2-4.9-7.6-6.8-12.7-4-1.7-1.3-1.7-2.5-1.2-3.6 2.4-4.7 13.5-8.8 18.6-7.6 7.9 1.8 15.7 4.3 23.8 4 4.2-.2 7.8 3.4 12.4 1.4-.4-3-1.9-5.4-4-7.5-2.7-2.7-5.7-5-7.5-8.7-1.7-3.5-4.9-2.5-7.8-.9-2.3-3.1-.6-5 1.7-6.2 2.2-1.1 4.2-2.6 6.5-4.3zM654 225c-5.6 5.5-11 10.7-16.2 16-1.5 1.5-3 3-5.2 1.9a5 5 0 0 1-2.9-5c.6-8-.7-16 1.4-24.1 1.9-7 .7-14.9-.1-23-7 5.6-12.6 11.8-18.5 17.7-1.4 1.5-1.6 3.3-.5 5 .8 1.4 1.7 2.6.5 4-5.4-1.2-13.8-11-12.8-14.7 1.6-.4 2.4.9 3.3 1.7 2.1 2 4.5 1.8 6.2-.1 5.3-6.1 12.4-10 18-15.8 4.2-4.4 6-8.5 2.7-13.8.6-1.1 1.4-1.8 2.1-1.3 5 3 10.4 6.7 11.7 12.2a39 39 0 0 1-.8 18.2c-2 7.6-.6 15.7-.7 24a77 77 0 0 0 17.6-14.3c1.5-1.5 1.3-2.7.6-4.4-.6-1.3-2-2.4-1.4-4.6 6.6 1.2 9.6 6.6 13.8 11.4-8.4-1.2-13.8 3.3-18.9 9zM462.7 121.4c-4 4-7.6 7.8-12.4 10.5-12 6.8-31.3-1.7-36-14.5-5.9-16.4 5.5-32.2 23-32.6 12.3-.3 21.3 5 26.4 15.7a23.7 23.7 0 0 1-1 21M437 90.1c-1.8-.1-3 .9-4.4 2-6.5 5.8-7 14-7.4 21.6-.1 3.1-.3 8.5 3.6 11.2 4 2.9 8 5.5 13.2 2.7 5.6-3 9.9-6.9 10.2-13.5.3-4.6-.3-9.3-.1-14 0-4-1.6-6.5-5.1-8.3-3-1.5-6-2-10-1.7zm-44 12.4 3.9 4.3c6.6 6.7 5.3 12.6-2.2 18.2-5 3.8-10.2 3.2-15.5 3.4-5 .1-10-.8-14.8 1.4-2 1-4.8 1.2-6.9-1 10.5-8.8 6.2-19.7 5-30.2-.2-1-.6-2-.7-3 0-4.4 1-9.3-5.1-10 0-1.9.6-2.6 1.4-2.5 8.2.8 16-2.1 24.2-2.2 6.8-.1 10.9 4.3 14.7 9 1.4 1.6.8 3.7-.3 5.5a60.3 60.3 0 0 0-3.7 7.1m-18.2 4.2c-.8 4.8-.4 9.6-.4 14.4 0 1.2 0 2.4 1 3.2 3 2.5 12.6-.6 13.1-4.6.5-3.7 2-8.3-1.4-11.3-3.2-2.9-7.4-4.3-12.3-1.7m5-20.3c-2.3 0-5.8-1.4-6.4 1.8-.7 4.3-1.5 8.8.8 13 .2.5 1.5.5 2.3.6 3.6.4 9.4-3.1 10-6.6.6-4.4-2.5-6.8-6.7-8.8zm-104.6 25.4c1.3-2 2.7-1.4 3.4-.2a68 68 0 0 1 5.6 16.3c-1.5-.2-2.4 0-2.7-.4-4.6-6.2-9.8-2-14.6-.7-2.1.5-1.8 2.5-1 4.1 1.2 2.9 2.8 5.6 3.5 8.8.4 1.9 2.1 3.4 4.1 2.6 4.6-1.8 9.7-2.5 13.4-6.3 2.1-2.2 4.2-4.2 3.8-7.7-.1-1.4.5-2.6 2.2-2.8 2-.1 2.8 1.2 2.8 2.8 0 2.4.4 4.5 1.4 6.7 1 2.3.3 4-2.7 5.2-12 4.5-24.6 7.5-36.3 12.7-1.8.8-3.9 1.2-5.7-.8 1.2-3 4.8-2.6 6.8-5.2-3.3-8.5-7-17.2-10-26.1-1.7-5.5-4-8.8-10.2-7.8-.5.1-1.2-.5-1.9-.9.3-2.7 2-4 4.3-4.1 9.4-.8 17.4-5.7 26.1-8.7 2-.6 3.6-2 5.5-2.5 2.8-.8 6.8-2 8.2.8 1.5 3 4.6 6.7 2.1 10.7-1.8.5-2.5-.5-3.3-1.3-4.7-4.3-8.4-4.8-14.3-2-8.8 4-8.8 4-4.6 12.7l2.5 4.7c10.1-2 11-2.8 11.6-10.6zM610 609c4.5-4.2 7.8-9.2 13.2-11.8 1.9-1 3.2-.8 4.3.7 1.7 2.4 5.2 3.5 5 7a2 2 0 0 1-2.9 1.9c-8-4.3-12.7 1.2-17.6 6l-3.4 3.6 11.7 10.1c6.6-3.5 8.3-6.9 5.7-14.3 2.9-2 4.8 0 6.1 1.9 2.7 3.6 8.5 5.3 7.8 11.6-1.1-.2-1.6-.1-2-.3-6.5-2.8-10-1.8-13.6 4.2-.4.6-1 1.5-.8 1.8a28 28 0 0 0 9.6 10c3.1 1.8 5.1-1.2 7.1-3.2 1.5-1.4 2.8-2.9 4.3-4.2 4.3-3.5 5.7-7.6 2.7-12.6-.7-1.2-.8-2.6.5-3.6 8 2.9 10.6 11.4 4.2 16.6-10 8.2-19.1 17.2-28 26.4-3-1.7-2.2-3.4-1.2-5 2.3-3.4 1.7-6-1.5-8.5-5.3-4-8.2-10-12.7-14.6-4.8-4.8-9.3-9.3-17.3-5.1 4.5-8.3 13.5-11.3 18.8-18.6zM316.3 722.2c-6-2.5-8.6-1-9 5.3-.6 9 1.1 11.1 10 12.2 5.3.7 10.4.7 14-4.4.7-1 1.8-2.4 3.6-2 1.3 2.9-.5 10.2-3.4 12.8-2.2 2.1-4.5.1-6.8-.2-4.6-.6-8.8-3.1-13.6-2.5-3.8.4-6.9-2-10.6-2.4-2.8-.3-5.6-1.3-8.6-1.2-2.7 0-4.5-1.7-5.1-4.1 1.2-1.4 2.1-1.1 3-.6 2.4 1.2 3.7.5 4.4-2 2.3-8.3 5.4-16.3 5.7-25 0-1.2-.2-2.5.3-3.4 2.5-4.3 1-6.8-3.3-8.4-1-.4-2.5-1.5-1.7-3 .7-1.7 2.1-1 3.4-.7l25.6 5.2c4.3 1 8.6 2 13 2.3 3.8.2 3.1 4 2.7 6.4-.4 2-1.7 3.8-2.6 5.6-2.6 0-3.5-1.5-4.2-3.2-2-4.9-13.3-9.5-18-7.4-.7.2-1.5.8-1.5 1.2 0 4-2.3 7.7-2.2 11.6.1 3.8 4.3 3 6.6 4 2.2 1.2 5 .8 6.5-1.9 1-1.7 1.7-4.1 4.3-2.6 2.4 1.4.8 3.3.2 5.2-1.3 4.1 0 9-4.5 12.7-2.8-3-.3-10.8-8.2-9.5zM574.9 164c4.2-3.4 6.6-7.9 9.6-11.8 1.8-2.5 2.4-5-.8-7.2a3 3 0 0 1-1.5-3.2c2.5-1.8 5-1.2 6.9 1 6.9 7.6 16.4 11.6 24.6 17.3 6.4 4.5 7.2 9 1.7 13-3 2.2-5.4 1.3-5.3-2.4.4-7.8-6-10.7-10.3-14.9-1.3-1.3-3.2-1.4-4.7.7-.9 1.4-2.2 2.4-3.4 3.6-2.1 2.3-5 4.3-2.1 8 3.2 4 8.7 5.6 12.1 3.4.9-.5 1.5-1.4 2.8-1.1 1.4.8 1.3 2 .5 3.3-2 3.4-4 6.9-6.2 10.2-1 1.3-2.4 2.6-4.3 1.7-2-1-1.3-2.5-.7-4.2 1.6-5-3.1-6.3-5.8-8.6-2.5-2.2-5.3-1-6.5 1.7-1.5 3.4-4.7 5.5-6.3 9.2 4.7 2.7 7.6 7.2 12.4 10 5.4 3 10-2.2 16.2-.5-2.7 4.3-6 7-9.3 9.5-1.2 1-2.5 0-3.5-.9-8-6.4-17.3-11-24.5-18.4-1.5-1.5-4-2.1-6.1-3.2-1.7-.8-3.3-1.6-3.2-3.8 1-1.5 2.4-1.1 3.6-.4 3.6 2.1 6 .2 8-2.5 2.1-3 4-6.1 6-9.5zm-442 41c-1.5-6.3-5.5-11-7-16.9-.4-1.7-.5-2.7.8-3.9 1.2-1 2.7-1.7 4-.7a43 43 0 0 0 13 5.8c6 1.8 10.8 6.4 17.3 6.8 1 0 2.2.2 2.7.8 4 4.2 8.3 5.4 13 1.4 2.3 2.5 1.3 4.1-.3 5.6a125 125 0 0 0-12.2 12c-.8 1-2 1.4-3.1.7-1.4-.8-1-1.9-.4-3 .5-1 1-2 1.3-3-6.4-6.3-14-5-18 2.7-1.6 3.3 1 5.4 2.2 7.7 1 2 2.8 2 4.7.8 1.2-.8 2.6-1 3.5.5.8 1.3-.3 2.1-1.1 3l-8.5 8.4c-1 1-2.1 2.5-3.8 1.3-1.3-1-.7-2.4 0-3.6 2.7-4.3.1-8.4-1.6-11.7-2.3-4.8-3.5-10-6.5-14.8m8.3-5.1-4.6-.5c.7 1.9 1.1 3.3 1.9 4.6.7 1.2.8 2.9 2.6 3.5 2.1-.8 3.8-2 4.3-4.8l-4.2-2.8zm382 512.6c.4 2.8 1.2 4.8 4.2 3.6 1.2-.5 2.3-.9 3 .5.7 1.5.2 2.8-1.1 3.4l-11.6 5.8c-1.2.5-2.4.4-3.2-.6-.8-1-1-2.5 0-3.2 6-4 3.8-10.5 2.7-15-1.5-6.5-1-12.8-1.4-19.2-.2-3.5 0-7 0-10.5 0-1.4-.1-3 1.6-3.8 1.8-.9 3.5-.7 5.1.6l1.1 1c8.4 9 19 15.5 27 25 1.5 1.6 3 3 5.6 2 1.1-.4 2.3.1 2.8 1.5.5 1.5-.2 2.5-1.6 3.2-4.9 2.2-10 4.2-14.5 7.2-1.2.8-2.6.9-3.5-.5-.8-1.3-.5-2.6.6-3.6.7-.7 1.9-.8 2.3-2.7-3.7-1.4-5.7-6.8-11-5.4-6.8 1.9-8.2 4-8.1 10.7m.2-14c2.7 1.7 3.8-1 5.8-1.7-3-4.3-3.8-5-7.5-7.3-1.8 3.2 1.3 5.5 1.7 9zm-271.6 14.8c-3-11-1.7-21.9-2-32.6 0-3.5-3-4-5.2-5.5.4-2.4 1.4-4.8 4-3.4 5.6 3 11.5 4.8 17.4 6.8 1.4.5 2.6 1 2.7 2.6 0 2-1.3 2.6-2.9 2.9-1.7.3-2.6 1.4-2.6 3.1v23.1a33 33 0 0 0 9.5-9.5c1-1.6 2-3 3.3-4.4 5.6-5.5 5.6-5.5-.5-10 1-3.2 2.7-4 5.8-2.4 3.3 1.6 6.3 3.8 10 4.3 1.5.2 2.5 1.2 2.3 2.8-.2 1.6-1.4 2.4-2.8 2.2-4.1-.5-6.3 2.4-8.9 4.7-8.6 7.6-15 17.2-23.2 25.2-1.3 1.4-2.6 3.5-5 2.7-2.6-1-1.7-3.6-1.8-5.6-.2-2.2 0-4.4 0-7zm-40.6-568.6-1.4-2.5c-1.9-3-2.3-8.5-6.7-8.2-4.6.4-8.3 3.9-10.5 8.3-.5 1.1-.6 2.6-2.6 3.2-3.3-2.6-4-6.1-3.3-10.3.2-1 1-1.7 2-2 11-3.1 20.5-9.4 30.6-14.3 3-1.4 3.4-4.2 5-7.1 4 3 6 7 7.7 11 .5 1.2 0 2.7-1.4 3.4-1.1.6-2.4.5-3.2-.5-4.1-4.4-7.7-1.9-11.8.9 3 4.7 4 9.9 7.3 14.4 3 4 4.4 9.4 7.3 13.8 1.6 2.4 3.2 3.8 6 2.4 3.1-1.5 4.2.3 5.4 3.3-7.3 2.2-13.3 6.5-20 9.7-1.2.6-2.5 1-3.6-.3-1-1.2-.8-2.7.3-3.6 3.3-2.7 1.7-5.4.4-8.4-1.9-4.6-4.7-8.6-7.5-13.2zm307-37.7c3.9.2 5 1.9 3 5.1-1.8 3.3-2.7 7-6.2 11-1-7-3.1-12.3-10.7-13.3-2.2 4.8-5.8 9.1-6.4 15-.4 4.2-3.1 7.6-4.4 11.5-1.4 4.3-2.3 7.6 2.4 10 .8.4 1.1 1.3 1 2.2a54.5 54.5 0 0 1-24.7-8c.2-.4.3-.9.5-.9 6.8-.3 10.2-3.6 11-10.7.5-4.6 4.2-8.5 5.5-13.2 1-3.5 3.5-7.4 1-10.1-3.5-3.8-8.7-2.4-13.2-1.5-.7.2-1.2.7-1.8.9-1 .3-2 .2-2.8-.6-.8-1-.8-2.2 0-3.2 2-2.5 4.5-4.4 6-7.4.4-1 2.2-1.2 3-.2 5.6 6.8 14.3 7 21.6 10.2 2.4 1 5 1.8 7.3 3 2.5 1.3 5 1.6 7.9.2zm21.6 63.1a46.9 46.9 0 0 0-14.3-8.3c-1.6-.5-4-1-3.5-3.5.4-2.4 2.6-2.4 4.4-2.2 4.2.5 5.8-2.2 8-5.2 4.4-6.2 5.8-14 11.3-19.6 2.2-2 1-4.4-1.2-5.9a14.8 14.8 0 0 0-8.5-2.4c-2.5 0-5.3.7-8.2-1.4 1.8-3.7 5.2-5.8 7.9-8.6 1-1 2.4-.2 3 .8 3 5.2 8.1 7 13.3 9.2 4.5 1.9 8.6 4.8 13 7.2 1.3.8 2.6 1.4 4 2 6.9 3 7.5 4.9 3 10.9-1 1.3-2 2.8-4 2.4-2.1-.5-2.3-2.4-2-4 .6-5-2-7.1-6.7-8-2-.2-2.8.3-3.6 1.7-4.7 8.3-9.6 16.6-13.5 25.4-.8 1.8-1.5 3.2.3 5.3 2.7 2.8 1.8 4.8-2.7 4.2zm-407.2 78.4c2.2 3.4 4.2 6.4 6 9.5 2 3.3.9 5-2.8 5.2-7.6.4-14.5-2.8-21.6-4.7-1.1-.3-2.2-1-3.3-1-4.6-.3-9.1-.4-13.7-2-3-1-6.5-.4-9.5 1.5-1.8-4.8 9.8-20 14.4-19.3-.7 6.4 2 9.1 11 10.2 2.8.4 5.5.6 8.2 1.8 1.6.6 3.8 1 5-1 1-1.7-.3-3.2-1.5-4.3a51 51 0 0 1-9.7-13.1c-1.3-2.4-3-3.5-5.5-1.1-1.4 1.4-3.3 3.1-5 1-1.8-2.2.4-3.7 1.7-5 3-3.2 6.3-6 8.1-9.8 2.1.2 2.7 1.6 2.5 2.9-1.7 6.9 3.2 11.4 6.7 15.8 3.3 4.2 5.5 9 9 13.4zM106 592.3c6.4 3 9 1.4 9-5.3v-18c.2-5.9 3.4-9 9.3-9.4 11.8-.8 18.6 4.5 20.5 16 .4 2.4-6.1 8.9-8.2 8-3-1.2-2.3-3.9-1.3-6 1.4-2.6 2-4.9 1-8-1-3.7-3.7-4.6-6.7-4.2-3.2.3-4 3.2-3.8 6 .2 3.7 1.5 7.1 2.2 10.6 1.3 6.1-1.9 13-6.3 15.5-7 3.8-12.3 3-18.5-1.8-5.2-4-7-9.9-8.9-15.7-1-3 2.3-4.1 4-5.8a4.3 4.3 0 0 1 5-.9c2.6 1.3 1.6 3.3.4 5-3.5 5.2-2.1 9.6 2.2 14zm266.9 156.9h-18.5c.4-4 3-4.1 4.3-4.3 5-.9 5.2-4 5.1-8-.2-7.8-.1-15.6 0-23.4 0-3.2-1.2-4.2-4.4-4.6-5.5-.6-9.9 1.5-13.7 5.8-2.3-3.8-1.4-7-.6-10 .5-1.7 2.4-3.3 4.4-2.6 8.8 3.2 17.8 1 26.7 1.5 4.8.2 9.9 1 14.7-1.7 2 4.4 1.2 8.3 1 12.2-.1 1.2-1.1 2-2.5 2s-2.3-.8-2.4-2c-.5-5.4-4.3-5.2-8-5-3.1.2-4.4 1.7-4.3 4.9.2 7.8.2 15.6.2 23.4 0 4-1.6 9 5.5 9.5-2.1 3.3-4.8 2-7.5 2.3zM172.6 180c-7.1-.1-13.2-5-14.7-11.5-1.5-6 1-11.5 7.1-15.3 1-.6 1.8-1.6 2.7-2.2a9.6 9.6 0 0 1 14 4.1c.4 1.2.6 2.3-.4 3.3-1 1.1-2.5 1-3.6.3-2.6-1.8-5.5-1.5-8.2-1.3-3.6.4-6.1 2.5-6.2 6 0 4.2 3.3 3.6 6.2 3.8 4.4.3 8.5-1.5 12.7-2.1 10-1.5 17.1 3.8 17 14 0 3.5 1.3 7.5-2.2 10.2-4.6 3.5-9 7.5-14.9 8.5-3 .6-9.6-6-8.9-8.8.8-3.2 3.1-2.4 5-1 4.8 3.2 9.1 2.9 13.6-.9 3.3-2.7 2.5-5.8 1.4-8.5s-3.4-3.7-7-2.5c-4.3 1.4-9 1.9-13.6 4zm495.3 77.2c-.3-4.4-2.3-8-2-12.1.9-13.2 11.2-18 21.6-12.1 4.8 2.6 7.5 7.8 8.6 13.4.8 4.2-2.5 6.2-5.3 8.2-.9.6-2 .3-2.8-.5-1-1-1-2.4-.5-3.7a13 13 0 0 0 1.5-6.7c-.2-3.6-4.1-7.9-7.3-7.2-3.6.8-5 3.6-4.6 7.2.5 5.2 2.4 10.2 2 15.7-.7 8-11 14.6-18.7 12.1-10-3.2-12-11.9-15-20-1-3 7.1-7.4 11.4-5.9-1 2.8-2.9 5-3.4 8-1 4.8 2.6 12.2 7.2 13.7 2.7 1 6.6-1.7 7.2-5.2.2-1.5 0-3 .1-5zM194.2 642.6c-5-1.7-7.2 1.8-9.2 4.7-4.3 6-8.3 12.2-13.8 17.3-2.5 2.3-3 4.8-.6 7.4 1.5 1.6 2 3 .3 4.7-2 2-3.2.6-4.6-.7-4.3-4-7.8-9.1-13.3-12-1.6-.7-1.4-2.4-.8-3.8.5-.2 1-.5 1.1-.4 6.4 3.6 9.5-1.3 12.3-5.3 4.8-7 10.6-13 15.7-19.5l1-1.4c-.2-2.6-4.8-3.7-2.4-6 2.8-2.5 4.7 1.1 6.3 2.8 3 3.3 7.6 4.3 10 8 1.4 2.2 2.8 4.4-2 4.2zM124.7 180c-4.8-.3-5.4-3.9-5.2-7 .2-2.4 2.6-4 5.5-3.6 3.2.4 3.1 2.8 3.2 5.2 0 2.4-1.3 4-3.5 5.4zm-14.7 2.9c.6-2.3 2-3.6 3.9-3.8 2.3-.2 5.2-1.2 6.2 2.1 1 3-.6 5.2-3.2 6.4-2.7 1.2-4.8.3-5.8-2.6-.2-.7-.6-1.2-1-2.1z"/><path d="M340.5 228c-4.6-2.5-4.7-6.3-2.7-10 1.2-2.2 3.2-5 6.8-3.7 3.3 1.1 7.2 6.9 6.6 9.7-.8 4-3.9 4.5-7.2 4.4l-3.5-.3zm15.7-6.7c1-2 2.5-2 4-1.9 1.7.3 2.6 1.4 2.8 3 .1 1.4 0 2.7-1.4 3.4-1.4.7-2.6 0-3.6-.9-1-.8-2-1.8-1.8-3.6zm14.3 1.5c2-.3 3.4.5 3.1 2.3-.1 1.5-1.2 2.7-3.1 2.5-1.5-1.5-1-3 0-4.8zM548 528c2.9-1.5 4.4.3 5.5 2.5 1 2.2.4 4.2-1.4 5.8-2.2 1.8-4.3.5-5.8-.8-3.5-2.8-.1-4.8 1.4-7.2l.3-.3zM295.6 225.8c3.3-1 4 1 4 3.4 0 1.7-1 3.1-2.7 2.8-4-.9-3-3.5-1.3-6.2z"/></svg>