<svg xmlns="http://www.w3.org/2000/svg" xml:space="preserve" viewBox="0 0 113.39 113.39"><path fill="#0e73b9" d="M.19 104.91a8.29 8.29 0 0 0 8.29 8.29h96.43c4.58 0 8.29-3.71 8.29-8.29V8.48a8.29 8.29 0 0 0-8.3-8.29H8.49a8.29 8.29 0 0 0-8.3 8.29v96.43"/><path fill="#fff" d="M105.07 0H8.31A8.31 8.31 0 0 0 0 8.32v96.75c0 4.6 3.72 8.32 8.31 8.32h96.76c4.6 0 8.32-3.72 8.32-8.32V8.32c0-4.6-3.73-8.32-8.32-8.32zm0 2.33c3.3 0 5.98 2.69 5.98 5.99v96.75c0 3.3-2.68 5.98-5.98 5.98H8.31a5.99 5.99 0 0 1-5.98-5.98V8.32c0-3.3 2.69-5.99 5.98-5.99h96.76"/><path fill="#fff" d="M38.8 76.9c-.1-.3-.43-.78-1.1-.78-.41 0-.78.22-.96.55-.21.4-.31.94-.31 1.7 0 1.07.18 1.74.55 2 .2.15.45.22.74.22.87 0 1.24-.66 1.24-2.24 0-.64-.06-1.1-.16-1.44zm.21 4.36c-.37.2-.72.28-1.24.28-.94 0-1.55-.25-2.02-.87-.47-.6-.71-1.4-.71-2.3 0-1.34.5-2.42 1.4-2.9.36-.2.82-.31 1.28-.31 1.66 0 2.68 1.2 2.68 3.15 0 1.4-.49 2.46-1.39 2.95M44.96 76.25H43v1.42h1.58v1.02h-1.58v2.76h-1.25v-6.21h3.36l-.14 1M49.29 76.25H47.3v1.42h1.58v1.02h-1.58v2.76h-1.25v-6.21h3.37l-.14 1M50.39 81.45v-6.21h1.3v6.2h-1.3M55.8 81.55c-.86 0-1.52-.27-2.03-.85a3.24 3.24 0 0 1-.75-2.23c0-.78.13-1.4.42-1.93a2.66 2.66 0 0 1 2.37-1.43c.62 0 1.24.2 1.57.49l-.56.84a1.63 1.63 0 0 0-.99-.34c-.42 0-.83.2-1.05.53-.24.36-.35.88-.35 1.6 0 .85.07 1.32.26 1.66.25.46.66.7 1.2.7.36 0 .7-.1 1.06-.4l.57.78c-.5.4-1.02.58-1.73.58M58.62 81.45v-6.21h1.3v6.2h-1.3M61.52 81.45v-6.21h3.54l-.16 1.02h-2.11v1.43h1.76v1.02h-1.76v1.66h2.35v1.08h-3.62M69.61 81.45h-3.28v-6.21h1.28v5.17h2.22l-.22 1.04M74.15 81.45h-3.28v-6.21h1.27v5.17h2.23l-.22 1.04M78.68 76.27H77.2v5.18h-1.27v-5.18h-1.52v-1.03h4.48l-.2 1.03M24.72 91.45c-.7 0-1.5-.2-2.12-.56l.47-.98c.58.3 1.08.5 1.7.5.72 0 1.1-.3 1.1-.85 0-.4-.27-.65-.82-.8l-.69-.19c-.61-.17-1-.4-1.22-.78a1.8 1.8 0 0 1-.26-.95c0-1.14.91-1.92 2.22-1.92.76 0 1.53.23 2.08.62l-.6.9a2.68 2.68 0 0 0-1.44-.48c-.5 0-.87.3-.87.72 0 .32.17.48.7.62l.74.2c1.02.29 1.57.94 1.57 1.86 0 1.26-1.01 2.09-2.56 2.09M28.54 91.31v-6.2h3.54l-.16 1.01h-2.1v1.44h1.75v1.02h-1.76v1.66h2.35v1.07h-3.62M33.36 91.31v-6.2h3.53l-.16 1.01h-2.1v1.44h1.76v1.02h-1.76v1.66h2.34v1.07h-3.61M41 86.6c-.21-.33-.5-.51-.99-.51h-.57v4.2h.67c.82 0 1.2-.63 1.2-1.94 0-.73-.07-1.33-.32-1.74zm1.08 3.79c-.37.5-.93.84-1.5.89-.24.02-.53.03-.9.03h-1.51v-6.2h1.25c.36 0 .83.01 1.08.03.53.05.98.24 1.36.62.57.56.85 1.36.85 2.47 0 .85-.2 1.6-.63 2.16M47.05 91.31l-1.07-2.37c-.35-.78-.72-1.65-.84-2.04.05.51.06 1.24.07 1.76l.03 2.65h-1.2v-6.2h1.38l1.19 2.48c.31.66.55 1.31.68 1.76a29.1 29.1 0 0 1-.1-1.7l-.03-2.54h1.19v6.2h-1.3M49.95 91.31v-6.2h1.3v6.2h-1.3M55.86 91.31l-1.07-2.37c-.35-.78-.72-1.65-.84-2.04.05.51.06 1.24.07 1.76l.03 2.65h-1.2v-6.2h1.38l1.19 2.48c.31.66.55 1.31.68 1.76-.05-.48-.1-1.28-.1-1.7l-.03-2.54h1.19v6.2h-1.3M61.27 91.39c-.93 0-1.62-.3-2.12-.95a3.28 3.28 0 0 1-.66-2.17c0-1.31.43-2.24 1.3-2.83.45-.3.91-.43 1.5-.43.75 0 1.43.24 1.98.71l-.67.78c-.4-.33-.82-.48-1.29-.48-.37 0-.68.1-.9.3-.41.41-.52 1.08-.52 2.01 0 .88.15 1.46.46 1.77.24.22.57.35.98.35.27 0 .5-.05.7-.15v-1.42h-.94l-.17-1.01h2.4v2.96a4 4 0 0 1-2.05.56M66.55 91.45c-.7 0-1.49-.2-2.11-.56l.46-.98c.58.3 1.08.5 1.7.5.72 0 1.1-.3 1.1-.85 0-.4-.26-.65-.81-.8l-.7-.19c-.6-.17-1-.4-1.22-.78-.17-.28-.26-.6-.26-.95 0-1.14.92-1.92 2.23-1.92.76 0 1.53.23 2.07.62l-.6.9a2.67 2.67 0 0 0-1.44-.48c-.5 0-.86.3-.86.72 0 .32.17.48.68.62l.75.2c1.02.29 1.58.94 1.58 1.86 0 1.26-1.02 2.09-2.57 2.09M73.66 91.31h-3.28v-6.2h1.27v5.17h2.23l-.22 1.03M78.27 86.78c-.1-.32-.43-.79-1.1-.79-.41 0-.78.21-.96.55-.21.4-.31.94-.31 1.7 0 1.06.18 1.73.55 2 .2.15.45.22.74.22.87 0 1.24-.66 1.24-2.25 0-.63-.06-1.09-.16-1.43zm.2 4.35c-.37.2-.71.28-1.23.28-.94 0-1.55-.26-2.02-.87s-.71-1.4-.71-2.3c0-1.35.5-2.42 1.4-2.91.36-.2.82-.3 1.28-.3 1.66 0 2.67 1.2 2.67 3.15 0 1.4-.48 2.46-1.38 2.95M83.25 86.12h-.8V88h.66c.5 0 .66-.06.83-.32.1-.17.15-.35.15-.65 0-.58-.31-.92-.84-.92zm1.14 2.7c-.29.14-.56.2-1.24.2h-.7v2.3h-1.24V85.1h1.63c1.06 0 1.38.1 1.73.3.58.32.89.9.89 1.6 0 .83-.4 1.49-1.07 1.81M88.53 86.12h-.8V88h.66c.5 0 .66-.06.83-.32.1-.17.15-.35.15-.65 0-.58-.31-.92-.84-.92zm1.14 2.7c-.29.14-.56.2-1.25.2h-.68v2.3h-1.25V85.1h1.63c1.05 0 1.38.1 1.73.3.57.32.89.9.89 1.6 0 .83-.4 1.49-1.07 1.81M50.88 101.18h-3.83v-.84c.35-.34 1.08-1.07 1.5-1.52.79-.87.96-1.42.96-1.83 0-.62-.33-.8-.74-.8-.38 0-.76.18-1.26.59l-.64-.76a3.2 3.2 0 0 1 2.25-.89c1.06 0 1.74.7 1.74 1.7 0 .65-.4 1.34-1.04 2.04a19.98 19.98 0 0 1-1.4 1.35c.2-.02.64-.04.93-.04h1.79l-.26 1M54.17 96c-.6 0-.8.9-.8 2.19 0 1.81.34 2.24.8 2.24.6 0 .79-.9.79-2.19 0-1.81-.33-2.23-.79-2.23zm0 5.3c-1.31 0-2.13-1.2-2.13-3.07 0-1.88.87-3.1 2.13-3.1 1.3 0 2.12 1.2 2.12 3.08 0 1.87-.87 3.1-2.13 3.1M61.16 101.18h-3.84v-.84c.35-.34 1.08-1.07 1.5-1.52.79-.87.97-1.42.97-1.83 0-.62-.33-.8-.74-.8-.39 0-.76.18-1.26.59l-.64-.76a3.2 3.2 0 0 1 2.25-.89c1.06 0 1.74.7 1.74 1.7 0 .65-.41 1.34-1.05 2.04a19.95 19.95 0 0 1-1.4 1.35c.2-.02.64-.04.94-.04h1.78l-.25 1M63.37 101.45c-.27 0-.4 0-.74-.05l-.29-.83c.28.06.4.07.68.07 1.25 0 2.1-.57 2.1-1.38 0-.3-.16-.57-.4-.68a2.1 2.1 0 0 0-.83-.1h-.46v-1c.21.03.42.04.62.04.66 0 1-.23 1-.7 0-.4-.25-.68-.77-.68-.6 0-1.05.28-1.32.5l-.62-.76a3.5 3.5 0 0 1 2.1-.75c1.12 0 1.93.66 1.93 1.56 0 .65-.4 1.15-.92 1.31.67.22 1.07.73 1.07 1.36 0 1.23-1.3 2.09-3.15 2.09M24.76 48.91l-2.58 7.92c-.29.92-.5 1.64-.62 2.1a23.1 23.1 0 0 0-.62-2.27l-2.54-7.75h-1.77l4.08 12.11h1.59l4.15-12.1h-1.69M27.82 57.1l1.38-4.06 1.36 4.06zm.48-5.53-3.53 9.45h1.65l.95-2.57h3.59l.94 2.57h1.8l-3.5-9.45h-1.9M39.1 55.5l-1.26-.33c-1.1-.3-1.56-.66-1.56-1.23 0-.74.74-1.23 1.87-1.23.87 0 1.7.25 2.49.74l.08.05.74-1.18-.07-.05a5.95 5.95 0 0 0-3.31-.93c-2.07 0-3.52 1.16-3.52 2.81 0 1.16.9 2.13 2.3 2.49l1.35.35c1.2.3 1.72.74 1.72 1.44 0 .44-.22.8-.66 1.06-.4.25-.84.35-1.45.35a5.7 5.7 0 0 1-2.87-.77l-.1-.04-.67 1.28.08.04c1.01.56 2.25.86 3.47.86.95 0 1.76-.17 2.41-.53a2.88 2.88 0 0 0 1.55-2.48c0-.64-.27-1.31-.7-1.73-.38-.4-1.08-.75-1.9-.97M45.13 57.1l1.38-4.06 1.37 4.06zm.48-5.53-3.53 9.45h1.65l.95-2.57h3.6l.93 2.57h1.8l-3.5-9.45h-1.9M53.72 51.59h-1.6v9.43h5.44l.22-1.37h-4.06V51.6M62.18 59.9c-.98 0-1.7-.32-2.03-.9-.42-.7-.63-1.7-.63-2.9 0-2.3.76-3.33 2.47-3.33 2.35 0 2.67 1.8 2.67 3.76 0 1.66-.3 3.36-2.48 3.36zm-.14-8.49c-2.65 0-4.3 1.86-4.3 4.86 0 1.54.4 2.67 1.28 3.66.8.89 1.7 1.25 3.13 1.25 2.81 0 4.3-1.67 4.3-4.82 0-3.14-1.6-4.95-4.4-4.95M70.85 56.1h-1.54v-3.14h1.2c1.38 0 2.31.27 2.31 1.59 0 1.03-.66 1.56-1.97 1.56zm2.3-4.08c-.57-.33-1.03-.43-2.6-.43h-2.82v9.43h1.58v-3.56h1.62c1.29 0 1.92-.2 2.62-.8.7-.6 1.03-1.31 1.03-2.25 0-1.01-.5-1.86-1.43-2.4M78.84 56.1H77.3v-3.14h1.2c1.4 0 2.32.27 2.32 1.59 0 1.03-.67 1.56-1.98 1.56zm2.31-4.08c-.57-.33-1.03-.43-2.6-.43h-2.82v9.43h1.57v-3.56h1.63c1.28 0 1.92-.2 2.62-.8.7-.6 1.02-1.31 1.02-2.25 0-1.01-.5-1.86-1.42-2.4M85.33 56.78h3.46v-1.37h-3.47v-2.45h4.14l.22-1.37h-5.96v9.43h6.1V59.6h-4.49v-2.82M89.38 48.91v1.39h3.35v10.72h1.56V50.3h3.02l.23-1.39h-8.16M102.05 68.15H11.34v-1h90.7v1M52.84 19.37c0-.2-.31-.29-.74-.45-.42-.16-.3.26 0 .37.3.1.53.29.2.31-.35.03-.48-.16-.82-.16-.34 0 .08 1.63.3 2.06.23.43.47-.1.23.43-.25.53.5-.16.34.18-.15.33.05.78.25.47a9.8 9.8 0 0 0 .23-2.24v-.19c.4-.86 0-.57.01-.78M57.19 25.8c.13-.52-.62-.5-.96-.61.4-.32 1.33-.53.52-.92-.24-.12-.57-.07-.83-.08-.25-.02-.64-.26-.86-.2-.04 0-.28.17-.22.21.28.23.69.3.97.48-.24.02-.8-.03-.91.2-.26.48 1.3 1.04 1.59 1.12.31.1.6.2.7-.2M56.27 37.5c-.15-.41-.14.32-.83-.34-.05-.04-.16.13-.16.13-.04.04-.09.03-.1-.02 0 0-.02-.06-.17-.06-.24.22-.04.36-.04.36.05.04.05.1 0 .13l-.17.17c-.37.34.35.27.35.27.05 0 .08.03.05.08 0 0-.12.28-.42.53-.06.05-.64.08-.42.56.06.13.17.24.31.34.4.27.98.44.98.44h.5c.05 0 .1-.03.12-.09 0 0 .12-.24.18-.57.05-.23.07-.52 0-.8-.11-.4-.18-1.13-.18-1.13M52.75 18.52h.02-.03.03-.02M57.78 26.42h.83c-.25-.34-.5-.66-.73-.94l-.1.94M57.33 27.97c-.26-.07-.28.02-.33-.17-.05-.2.04-.48.12-.72.08-.23.21-.44.21-.44-.5-.22-.56.22-.56.22s-.13.5-.24.73c-.1.23.05.36.1.5.04.13.42.3.6.33.18.03.31-.05.35-.19.05-.14 0-.2-.25-.26"/><path fill="#fff" d="M72.29 43.14s-.02.18-.18.1a1.5 1.5 0 0 1-.25-.19c-.56.34-1.19.34-1.4 0-.2-.31-.02-.78.4-1.14l-8.33-10.68-.05-.07a.18.18 0 0 1-.08.07c-.16.1-3.58.42-4.16.56a13.71 13.71 0 0 0 .2-3.42c.17-.07.37-.18.4-.27.05-.14.2-.27.1-.5-.1-.22-.23-.73-.23-.73s-.05-.44-.56-.22c0 0 .14.2.21.44.08.23.17.52.11.72-.05.2-.07.1-.33.16-.25.07-.3.12-.26.26.04.12.13.19.27.2.06.93-.12 1.84-.32 2.6l-.26.86-.14.48a15.45 15.45 0 0 1-4.42-1.8c-.5-.33-.8-.63-.88-.8-.14-.34-.05-.36.19-.77.24-.41.23-.33.4-.8.19-.47.16-.57.21-.89.07-.32.38-.76.5-.94.13-.2.99.89 1.3.95.31.06-.12-.3-.51-.61-.4-.31-.64-.7-.5-.9l.05-.06.02.02s1 1.08 1.22 1.22c.22.15 1.31 1.02 1.31.77s0-.72.2-.99c-.63-.25-1.99-1.02-2.56-1.3.12-.2.23-.4.19-.4-.07-.02-.19-.1-.44-.35-.25-.26-.16-.9-.14-1.35 0-.45.29-.69.41-1.14.13-.45.15-.64-.07-.45-.2.2-.37.57-.38.97a.87.87 0 0 1-.63.85c-.42.14-1.1.47-1.57.2-.47-.26-.56-.6-1.18-.99-.61-.38-.1-.85.01-1.15.13-.3.74-1.51 1.01-2.24.28-.74.45-.94.51-1.01l.06-.04a1.69 1.69 0 0 0-.34-.4c-.26-.26-.53-.54-.45-.85.06-.28 0-.41.31-.66 0 0-1.2-1.53-1.3-1.75-.05-.24.33-.2.33-.2l1.34 1.6c.2-.31.3-.57.6-.45.54.2.86.67.92.84.06.21.33.28.2.47-.14.18-.11.34-.08.42.03.08.1.14-.05.3l-.07.1-.02.03a2.04 2.04 0 0 0-.08-.09c-.56.24-.42.79-.37.76h.02l.02.02h-.01l-.01-.01c.04-.1.14-.2.28-.27l8.5 11.1c.03.05.09.07.14.07.04 0 .07-.01.1-.03.07-.05.08-.12.06-.19v-.01l-.01-.03v-.01l-.01-.02-.08-.1a8.16 8.16 0 0 0-.35-.5c.1-.01.22-.02.33-.06.09-.03.16-1.28.21-2 .02-.27.04-.47.06-.5.06-.12.11-.65.2-.84.07-.2-.24-.46-.3-.71-.07-.26-.34-.43-.38-.97a2.69 2.69 0 0 0-.32-1.06c-.17-.1.2.48.16.68-.05.2 0 .38.02.53 0 .15.1.37.18.58.09.2.22.33.25.56a1 1 0 0 1-.11.62c-.1.19 0 .45-.12.6a.28.28 0 0 1-.13.08c-.72.2-1.1.55-1.26.92a8.26 8.26 0 0 1-.23-.26l-.29-.38c.41-.1.75-.26.83-.56-.42-.29-.93-.43-1.36-.66.36-.38 1.22-.15 1.6-.36.07-.04.13-.1.15-.2.11-.43-.58-.94-.73-1.29-.25-.57.09-1.05 0-1.68-.18 0-.42-.1-.56-.13.08-.06.13-.19.19-.25-.86-.19 0-.59-.18-.92-.23-.43-.94.1-1.04-.57v-.13c0 .27-.35-1.37-.37-1.1.06 1.1.08 2.02.08 2.79 0 1.3-.07 2.2-.16 2.96l-.8-1.09-3.81-4.92-.2-.26.02-.02c.08-.1.35-.42.24-.6 0 0 .12-.16.54-.55.43-.4.62-.73.76-.44.15.28-.03.89.27.82.3-.07.54-.17.28-.46-.25-.3-.5-.36-.3-.5.18-.15.4-.28.64-.24.17.04.34 0 .5-.05a8.2 8.2 0 0 1-1.3-1c-.28-.25-.43-.38-.3-.64.84-.2 1.48-.81 1.86-1.13.38-.32.14-1.44.35-1.9.2-.46 1.42-.76 2.23-.55.8.2 1.38 2.78 1.45 3.22.07.44.38.44.6.08.21-.36-.26-.08-.53-.41-.27-.33.4-.35.4-.35.43 0 1.2.25 1.17.65-.03.37-.54 1.02-1.72 1.7l-.28.15a5.46 5.46 0 0 1-3.28.4c-.07.22.05.47.22.45.21-.02.5-.22.94-.1.44.12.38.39.64.33s.02-.37.3-.38c.3 0 .74.09.7.3-.03.2-.28.5-.4.65-.1.14 0 .27-.2.43-.19.17-.34.34-.13.6.22.25 1.44-.35 1.74-.8.27-.31.45-.36.29-.16-.17.21-.5.87-1.09 1.2-.58.32-.77.27-.62.41.16.15.43.26.4.47-.04.22.21.1.5.2.28.1.42.16.3.35-.13.2-.31.46.07.3.37-.14 1.06-.36 1.16-.6.1-.23.27-.54 0-.55-.27 0-.35-.35-.15-.46.18-.1.28-.17.27-.44-.02-.27.13-.53.23-.28.08.25.06.45.2.33.13-.12.34-.2.37-.05.01.16.08.27-.03.5-.13.22-.66 1.24-.9 1.46-.23.22-.56.24-.41.57.13.33.39.28.58.12.2-.16.44-.6.42-.86-.03-.25.24-1.01.4-1.01.16 0 .38-.06.4.17 0 .23-.08.42-.2.46-.12.04-.18.03-.23.24-.06.2.12.32.07.56-.05.24-.25.2-.12.44.13.26.41-.15.6 0 .2.16.6.26.55.57-.05.3-.18.09 0 .54.18.46.21.55.24.92.03.36.14.56.16.81.02.25.23.44.23.72 0 .14.05.2.07.23v.04a.54.54 0 0 1-.14.04c-.3.06-.6.14-.33.3.16.09.3.13.35.2.04.04.04.09-.03.17-.15.2-.37.12-.33.37.05.26.2.18.17.38s-.4.18-.5.23c-.1.06.31.2.33.4 0 .1.08.2.09.3.01.07-.02.16-.17.27l-.03.03c-.3.21-.27.18-.23.36.05.2.24.01.2.29-.05.27-.26.45-.2.54.06.1-.23.49-.1.68.13.19.11.29.1.42-.03.13.35.3.17.48-.15.15-.52.25-.73.3a.41.41 0 0 1-.1.14l8.25 10.98c.56-.32 1.17-.32 1.39.03.2.32-.01.82-.47 1.2zm-7.72-3.74-.05.21s-.3-.15-.34-.29c-.02.2 0 .32.04.36a1.4 1.4 0 0 1-.37-.07s.19-.43.14-.53c-.06-.1-.7-.83-.7-.83s-.2.6-.13.75c.08.15.34.66.27.94-.07.27-.58.15-.24.6.34.45.29.98.16 1.19a1.1 1.1 0 0 0-.1.28c-.05.18-.09.33-.23.18-.21-.22-.03-.11-.22-.9-.2-.8.77-1.6-.28-1.72-1.04-.13-1.8-.05-1.6.65.2.7 1.28.4 1.03.7-.26.3-.55.58-.74.86-.2.26-.56.52 0 .83l.22.1c.25.05.53.03.88.1.42.09.76-.06 1.01-.1a.5.5 0 0 1 .18 0c.26.07.17.33.08.59-.09.26.31.46-.08.67-.4.2-.59.13-.49.43.1.3.35.45.32.7-.03.24-.13 1.24.02 1.62-1-.9-1.28-2.52-1.64-2.52-.24 0-.4.3-.55.57-.15.35-.4.8-.65 1.02l-.23.42c0-.17.2-1.3.19-1.5-.04-.44-.37-.66-.62-1.33-.24-.68-.57-1.53-.32-1.84.25-.31.16-.35.12-.6-.03-.24-.55-.32-.48-.73.08-.43-.28-2.27.27-2.47-.53-.32-.29-.3-.3-.87 0 0-.67-3.2-.96-4.16a1.07 1.07 0 0 0-.1-.27c.43-.3 3.6-.57 4.31-.75l.15-.04c.12.5-.03.72.33 1.44.36.73.55.67.34 1.14-.2.47-.42.9-.34 1.15.09.25.66.98.53 1.2-.12.22-.4.26-.52.62s.13.49.36.47c.1.18 1.06 1.61 1.33 1.73zm-.97 8.53c-.28.23-3.68.36-3.88.1-.18-.24-.18-.41.1-.74.03-.03.41-.32.86-.77.59-.6.74-1.45.96-1.45.21 0 .23.77 1.24 1.73.53.51 1 .9.72 1.13zm-6.38-13.07c.1.58-.14 1.63-.22 1.86-.07.24-.47.49-.4.76.09.27.5 2.24.38 2.4-.13.15-.4.98-.4.98l-.16-.03c-.27-.07-.82-.21-1.07-.39-.34-.23-1.16-.53-1.22-.22-.06.3-.35 1.03.19 1.36.54.32 1.3.73 1.3.81.01.08-.32.06-.56.26-.23.2-1.3.32-1.15.54.15.2.04.19.77.14.73-.05 1.37.27 1.46.59.02.1.07.2.13.25.15.17.46.04.45.34-.02.27-.58.34-.54.54.02.15.22.81.22.95 0 .14 0 .36-.41.55-.32.15-.96.67-2.32.53-.53-.06-1.73-.18-2.5-.5l.94-.42a6.14 6.14 0 0 0 2.43-1.76c-.6.35-.78.4-.99.21-.2-.2-.6-.56-.32-.7.27-.15.34-.53.25-.59-.09-.05-.45-.64-.46-1.64 0-1-.37-1.85.03-2.08.41-.23.6-.69.62-.67.02 0-.72-.45-.62-1.73-.35.75-.67 1.22-.69 1.45-.01.22 0 .64.3.85l-.13.23s-.22-.24-.24-.34c-.1.3.05.39-.12.37l-.43-.09s.44-2.02 1.22-2.6c-.06-.2-.82-.73-.42-1.55.4-.83.82-1.13.74-1.38-.07-.24-.63-2.43-.44-2.91.06-.07.11-.1.16-.09.1 0 .2.14.36.22.18.1 2.27 1.03 3.52 1.46.38.13.68.21.82.21 0 0-.57 1.26-.48 1.83zM48.08 47.5c-1.31-.5-.93-2.88-.64-2.9.3-.03.77 2.94 6.27 2.99 0 0-3.94.56-5.63-.09zm24.63-6.72a2.23 2.23 0 0 0-1.25-.11l-7.26-9.7c.14-.12.23-.25.31-.36.23-.3.17-.68-.04-.98a.83.83 0 0 0-.15-.44c0-.04.01-.1.15-.45.16-.4.16-.68.14-.85.22-.26.32-.68.32-.94 0-.2 0-.24.03-.3.05-.15.07-.32.1-.53l.03-.23a.7.7 0 0 1 .02-.2c.04-.13.05-.3.04-.43.21-.68.03-1.18-.07-1.44a15.91 15.91 0 0 0-.37-1.57l.02-.04-.02-.11c0-.01-.04-.23-.06-.6-.04-.6-.38-.95-.53-1.1a.42.42 0 0 1-.05-.2v-.3c-.02-.28-.03-.62-.05-.77-.03-.34-.29-.61-.45-.78l-.05-.15-.08-.18c-.03-.07-.11-.2-.2-.3l-.06-.09.04-.09c.13-.31-.01-.6-.07-.72-.07-.18-.22-.27-.4-.38-.09-.04-.18-.1-.25-.15a2.38 2.38 0 0 0-.66-.4l-.1-.02-.08-.14c.35-.27.7-.63 1.02-1.05.17-.21.4-.85.15-1.36-.22-.45-.83-.71-.98-.76a2.02 2.02 0 0 0-.89-.17c-.1-.3-.26-.78-.49-1.32-.37-.89-.9-1.06-1.27-1.19a1.13 1.13 0 0 0-.6-.12c-.23 0-.46.03-.44.03-.1 0-.67.02-1.5.44-.49.2-.65.7-.72.95-.08.14-.08.31-.08.6V12l-.01.24v.3c-.73.63-1.05.77-1.15.8-.46.13-.6.18-.76.38-.2.22-.4.83-.09 1.25.1.12.26.3.47.5a2.52 2.52 0 0 0-.56.36 1.56 1.56 0 0 0-.25-.33 5.5 5.5 0 0 0-1.01-.64.88.88 0 0 0-.37-.07c-.08 0-.26.01-.45.08l-.81-.96a.86.86 0 0 0-.56-.24c-.03 0-.63 0-.97.37-.33.35-.24.9-.08 1.16.07.12.59.8.97 1.31-.08.21-.16.5-.13.77.06.45.22.8.48 1.07l.1.1-1.5 3.29c-.32.7-.1 1.16.02 1.34.1.13.23.23.44.37.05.04.1.07.12.1l.2.18c.54.51.7.66.83.73.2.12.81.41 1.46.23l.5-.15c.03.2.08.4.17.52l.16.22a8.91 8.91 0 0 0-.57 1.02 3.2 3.2 0 0 0-.4.88c-.02.2-.1.65-.24.9l-.23.41-.3.54c-.13.27-.23.87.21 1.38l.5.5c-.05.28-.1.73-.06 1.03a17.98 17.98 0 0 0 .43 2.15c-.12.18-.32.49-.45.73-.2.35-.58 1.02-.25 1.83l.18.4c-.23.35-.6.97-.8 1.7-.3 1.09-.3 1.16-.3 1.23v.37l1.22.24h.05v.03c.04.25.1.86.12 1.17 0 .04.03.88.35 1.6-.11.13-.21.3-.22.5-.02.29.02.62.39 1.04-.59.4-1.66.88-2.4 1.18a5 5 0 0 1-2.26-1.94l-.07-.1a.66.66 0 0 0-.53-.26c-.31 0-.53.23-.63.38-1.06 2.06.08 3.58.76 3.96.22.12.78.32 1.18.35.2.01 1.07.06 2.08.06 1.77 0 3.02-.13 3.73-.4 2-.74 2.36-1.23 2.58-1.71.15-.32.05-.7-.02-.98l-.02-.08.08-.09c.1-.1.22-.22.3-.39.15-.3.1-.63.04-.85l.13-.26.06-.17v-.1l.04-.33c.06-.54-.18-.91-.33-1.1l.02-.3.01-.18c.01-.18-.03-.35-.07-.49.16-.4.42-1.19.43-1.65.01-.42-.22-1.45-.34-1.95l.15-.2c.2-.27.3-.79.38-1.4l.03-.17.2.94c.06.28.04.41.02.54l-.02.16c-.02.18.05.35.13.5-.06.2-.1.52-.08 1.01v.14l.05 1.43c.02.3.25.54.44.73-.1.15-.2.39-.18.66.04.86.42 1.65.7 2.23.1.19.17.35.22.48.16.42.13.92.04 1.57-.04.26-.13.35-.3.53a2.5 2.5 0 0 0-.36.48c-.17.29-.2.61-.09.92.13.36.44.66.84.8.3.12 1.02.14 1.57.14.84 0 1.94-.06 2.48-.23.56-.19.77-.52.84-.77.11-.37-.02-.73-.15-.88l-.1-.12a.92.92 0 0 0-.16-.16 2.3 2.3 0 0 1-.07-.48v-.53c.02-.07.03-.17.03-.26v-.05c.14-.2.13-.43.11-.6a1.26 1.26 0 0 0-.1-.34c.2-.16.3-.34.36-.48.1-.3.06-.57 0-.76.13-.43-.02-.85-.18-1.1a1.52 1.52 0 0 0-.09-.32 1.9 1.9 0 0 0-.08-1.45l.28.02.2.1.8.44-.14-.87c0-.1.12-.54.22-.87l.11-.4-.38-.15c-.31-.13-.74-.77-.88-.99l-.12-.17-.25-.33.04-.04c.35-.4.31-.7.2-1.03-.03-.25-.2-.54-.4-.87l-.1-.17.07-.1c.1-.18.2-.35.25-.54l5.76 7.41c-.4.8-.12 1.48.14 1.77.3.27.69.42 1.13.42.3 0 .56-.07.74-.12.32.14.68.1 1-.1.29-.19.37-.51.33-.81.16-.2.22-.38.28-.6.33-1.16-.36-1.59-.68-1.72"/><path fill="#fff" d="M61.23 30.52c-.18-.17-.18-.37-.22-.6-.05-.24-.2-.25-.33-.43-.15-.19-.12-.12-.01-.38v-.02c-.2-.28-.46-.6-.73-.95-.35.28-.69.74-.42.94.07.06.2.61.2.74 0 .12-.05.57.04.7.02.02.16.43.16.43l.03.04s.06.1.16.13c.24.05 1.26-.09 1.34-.3 0 0 0-.04-.02-.07-.06-.15-.06-.1-.2-.23"/></svg>