<?xml version="1.0" standalone="no"?><svg xmlns:xlink="http://www.w3.org/1999/xlink" xmlns="http://www.w3.org/2000/svg" viewBox="0 0 1000 414.63556112222295" preserveAspectRatio="xMaxYMax slice"><g transform="scale(1.0741853915083497)"><rect x="0" y="0" width="930.9411764705883" height="386" fill="#ffffff"/><circle cx="11.35" cy="11.35" r="2.27" fill="#eef3ff"/><circle cx="34.06" cy="11.35" r="2.27" fill="#f6f9ff"/><circle cx="56.760000000000005" cy="11.35" r="2.27" fill="#99b4ff"/><circle cx="79.47" cy="11.35" r="2.27" fill="#6b86f0"/><circle cx="102.17999999999999" cy="11.35" r="2.27" fill="#ecf1ff"/><circle cx="124.88" cy="11.35" r="2.27" fill="#6882ef"/><circle cx="147.59" cy="11.35" r="2.27" fill="#dde3fc"/><circle cx="170.29000000000002" cy="11.35" r="2.27" fill="#9db7ff"/><circle cx="193" cy="11.35" r="2.27" fill="#eaedfd"/><circle cx="215.71" cy="11.35" r="2.27" fill="#95b1ff"/><circle cx="238.41" cy="11.35" r="2.27" fill="#5985ff"/><circle cx="261.12" cy="11.35" r="2.27" fill="#e0e8ff"/><circle cx="283.82" cy="11.35" r="2.27" fill="#f1f4fe"/><circle cx="306.53" cy="11.35" r="2.27" fill="#89a9ff"/><circle cx="329.22999999999996" cy="11.35" r="2.27" fill="#3b5deb"/><circle cx="351.94" cy="11.35" r="2.27" fill="#748df1"/><circle cx="374.65" cy="11.35" r="2.27" fill="#f5f7fe"/><circle cx="397.34999999999997" cy="11.35" r="2.27" fill="#4475ff"/><circle cx="420.06" cy="11.35" r="2.27" fill="#9eb8ff"/><circle cx="442.76" cy="11.35" r="2.27" fill="#3e71ff"/><circle cx="465.46999999999997" cy="11.35" r="2.27" fill="#7b9eff"/><circle cx="488.18" cy="11.35" r="2.27" fill="#abbaf6"/><circle cx="510.88" cy="11.35" r="2.27" fill="#d8e3ff"/><circle cx="533.59" cy="11.35" r="2.27" fill="#c9d8ff"/><circle cx="556.29" cy="11.35" r="2.27" fill="#3d70ff"/><circle cx="579" cy="11.35" r="2.27" fill="#8baaff"/><circle cx="601.71" cy="11.35" r="2.27" fill="#9db7ff"/><circle cx="624.41" cy="11.35" r="2.27" fill="#fefeff"/><circle cx="647.12" cy="11.35" r="2.27" fill="#7297ff"/><circle cx="669.8199999999999" cy="11.35" r="2.27" fill="#bcc8f8"/><circle cx="692.53" cy="11.35" r="2.27" fill="#3d71ff"/><circle cx="715.23" cy="11.35" r="2.27" fill="#748df1"/><circle cx="737.9399999999999" cy="11.35" r="2.27" fill="#f5f8ff"/><circle cx="760.65" cy="11.35" r="2.27" fill="#7398ff"/><circle cx="783.35" cy="11.35" r="2.27" fill="#3f61eb"/><circle cx="806.06" cy="11.35" r="2.27" fill="#8caaff"/><circle cx="828.76" cy="11.35" r="2.27" fill="#5683ff"/><circle cx="851.47" cy="11.35" r="2.27" fill="#e8eeff"/><circle cx="874.18" cy="11.35" r="2.27" fill="#8aa9ff"/><circle cx="896.88" cy="11.35" r="2.27" fill="#9eb8ff"/><circle cx="919.59" cy="11.35" r="2.27" fill="#4364ec"/><circle cx="11.35" cy="34.06" r="2.27" fill="#7890f1"/><circle cx="34.055" cy="34.055" r="2.345" fill="#d3deff"/><circle cx="56.760000000000005" cy="34.06" r="2.42" fill="#3c6fff"/><circle cx="79.465" cy="34.055" r="2.495" fill="#cbd5fa"/><circle cx="102.17999999999999" cy="34.059999999999995" r="2.57" fill="#9badf5"/><circle cx="124.88499999999999" cy="34.055" r="2.645" fill="#c4d3ff"/><circle cx="147.59" cy="34.06" r="2.72" fill="#7890f1"/><circle cx="170.295" cy="34.055" r="2.795" fill="#8baaff"/><circle cx="193" cy="34.06" r="2.87" fill="#375aea"/><circle cx="215.70499999999998" cy="34.055" r="2.945" fill="#dae0fb"/><circle cx="238.41" cy="34.06" r="3.02" fill="#f3f5fe"/><circle cx="261.115" cy="34.055" r="3.095" fill="#eff2fd"/><circle cx="283.82" cy="34.06" r="3.17" fill="#f1f5ff"/><circle cx="306.525" cy="34.055" r="3.245" fill="#6e95ff"/><circle cx="329.23" cy="34.059999999999995" r="3.32" fill="#b4c1f7"/><circle cx="351.935" cy="34.055" r="3.395" fill="#c3d3ff"/><circle cx="374.65000000000003" cy="34.06" r="3.47" fill="#98b3ff"/><circle cx="397.355" cy="34.055" r="3.545" fill="#366cff"/><circle cx="420.065" cy="34.065000000000005" r="3.555" fill="#6984f0"/><circle cx="442.765" cy="34.065000000000005" r="3.555" fill="#afbef7"/><circle cx="465.475" cy="34.065000000000005" r="3.555" fill="#b4c1f7"/><circle cx="488.175" cy="34.065000000000005" r="3.555" fill="#bac6f8"/><circle cx="510.885" cy="34.065000000000005" r="3.555" fill="#638cff"/><circle cx="533.5949999999999" cy="34.065000000000005" r="3.555" fill="#c9d3f9"/><circle cx="556.295" cy="34.055" r="3.545" fill="#4163eb"/><circle cx="579" cy="34.06" r="3.47" fill="#5573ed"/><circle cx="601.7049999999999" cy="34.055" r="3.395" fill="#396eff"/><circle cx="624.4100000000001" cy="34.059999999999995" r="3.32" fill="#cad3f9"/><circle cx="647.115" cy="34.055" r="3.245" fill="#738cf1"/><circle cx="669.8199999999999" cy="34.06" r="3.17" fill="#cfdcff"/><circle cx="692.525" cy="34.055" r="3.095" fill="#d4dfff"/><circle cx="715.23" cy="34.06" r="3.02" fill="#a3b4f6"/><circle cx="737.945" cy="34.055" r="2.945" fill="#b6c9ff"/><circle cx="760.65" cy="34.06" r="2.87" fill="#5573ed"/><circle cx="783.3549999999999" cy="34.055" r="2.795" fill="#c7d1f9"/><circle cx="806.0600000000001" cy="34.06" r="2.72" fill="#b8cbff"/><circle cx="828.765" cy="34.055" r="2.645" fill="#c3cef9"/><circle cx="851.47" cy="34.059999999999995" r="2.57" fill="#c4cff9"/><circle cx="874.175" cy="34.055" r="2.495" fill="#4475ff"/><circle cx="896.88" cy="34.06" r="2.42" fill="#4667ec"/><circle cx="919.585" cy="34.055" r="2.345" fill="#3c6fff"/><circle cx="11.35" cy="56.760000000000005" r="2.27" fill="#608aff"/><circle cx="34.06" cy="56.760000000000005" r="2.42" fill="#dae0fb"/><circle cx="56.76" cy="56.76" r="2.57" fill="#7ea0ff"/><circle cx="79.47" cy="56.76" r="2.72" fill="#c6d0f9"/><circle cx="102.18" cy="56.76" r="2.87" fill="#b3c7ff"/><circle cx="124.88" cy="56.760000000000005" r="3.02" fill="#5d88ff"/><circle cx="147.58999999999997" cy="56.760000000000005" r="3.17" fill="#7f96f2"/><circle cx="170.29" cy="56.76" r="3.32" fill="#f6f7fe"/><circle cx="193" cy="56.76" r="3.47" fill="#3a6eff"/><circle cx="215.70000000000002" cy="56.76" r="3.62" fill="#a7b7f6"/><circle cx="238.41" cy="56.760000000000005" r="3.77" fill="#d8dffb"/><circle cx="261.12" cy="56.760000000000005" r="3.92" fill="#86a6ff"/><circle cx="283.82" cy="56.76" r="4.07" fill="#a0b9ff"/><circle cx="306.53000000000003" cy="56.76" r="4.22" fill="#eceffd"/><circle cx="329.23" cy="56.76" r="4.37" fill="#fefeff"/><circle cx="351.94" cy="56.760000000000005" r="4.52" fill="#cbd9ff"/><circle cx="374.64000000000004" cy="56.760000000000005" r="4.67" fill="#dbe4ff"/><circle cx="397.35499999999996" cy="56.765" r="4.825" fill="#becfff"/><circle cx="420.055" cy="56.765" r="4.835" fill="#5b87ff"/><circle cx="442.765" cy="56.765" r="4.835" fill="#7ea0ff"/><circle cx="465.47499999999997" cy="56.765" r="4.835" fill="#8baaff"/><circle cx="488.17499999999995" cy="56.765" r="4.835" fill="#3c70ff"/><circle cx="510.885" cy="56.765" r="4.835" fill="#3c70ff"/><circle cx="533.585" cy="56.765" r="4.835" fill="#708af0"/><circle cx="556.2950000000001" cy="56.765" r="4.825" fill="#bdceff"/><circle cx="579" cy="56.760000000000005" r="4.67" fill="#f6f8fe"/><circle cx="601.6999999999999" cy="56.760000000000005" r="4.52" fill="#9eb8ff"/><circle cx="624.41" cy="56.76" r="4.37" fill="#4476ff"/><circle cx="647.12" cy="56.76" r="4.22" fill="#6883ef"/><circle cx="669.82" cy="56.76" r="4.07" fill="#396dff"/><circle cx="692.53" cy="56.760000000000005" r="3.92" fill="#94a7f4"/><circle cx="715.23" cy="56.760000000000005" r="3.77" fill="#acc2ff"/><circle cx="737.94" cy="56.76" r="3.62" fill="#5380ff"/><circle cx="760.65" cy="56.76" r="3.47" fill="#7d9fff"/><circle cx="783.35" cy="56.76" r="3.32" fill="#7ea0ff"/><circle cx="806.06" cy="56.760000000000005" r="3.17" fill="#99abf4"/><circle cx="828.76" cy="56.760000000000005" r="3.02" fill="#4e6ded"/><circle cx="851.47" cy="56.76" r="2.87" fill="#6782ef"/><circle cx="874.1800000000001" cy="56.76" r="2.72" fill="#dae4ff"/><circle cx="896.88" cy="56.76" r="2.57" fill="#5573ed"/><circle cx="919.5899999999999" cy="56.760000000000005" r="2.42" fill="#c7d1f9"/><circle cx="11.35" cy="79.47" r="2.27" fill="#d1ddff"/><circle cx="34.055" cy="79.465" r="2.495" fill="#ccdaff"/><circle cx="56.76" cy="79.47" r="2.72" fill="#ecf0fd"/><circle cx="79.46499999999999" cy="79.46499999999999" r="2.945" fill="#c8d6ff"/><circle cx="102.18" cy="79.47" r="3.17" fill="#92afff"/><circle cx="124.88499999999999" cy="79.46499999999999" r="3.395" fill="#8ba0f3"/><circle cx="147.59" cy="79.47" r="3.62" fill="#608aff"/><circle cx="170.295" cy="79.465" r="3.845" fill="#7398ff"/><circle cx="193" cy="79.47" r="4.07" fill="#5280ff"/><circle cx="215.70499999999998" cy="79.465" r="4.295" fill="#4667ec"/><circle cx="238.41" cy="79.47" r="4.52" fill="#4d7cff"/><circle cx="261.115" cy="79.465" r="4.745" fill="#c8d2f9"/><circle cx="283.82500000000005" cy="79.475" r="4.975" fill="#f9fbff"/><circle cx="306.53" cy="79.47" r="5.2" fill="#d6defb"/><circle cx="329.235" cy="79.475" r="5.425" fill="#fefeff"/><circle cx="351.94" cy="79.47" r="5.65" fill="#eaefff"/><circle cx="374.645" cy="79.475" r="5.875" fill="#b2bff7"/><circle cx="397.35" cy="79.47" r="6.1" fill="#6e87f0"/><circle cx="420.055" cy="79.46499999999999" r="6.115" fill="#5d79ee"/><circle cx="442.765" cy="79.46499999999999" r="6.115" fill="#eaf0ff"/><circle cx="465.46500000000003" cy="79.46499999999999" r="6.115" fill="#7c9fff"/><circle cx="488.175" cy="79.46499999999999" r="6.115" fill="#b5c8ff"/><circle cx="510.885" cy="79.46499999999999" r="6.115" fill="#5a86ff"/><circle cx="533.585" cy="79.46499999999999" r="6.115" fill="#d3dbfa"/><circle cx="556.3000000000001" cy="79.47" r="6.1" fill="#abbaf6"/><circle cx="579.005" cy="79.475" r="5.875" fill="#aac1ff"/><circle cx="601.7099999999999" cy="79.47" r="5.65" fill="#758df1"/><circle cx="624.415" cy="79.475" r="5.425" fill="#6f95ff"/><circle cx="647.12" cy="79.47" r="5.2" fill="#6991ff"/><circle cx="669.825" cy="79.475" r="4.975" fill="#4f7eff"/><circle cx="692.525" cy="79.465" r="4.745" fill="#365aea"/><circle cx="715.23" cy="79.47" r="4.52" fill="#7e94f2"/><circle cx="737.935" cy="79.465" r="4.295" fill="#b7caff"/><circle cx="760.6500000000001" cy="79.47" r="4.07" fill="#dce5ff"/><circle cx="783.355" cy="79.465" r="3.845" fill="#8197f2"/><circle cx="806.0600000000001" cy="79.47" r="3.62" fill="#a0b1f5"/><circle cx="828.765" cy="79.46499999999999" r="3.395" fill="#517fff"/><circle cx="851.4699999999999" cy="79.47" r="3.17" fill="#a3b3f5"/><circle cx="874.1750000000001" cy="79.46499999999999" r="2.945" fill="#617def"/><circle cx="896.88" cy="79.47" r="2.72" fill="#8ca1f3"/><circle cx="919.585" cy="79.465" r="2.495" fill="#cbd8ff"/><circle cx="11.35" cy="102.17999999999999" r="2.27" fill="#5a86ff"/><circle cx="34.059999999999995" cy="102.17999999999999" r="2.57" fill="#d9e0fb"/><circle cx="56.76" cy="102.18" r="2.87" fill="#b0c5ff"/><circle cx="79.47" cy="102.18" r="3.17" fill="#718af0"/><circle cx="102.17" cy="102.17" r="3.47" fill="#e4e9fc"/><circle cx="124.88" cy="102.17" r="3.77" fill="#f9faff"/><circle cx="147.59" cy="102.16999999999999" r="4.07" fill="#d0d8fa"/><circle cx="170.29" cy="102.17" r="4.37" fill="#c1ccf9"/><circle cx="193" cy="102.17" r="4.67" fill="#678fff"/><circle cx="215.70499999999998" cy="102.175" r="4.975" fill="#acbaf6"/><circle cx="238.415" cy="102.17500000000001" r="5.275" fill="#678fff"/><circle cx="261.115" cy="102.175" r="5.575" fill="#a2b3f5"/><circle cx="283.825" cy="102.175" r="5.875" fill="#b7c4f8"/><circle cx="306.535" cy="102.175" r="6.175" fill="#9eaff5"/><circle cx="329.235" cy="102.175" r="6.475" fill="#7d94f2"/><circle cx="351.945" cy="102.17500000000001" r="6.775" fill="#eef1fd"/><circle cx="374.645" cy="102.175" r="7.075" fill="#e7ebfd"/><circle cx="397.355" cy="102.175" r="7.375" fill="#769bff"/><circle cx="420.06" cy="102.18" r="7.4" fill="#83a4ff"/><circle cx="442.77" cy="102.18" r="7.4" fill="#a1baff"/><circle cx="465.46999999999997" cy="102.18" r="7.4" fill="#b6c3f7"/><circle cx="488.17999999999995" cy="102.18" r="7.4" fill="#5a86ff"/><circle cx="510.88" cy="102.18" r="7.4" fill="#d3dfff"/><circle cx="533.59" cy="102.18" r="7.4" fill="#d3deff"/><circle cx="556.295" cy="102.175" r="7.375" fill="#aec3ff"/><circle cx="579.005" cy="102.175" r="7.075" fill="#4475ff"/><circle cx="601.7049999999999" cy="102.17500000000001" r="6.775" fill="#7e95f2"/><circle cx="624.4150000000001" cy="102.175" r="6.475" fill="#aebcf7"/><circle cx="647.115" cy="102.175" r="6.175" fill="#abc1ff"/><circle cx="669.825" cy="102.175" r="5.875" fill="#c4cff9"/><circle cx="692.5350000000001" cy="102.175" r="5.575" fill="#e3eaff"/><circle cx="715.235" cy="102.17500000000001" r="5.275" fill="#eef1fd"/><circle cx="737.945" cy="102.175" r="4.975" fill="#3a6eff"/><circle cx="760.64" cy="102.17" r="4.67" fill="#fefeff"/><circle cx="783.35" cy="102.17" r="4.37" fill="#718bf0"/><circle cx="806.0600000000001" cy="102.16999999999999" r="4.07" fill="#b5c2f7"/><circle cx="828.76" cy="102.17" r="3.77" fill="#6d87f0"/><circle cx="851.47" cy="102.17" r="3.47" fill="#4979ff"/><circle cx="874.18" cy="102.18" r="3.17" fill="#5170ed"/><circle cx="896.88" cy="102.18" r="2.87" fill="#9bb5ff"/><circle cx="919.59" cy="102.17999999999999" r="2.57" fill="#386cff"/><circle cx="11.35" cy="124.88" r="2.27" fill="#4e7dff"/><circle cx="34.055" cy="124.88499999999999" r="2.645" fill="#f6f9ff"/><circle cx="56.760000000000005" cy="124.88" r="3.02" fill="#cbd4fa"/><circle cx="79.46499999999999" cy="124.88499999999999" r="3.395" fill="#aebdf7"/><circle cx="102.17" cy="124.88" r="3.77" fill="#aac1ff"/><circle cx="124.88499999999999" cy="124.88499999999999" r="4.145" fill="#b7caff"/><circle cx="147.59" cy="124.88" r="4.52" fill="#637fef"/><circle cx="170.3" cy="124.88000000000001" r="4.9" fill="#a7beff"/><circle cx="193.005" cy="124.885" r="5.275" fill="#91aeff"/><circle cx="215.71" cy="124.88000000000001" r="5.65" fill="#b8c5f8"/><circle cx="238.415" cy="124.885" r="6.025" fill="#5473ed"/><circle cx="261.12" cy="124.88000000000001" r="6.4" fill="#f9faff"/><circle cx="283.825" cy="124.885" r="6.775" fill="#dbe2fb"/><circle cx="306.53" cy="124.88000000000001" r="7.15" fill="#a9c0ff"/><circle cx="329.23499999999996" cy="124.885" r="7.525" fill="#f4f6fe"/><circle cx="351.94" cy="124.88000000000001" r="7.9" fill="#5674ee"/><circle cx="374.645" cy="124.885" r="8.275" fill="#dae4ff"/><circle cx="397.34999999999997" cy="124.88000000000001" r="8.65" fill="#a7bfff"/><circle cx="420.06" cy="124.88" r="8.68" fill="#8dabff"/><circle cx="442.76" cy="124.88" r="8.68" fill="#5380ff"/><circle cx="465.47" cy="124.88" r="8.68" fill="#6a85f0"/><circle cx="488.17" cy="124.88" r="8.68" fill="#365aea"/><circle cx="510.88" cy="124.88" r="8.68" fill="#e2eaff"/><circle cx="533.5899999999999" cy="124.88" r="8.68" fill="#5372ed"/><circle cx="556.29" cy="124.88000000000001" r="8.65" fill="#86a6ff"/><circle cx="578.995" cy="124.885" r="8.275" fill="#d0d9fa"/><circle cx="601.7099999999999" cy="124.88000000000001" r="7.9" fill="#6b92ff"/><circle cx="624.415" cy="124.885" r="7.525" fill="#7fa1ff"/><circle cx="647.12" cy="124.88000000000001" r="7.15" fill="#96b2ff"/><circle cx="669.8249999999999" cy="124.885" r="6.775" fill="#eaedfd"/><circle cx="692.53" cy="124.88000000000001" r="6.4" fill="#6e94ff"/><circle cx="715.235" cy="124.885" r="6.025" fill="#becaf8"/><circle cx="737.9399999999999" cy="124.88000000000001" r="5.65" fill="#e1e6fc"/><circle cx="760.645" cy="124.885" r="5.275" fill="#6d87f0"/><circle cx="783.36" cy="124.88000000000001" r="4.9" fill="#748df1"/><circle cx="806.06" cy="124.88" r="4.52" fill="#d0dcff"/><circle cx="828.765" cy="124.88499999999999" r="4.145" fill="#3d5feb"/><circle cx="851.47" cy="124.88" r="3.77" fill="#7d94f2"/><circle cx="874.175" cy="124.88499999999999" r="3.395" fill="#b8cbff"/><circle cx="896.88" cy="124.88" r="3.02" fill="#dee7ff"/><circle cx="919.585" cy="124.88499999999999" r="2.645" fill="#c8d1f9"/><circle cx="11.35" cy="147.59" r="2.27" fill="#3b5eeb"/><circle cx="34.06" cy="147.59" r="2.72" fill="#7ea0ff"/><circle cx="56.760000000000005" cy="147.58999999999997" r="3.17" fill="#aec4ff"/><circle cx="79.47" cy="147.59" r="3.62" fill="#eaefff"/><circle cx="102.16999999999999" cy="147.59" r="4.07" fill="#5b86ff"/><circle cx="124.88" cy="147.59" r="4.52" fill="#a7b6f6"/><circle cx="147.595" cy="147.595" r="4.975" fill="#fdfeff"/><circle cx="170.29500000000002" cy="147.595" r="5.425" fill="#f9fafe"/><circle cx="193.005" cy="147.585" r="5.875" fill="#f1f3fe"/><circle cx="215.70499999999998" cy="147.58499999999998" r="6.325" fill="#b9c6f8"/><circle cx="238.415" cy="147.585" r="6.775" fill="#6e94ff"/><circle cx="261.115" cy="147.585" r="7.225" fill="#d2deff"/><circle cx="283.825" cy="147.585" r="7.675" fill="#cad8ff"/><circle cx="306.525" cy="147.585" r="8.125" fill="#7990f1"/><circle cx="329.235" cy="147.58499999999998" r="8.575" fill="#f7f9ff"/><circle cx="351.945" cy="147.585" r="9.025" fill="#4e7dff"/><circle cx="374.64500000000004" cy="147.585" r="9.475" fill="#6c86f0"/><circle cx="397.355" cy="147.585" r="9.925" fill="#9fb8ff"/><circle cx="420.05499999999995" cy="147.585" r="9.965" fill="#dee6ff"/><circle cx="442.765" cy="147.585" r="9.965" fill="#5f7cee"/><circle cx="465.47499999999997" cy="147.585" r="9.965" fill="#5f7bee"/><circle cx="488.17499999999995" cy="147.585" r="9.965" fill="#b6c9ff"/><circle cx="510.885" cy="147.585" r="9.965" fill="#d9e3ff"/><circle cx="533.585" cy="147.585" r="9.965" fill="#4667ec"/><circle cx="556.295" cy="147.585" r="9.925" fill="#b3c0f7"/><circle cx="578.995" cy="147.585" r="9.475" fill="#d4dcfb"/><circle cx="601.7049999999999" cy="147.585" r="9.025" fill="#97a9f4"/><circle cx="624.4150000000001" cy="147.58499999999998" r="8.575" fill="#4263eb"/><circle cx="647.115" cy="147.585" r="8.125" fill="#3c5eeb"/><circle cx="669.8249999999999" cy="147.585" r="7.675" fill="#87a7ff"/><circle cx="692.535" cy="147.585" r="7.225" fill="#5a86ff"/><circle cx="715.235" cy="147.585" r="6.775" fill="#5e7bee"/><circle cx="737.945" cy="147.58499999999998" r="6.325" fill="#4f7eff"/><circle cx="760.645" cy="147.585" r="5.875" fill="#769bff"/><circle cx="783.3549999999999" cy="147.595" r="5.425" fill="#bbc7f8"/><circle cx="806.065" cy="147.595" r="4.975" fill="#5170ed"/><circle cx="828.76" cy="147.59" r="4.52" fill="#617def"/><circle cx="851.47" cy="147.59" r="4.07" fill="#96b2ff"/><circle cx="874.17" cy="147.59" r="3.62" fill="#ecf1ff"/><circle cx="896.88" cy="147.58999999999997" r="3.17" fill="#3f61eb"/><circle cx="919.59" cy="147.59" r="2.72" fill="#6d94ff"/><circle cx="11.35" cy="170.29000000000002" r="2.27" fill="#e1e9ff"/><circle cx="34.055" cy="170.295" r="2.795" fill="#5e7aee"/><circle cx="56.76" cy="170.29" r="3.32" fill="#dce5ff"/><circle cx="79.465" cy="170.295" r="3.845" fill="#5481ff"/><circle cx="102.17" cy="170.29" r="4.37" fill="#5783ff"/><circle cx="124.88000000000001" cy="170.3" r="4.9" fill="#f1f4fe"/><circle cx="147.595" cy="170.29500000000002" r="5.425" fill="#f4f6fe"/><circle cx="170.29999999999998" cy="170.29999999999998" r="5.95" fill="#e7edff"/><circle cx="193.005" cy="170.295" r="6.475" fill="#5381ff"/><circle cx="215.71" cy="170.29" r="7" fill="#6c93ff"/><circle cx="238.415" cy="170.29500000000002" r="7.525" fill="#f6f9ff"/><circle cx="261.12" cy="170.29000000000002" r="8.05" fill="#bfcaf8"/><circle cx="283.825" cy="170.295" r="8.575" fill="#8ca0f3"/><circle cx="306.53000000000003" cy="170.29" r="9.1" fill="#7197ff"/><circle cx="329.235" cy="170.295" r="9.625" fill="#a8bfff"/><circle cx="351.94" cy="170.29" r="10.15" fill="#5876ee"/><circle cx="374.64500000000004" cy="170.29500000000002" r="10.675" fill="#396eff"/><circle cx="397.34999999999997" cy="170.29" r="11.2" fill="#b9c5f8"/><circle cx="420.055" cy="170.29500000000002" r="11.245" fill="#c6d0f9"/><circle cx="442.765" cy="170.29500000000002" r="11.245" fill="#8097f2"/><circle cx="465.46500000000003" cy="170.29500000000002" r="11.245" fill="#cfdbff"/><circle cx="488.175" cy="170.29500000000002" r="11.245" fill="#dee4fc"/><circle cx="510.885" cy="170.29500000000002" r="11.245" fill="#4979ff"/><circle cx="533.585" cy="170.29500000000002" r="11.245" fill="#5280ff"/><circle cx="556.2900000000001" cy="170.29" r="11.2" fill="#bbc7f8"/><circle cx="578.995" cy="170.29500000000002" r="10.675" fill="#b4c2f7"/><circle cx="601.6999999999999" cy="170.29" r="10.15" fill="#e7ebfc"/><circle cx="624.415" cy="170.295" r="9.625" fill="#d3deff"/><circle cx="647.12" cy="170.29" r="9.1" fill="#acbaf6"/><circle cx="669.825" cy="170.295" r="8.575" fill="#4869ec"/><circle cx="692.53" cy="170.29000000000002" r="8.05" fill="#4062eb"/><circle cx="715.235" cy="170.29500000000002" r="7.525" fill="#b4c2f7"/><circle cx="737.94" cy="170.29" r="7" fill="#b3c7ff"/><circle cx="760.645" cy="170.295" r="6.475" fill="#5e7bee"/><circle cx="783.35" cy="170.29999999999998" r="5.95" fill="#6b85f0"/><circle cx="806.0649999999999" cy="170.29500000000002" r="5.425" fill="#7096ff"/><circle cx="828.77" cy="170.3" r="4.9" fill="#94a7f4"/><circle cx="851.47" cy="170.29" r="4.37" fill="#3b6fff"/><circle cx="874.1750000000001" cy="170.295" r="3.845" fill="#5573ed"/><circle cx="896.88" cy="170.29" r="3.32" fill="#eceffd"/><circle cx="919.5849999999999" cy="170.295" r="2.795" fill="#627eef"/><circle cx="11.35" cy="193" r="2.27" fill="#b1bff7"/><circle cx="34.06" cy="193" r="2.8" fill="#4869ec"/><circle cx="56.765" cy="193.005" r="3.335" fill="#e6edff"/><circle cx="79.475" cy="192.995" r="3.865" fill="#638cff"/><circle cx="102.175" cy="192.995" r="4.395" fill="#95b1ff"/><circle cx="124.88" cy="193" r="4.93" fill="#5170ed"/><circle cx="147.59" cy="193" r="5.46" fill="#6991ff"/><circle cx="170.29000000000002" cy="193" r="5.99" fill="#ebf0ff"/><circle cx="193.005" cy="193.005" r="6.525" fill="#dee4fc"/><circle cx="215.705" cy="192.995" r="7.055" fill="#a3b3f5"/><circle cx="238.405" cy="192.995" r="7.585" fill="#4a6aec"/><circle cx="261.12" cy="193" r="8.12" fill="#7599ff"/><circle cx="283.82" cy="193" r="8.65" fill="#7f96f2"/><circle cx="306.53000000000003" cy="193" r="9.18" fill="#e1e6fc"/><circle cx="329.23499999999996" cy="193.005" r="9.715" fill="#4d6ded"/><circle cx="351.945" cy="192.995" r="10.245" fill="#d8e2ff"/><circle cx="374.645" cy="192.995" r="10.775" fill="#617def"/><circle cx="397.35" cy="193" r="11.31" fill="#dde3fb"/><circle cx="420.065" cy="193.005" r="11.355" fill="#5a77ee"/><circle cx="442.76500000000004" cy="193.005" r="11.355" fill="#93a6f4"/><circle cx="465.475" cy="193.005" r="11.355" fill="#8da1f3"/><circle cx="488.175" cy="193.005" r="11.355" fill="#4263eb"/><circle cx="510.885" cy="193.005" r="11.355" fill="#4b6bec"/><circle cx="533.595" cy="193.005" r="11.355" fill="#6a85f0"/><circle cx="556.3" cy="193" r="11.31" fill="#b3c0f7"/><circle cx="578.995" cy="192.995" r="10.775" fill="#7d9fff"/><circle cx="601.705" cy="192.995" r="10.245" fill="#afbdf7"/><circle cx="624.4150000000001" cy="193.005" r="9.715" fill="#bdceff"/><circle cx="647.12" cy="193" r="9.18" fill="#678fff"/><circle cx="669.8199999999999" cy="193" r="8.65" fill="#8a9ff3"/><circle cx="692.53" cy="193" r="8.12" fill="#bfcbf8"/><circle cx="715.235" cy="192.995" r="7.585" fill="#ebeffd"/><circle cx="737.9449999999999" cy="192.995" r="7.055" fill="#afc4ff"/><circle cx="760.645" cy="193.005" r="6.525" fill="#607cef"/><circle cx="783.35" cy="193" r="5.99" fill="#3e60eb"/><circle cx="806.0600000000001" cy="193" r="5.46" fill="#8ca0f3"/><circle cx="828.77" cy="193" r="4.93" fill="#7196ff"/><circle cx="851.465" cy="192.995" r="4.395" fill="#4c6ced"/><circle cx="874.175" cy="192.995" r="3.865" fill="#f8f9ff"/><circle cx="896.885" cy="193.005" r="3.335" fill="#5f8aff"/><circle cx="919.5899999999999" cy="193" r="2.8" fill="#365aea"/><circle cx="11.35" cy="215.71" r="2.27" fill="#f0f4ff"/><circle cx="34.06" cy="215.70000000000002" r="2.8" fill="#dee4fc"/><circle cx="56.765" cy="215.705" r="3.335" fill="#d9e3ff"/><circle cx="79.475" cy="215.705" r="3.865" fill="#618bff"/><circle cx="102.175" cy="215.705" r="4.395" fill="#4a6aec"/><circle cx="124.88" cy="215.71" r="4.93" fill="#5977ee"/><circle cx="147.59" cy="215.71" r="5.46" fill="#abbaf6"/><circle cx="170.29000000000002" cy="215.70000000000002" r="5.99" fill="#8ea2f3"/><circle cx="193.005" cy="215.705" r="6.525" fill="#abc2ff"/><circle cx="215.705" cy="215.705" r="7.055" fill="#5d7aee"/><circle cx="238.405" cy="215.705" r="7.585" fill="#e3ebff"/><circle cx="261.12" cy="215.71" r="8.12" fill="#d3dafa"/><circle cx="283.82" cy="215.71" r="8.65" fill="#3e71ff"/><circle cx="306.53000000000003" cy="215.70000000000002" r="9.18" fill="#f1f4ff"/><circle cx="329.23499999999996" cy="215.705" r="9.715" fill="#bdceff"/><circle cx="351.945" cy="215.705" r="10.245" fill="#9db7ff"/><circle cx="374.645" cy="215.705" r="10.775" fill="#5372ed"/><circle cx="397.35" cy="215.71" r="11.31" fill="#b0c5ff"/><circle cx="420.065" cy="215.70499999999998" r="11.355" fill="#a4b4f6"/><circle cx="442.76500000000004" cy="215.70499999999998" r="11.355" fill="#f0f3fd"/><circle cx="465.475" cy="215.70499999999998" r="11.355" fill="#5674ee"/><circle cx="488.175" cy="215.70499999999998" r="11.355" fill="#3a6eff"/><circle cx="510.885" cy="215.70499999999998" r="11.355" fill="#6782ef"/><circle cx="533.595" cy="215.70499999999998" r="11.355" fill="#4162eb"/><circle cx="556.3" cy="215.71" r="11.31" fill="#a5bdff"/><circle cx="578.995" cy="215.705" r="10.775" fill="#85a5ff"/><circle cx="601.705" cy="215.705" r="10.245" fill="#5784ff"/><circle cx="624.4150000000001" cy="215.705" r="9.715" fill="#8b9ff3"/><circle cx="647.12" cy="215.70000000000002" r="9.18" fill="#7499ff"/><circle cx="669.8199999999999" cy="215.71" r="8.65" fill="#5683ff"/><circle cx="692.53" cy="215.71" r="8.12" fill="#e7edff"/><circle cx="715.235" cy="215.705" r="7.585" fill="#d0d8fa"/><circle cx="737.9449999999999" cy="215.705" r="7.055" fill="#e5eafc"/><circle cx="760.645" cy="215.705" r="6.525" fill="#89a9ff"/><circle cx="783.35" cy="215.70000000000002" r="5.99" fill="#496aec"/><circle cx="806.0600000000001" cy="215.71" r="5.46" fill="#3c70ff"/><circle cx="828.77" cy="215.71" r="4.93" fill="#3559ea"/><circle cx="851.465" cy="215.705" r="4.395" fill="#5e88ff"/><circle cx="874.175" cy="215.705" r="3.865" fill="#83a4ff"/><circle cx="896.885" cy="215.705" r="3.335" fill="#dce5ff"/><circle cx="919.5899999999999" cy="215.70000000000002" r="2.8" fill="#c1d1ff"/><circle cx="11.35" cy="238.41" r="2.27" fill="#6580ef"/><circle cx="34.055" cy="238.415" r="2.795" fill="#4062eb"/><circle cx="56.76" cy="238.41" r="3.32" fill="#b2c0f7"/><circle cx="79.465" cy="238.405" r="3.845" fill="#a8bfff"/><circle cx="102.17" cy="238.41" r="4.37" fill="#e7edff"/><circle cx="124.88000000000001" cy="238.41" r="4.9" fill="#dbe4ff"/><circle cx="147.595" cy="238.41500000000002" r="5.425" fill="#778ff1"/><circle cx="170.29999999999998" cy="238.41" r="5.95" fill="#e6edff"/><circle cx="193.005" cy="238.415" r="6.475" fill="#8298f2"/><circle cx="215.71" cy="238.41" r="7" fill="#4c6cec"/><circle cx="238.415" cy="238.415" r="7.525" fill="#c8d6ff"/><circle cx="261.12" cy="238.41000000000003" r="8.05" fill="#7a9dff"/><circle cx="283.825" cy="238.415" r="8.575" fill="#6a85f0"/><circle cx="306.53000000000003" cy="238.41" r="9.1" fill="#4263eb"/><circle cx="329.235" cy="238.415" r="9.625" fill="#d5e0ff"/><circle cx="351.94" cy="238.41" r="10.15" fill="#f8faff"/><circle cx="374.64500000000004" cy="238.405" r="10.675" fill="#4e6ded"/><circle cx="397.34999999999997" cy="238.41" r="11.2" fill="#9daff5"/><circle cx="420.055" cy="238.415" r="11.245" fill="#4768ec"/><circle cx="442.765" cy="238.415" r="11.245" fill="#f4f6fe"/><circle cx="465.46500000000003" cy="238.415" r="11.245" fill="#8399f2"/><circle cx="488.175" cy="238.415" r="11.245" fill="#668eff"/><circle cx="510.885" cy="238.415" r="11.245" fill="#4a6aec"/><circle cx="533.585" cy="238.415" r="11.245" fill="#3d70ff"/><circle cx="556.2900000000001" cy="238.41" r="11.2" fill="#cfd7fa"/><circle cx="578.995" cy="238.405" r="10.675" fill="#8ba0f3"/><circle cx="601.6999999999999" cy="238.41" r="10.15" fill="#a2b2f5"/><circle cx="624.415" cy="238.415" r="9.625" fill="#95b1ff"/><circle cx="647.12" cy="238.41" r="9.1" fill="#edf1ff"/><circle cx="669.825" cy="238.415" r="8.575" fill="#506fed"/><circle cx="692.53" cy="238.41000000000003" r="8.05" fill="#a6b6f6"/><circle cx="715.235" cy="238.415" r="7.525" fill="#6782ef"/><circle cx="737.94" cy="238.41" r="7" fill="#aebcf7"/><circle cx="760.645" cy="238.415" r="6.475" fill="#375aea"/><circle cx="783.35" cy="238.41" r="5.95" fill="#b7caff"/><circle cx="806.0649999999999" cy="238.41500000000002" r="5.425" fill="#feffff"/><circle cx="828.77" cy="238.41" r="4.9" fill="#f7f9fe"/><circle cx="851.47" cy="238.41" r="4.37" fill="#eef1fd"/><circle cx="874.1750000000001" cy="238.405" r="3.845" fill="#d9e3ff"/><circle cx="896.88" cy="238.41" r="3.32" fill="#7b9eff"/><circle cx="919.5849999999999" cy="238.415" r="2.795" fill="#7991f1"/><circle cx="11.35" cy="261.12" r="2.27" fill="#4b7bff"/><circle cx="34.06" cy="261.12" r="2.72" fill="#365aea"/><circle cx="56.760000000000005" cy="261.12" r="3.17" fill="#3f72ff"/><circle cx="79.47" cy="261.12" r="3.62" fill="#fdfdff"/><circle cx="102.16999999999999" cy="261.12" r="4.07" fill="#a8bfff"/><circle cx="124.88" cy="261.12" r="4.52" fill="#6682ef"/><circle cx="147.595" cy="261.125" r="4.975" fill="#f6f8ff"/><circle cx="170.29500000000002" cy="261.115" r="5.425" fill="#9aacf5"/><circle cx="193.005" cy="261.115" r="5.875" fill="#dce3fb"/><circle cx="215.70499999999998" cy="261.115" r="6.325" fill="#82a3ff"/><circle cx="238.415" cy="261.115" r="6.775" fill="#5783ff"/><circle cx="261.115" cy="261.115" r="7.225" fill="#6b92ff"/><circle cx="283.825" cy="261.115" r="7.675" fill="#c0cbf8"/><circle cx="306.525" cy="261.115" r="8.125" fill="#6991ff"/><circle cx="329.235" cy="261.115" r="8.575" fill="#8fa3f3"/><circle cx="351.945" cy="261.115" r="9.025" fill="#d7e2ff"/><circle cx="374.64500000000004" cy="261.115" r="9.475" fill="#cbd8ff"/><circle cx="397.355" cy="261.115" r="9.925" fill="#6b86f0"/><circle cx="420.05499999999995" cy="261.115" r="9.965" fill="#dbe4ff"/><circle cx="442.765" cy="261.115" r="9.965" fill="#507eff"/><circle cx="465.47499999999997" cy="261.115" r="9.965" fill="#6d94ff"/><circle cx="488.17499999999995" cy="261.115" r="9.965" fill="#f3f6ff"/><circle cx="510.885" cy="261.115" r="9.965" fill="#627eef"/><circle cx="533.585" cy="261.115" r="9.965" fill="#cdd6fa"/><circle cx="556.295" cy="261.115" r="9.925" fill="#b1bef7"/><circle cx="578.995" cy="261.115" r="9.475" fill="#cddbff"/><circle cx="601.7049999999999" cy="261.115" r="9.025" fill="#eef1fd"/><circle cx="624.4150000000001" cy="261.115" r="8.575" fill="#8197f2"/><circle cx="647.115" cy="261.115" r="8.125" fill="#8ea2f3"/><circle cx="669.8249999999999" cy="261.115" r="7.675" fill="#e9edfd"/><circle cx="692.535" cy="261.115" r="7.225" fill="#97b2ff"/><circle cx="715.235" cy="261.115" r="6.775" fill="#4566ec"/><circle cx="737.945" cy="261.115" r="6.325" fill="#769bff"/><circle cx="760.645" cy="261.115" r="5.875" fill="#c1ccf9"/><circle cx="783.3549999999999" cy="261.115" r="5.425" fill="#aab9f6"/><circle cx="806.065" cy="261.125" r="4.975" fill="#96a9f4"/><circle cx="828.76" cy="261.12" r="4.52" fill="#eff4ff"/><circle cx="851.47" cy="261.12" r="4.07" fill="#7398ff"/><circle cx="874.17" cy="261.12" r="3.62" fill="#3e61eb"/><circle cx="896.88" cy="261.12" r="3.17" fill="#dfe7ff"/><circle cx="919.59" cy="261.12" r="2.72" fill="#a4b4f6"/><circle cx="11.35" cy="283.82" r="2.27" fill="#8aa9ff"/><circle cx="34.055" cy="283.825" r="2.645" fill="#cdd6fa"/><circle cx="56.760000000000005" cy="283.82" r="3.02" fill="#bdc9f8"/><circle cx="79.46499999999999" cy="283.825" r="3.395" fill="#c6d0f9"/><circle cx="102.17" cy="283.82" r="3.77" fill="#4073ff"/><circle cx="124.88499999999999" cy="283.825" r="4.145" fill="#5473ed"/><circle cx="147.59" cy="283.82" r="4.52" fill="#7398ff"/><circle cx="170.3" cy="283.83" r="4.9" fill="#aebcf7"/><circle cx="193.005" cy="283.825" r="5.275" fill="#4263eb"/><circle cx="215.71" cy="283.83" r="5.65" fill="#7b9eff"/><circle cx="238.415" cy="283.825" r="6.025" fill="#618bff"/><circle cx="261.12" cy="283.82" r="6.4" fill="#668eff"/><circle cx="283.825" cy="283.825" r="6.775" fill="#dae4ff"/><circle cx="306.53" cy="283.82" r="7.15" fill="#dde6ff"/><circle cx="329.23499999999996" cy="283.825" r="7.525" fill="#4c7bff"/><circle cx="351.94" cy="283.82" r="7.9" fill="#f6f8fe"/><circle cx="374.645" cy="283.825" r="8.275" fill="#3c70ff"/><circle cx="397.34999999999997" cy="283.82" r="8.65" fill="#6c93ff"/><circle cx="420.06" cy="283.82" r="8.68" fill="#4375ff"/><circle cx="442.76" cy="283.82" r="8.68" fill="#c8d6ff"/><circle cx="465.47" cy="283.82" r="8.68" fill="#4163eb"/><circle cx="488.17" cy="283.82" r="8.68" fill="#365aea"/><circle cx="510.88" cy="283.82" r="8.68" fill="#84a4ff"/><circle cx="533.5899999999999" cy="283.82" r="8.68" fill="#7297ff"/><circle cx="556.29" cy="283.82" r="8.65" fill="#c9d8ff"/><circle cx="578.995" cy="283.825" r="8.275" fill="#94b0ff"/><circle cx="601.7099999999999" cy="283.82" r="7.9" fill="#d0d8fa"/><circle cx="624.415" cy="283.825" r="7.525" fill="#89a8ff"/><circle cx="647.12" cy="283.82" r="7.15" fill="#6883ef"/><circle cx="669.8249999999999" cy="283.825" r="6.775" fill="#385cea"/><circle cx="692.53" cy="283.82" r="6.4" fill="#d5ddfb"/><circle cx="715.235" cy="283.825" r="6.025" fill="#c1d2ff"/><circle cx="737.9399999999999" cy="283.83" r="5.65" fill="#e2e7fc"/><circle cx="760.645" cy="283.825" r="5.275" fill="#7c93f1"/><circle cx="783.36" cy="283.83" r="4.9" fill="#5977ee"/><circle cx="806.06" cy="283.82" r="4.52" fill="#4062eb"/><circle cx="828.765" cy="283.825" r="4.145" fill="#f3f5fe"/><circle cx="851.47" cy="283.82" r="3.77" fill="#4869ec"/><circle cx="874.175" cy="283.825" r="3.395" fill="#a0baff"/><circle cx="896.88" cy="283.82" r="3.02" fill="#88a8ff"/><circle cx="919.585" cy="283.825" r="2.645" fill="#5f8aff"/><circle cx="11.35" cy="306.53" r="2.27" fill="#f0f4ff"/><circle cx="34.059999999999995" cy="306.53" r="2.57" fill="#eff3ff"/><circle cx="56.76" cy="306.53000000000003" r="2.87" fill="#e3ebff"/><circle cx="79.47" cy="306.53000000000003" r="3.17" fill="#637fef"/><circle cx="102.17" cy="306.53000000000003" r="3.47" fill="#517fff"/><circle cx="124.88" cy="306.53" r="3.77" fill="#4a6aec"/><circle cx="147.59" cy="306.53" r="4.07" fill="#748df1"/><circle cx="170.29" cy="306.53000000000003" r="4.37" fill="#bfd0ff"/><circle cx="193" cy="306.53000000000003" r="4.67" fill="#baccff"/><circle cx="215.70499999999998" cy="306.535" r="4.975" fill="#3f71ff"/><circle cx="238.415" cy="306.53499999999997" r="5.275" fill="#9bb5ff"/><circle cx="261.115" cy="306.53499999999997" r="5.575" fill="#ebeffd"/><circle cx="283.825" cy="306.535" r="5.875" fill="#8dabff"/><circle cx="306.535" cy="306.535" r="6.175" fill="#91a5f4"/><circle cx="329.235" cy="306.535" r="6.475" fill="#7fa1ff"/><circle cx="351.945" cy="306.53499999999997" r="6.775" fill="#4466ec"/><circle cx="374.645" cy="306.53499999999997" r="7.075" fill="#a2bbff"/><circle cx="397.355" cy="306.525" r="7.375" fill="#637fef"/><circle cx="420.06" cy="306.53" r="7.4" fill="#6782ef"/><circle cx="442.77" cy="306.53" r="7.4" fill="#9bb5ff"/><circle cx="465.46999999999997" cy="306.53" r="7.4" fill="#395ceb"/><circle cx="488.17999999999995" cy="306.53" r="7.4" fill="#3d5feb"/><circle cx="510.88" cy="306.53" r="7.4" fill="#d7defb"/><circle cx="533.59" cy="306.53" r="7.4" fill="#92a6f4"/><circle cx="556.295" cy="306.525" r="7.375" fill="#c8d7ff"/><circle cx="579.005" cy="306.53499999999997" r="7.075" fill="#e1e9ff"/><circle cx="601.7049999999999" cy="306.53499999999997" r="6.775" fill="#a7beff"/><circle cx="624.4150000000001" cy="306.535" r="6.475" fill="#3659ea"/><circle cx="647.115" cy="306.535" r="6.175" fill="#627eef"/><circle cx="669.825" cy="306.535" r="5.875" fill="#678fff"/><circle cx="692.5350000000001" cy="306.53499999999997" r="5.575" fill="#8caaff"/><circle cx="715.235" cy="306.53499999999997" r="5.275" fill="#9bb6ff"/><circle cx="737.945" cy="306.535" r="4.975" fill="#b5c2f7"/><circle cx="760.64" cy="306.53000000000003" r="4.67" fill="#4263eb"/><circle cx="783.35" cy="306.53000000000003" r="4.37" fill="#adc3ff"/><circle cx="806.0600000000001" cy="306.53" r="4.07" fill="#658eff"/><circle cx="828.76" cy="306.53" r="3.77" fill="#7fa1ff"/><circle cx="851.47" cy="306.53000000000003" r="3.47" fill="#c9d7ff"/><circle cx="874.18" cy="306.53000000000003" r="3.17" fill="#b3c7ff"/><circle cx="896.88" cy="306.53000000000003" r="2.87" fill="#678fff"/><circle cx="919.59" cy="306.53" r="2.57" fill="#cbd9ff"/><circle cx="11.35" cy="329.22999999999996" r="2.27" fill="#f8fafe"/><circle cx="34.055" cy="329.235" r="2.495" fill="#7b9eff"/><circle cx="56.76" cy="329.23" r="2.72" fill="#e1e9ff"/><circle cx="79.46499999999999" cy="329.235" r="2.945" fill="#6a85f0"/><circle cx="102.18" cy="329.23" r="3.17" fill="#a3b4f6"/><circle cx="124.88499999999999" cy="329.23499999999996" r="3.395" fill="#fcfdff"/><circle cx="147.59" cy="329.23" r="3.62" fill="#d8dffb"/><circle cx="170.295" cy="329.235" r="3.845" fill="#dbe1fb"/><circle cx="193" cy="329.23" r="4.07" fill="#d7defb"/><circle cx="215.70499999999998" cy="329.235" r="4.295" fill="#bdc9f8"/><circle cx="238.41" cy="329.22999999999996" r="4.52" fill="#395cea"/><circle cx="261.115" cy="329.235" r="4.745" fill="#8299f2"/><circle cx="283.82500000000005" cy="329.235" r="4.975" fill="#5683ff"/><circle cx="306.53" cy="329.24" r="5.2" fill="#5976ee"/><circle cx="329.235" cy="329.235" r="5.425" fill="#bbc7f8"/><circle cx="351.94" cy="329.23999999999995" r="5.65" fill="#97aaf4"/><circle cx="374.645" cy="329.235" r="5.875" fill="#bfd0ff"/><circle cx="397.35" cy="329.24" r="6.1" fill="#a9c0ff"/><circle cx="420.055" cy="329.235" r="6.115" fill="#e1e9ff"/><circle cx="442.765" cy="329.235" r="6.115" fill="#a6b6f6"/><circle cx="465.46500000000003" cy="329.235" r="6.115" fill="#869bf2"/><circle cx="488.175" cy="329.235" r="6.115" fill="#abc2ff"/><circle cx="510.885" cy="329.235" r="6.115" fill="#9cadf5"/><circle cx="533.585" cy="329.235" r="6.115" fill="#789bff"/><circle cx="556.3000000000001" cy="329.24" r="6.1" fill="#a3bcff"/><circle cx="579.005" cy="329.235" r="5.875" fill="#9daef5"/><circle cx="601.7099999999999" cy="329.23999999999995" r="5.65" fill="#8fadff"/><circle cx="624.415" cy="329.235" r="5.425" fill="#395cea"/><circle cx="647.12" cy="329.24" r="5.2" fill="#4274ff"/><circle cx="669.825" cy="329.235" r="4.975" fill="#a6beff"/><circle cx="692.525" cy="329.235" r="4.745" fill="#9ab5ff"/><circle cx="715.23" cy="329.22999999999996" r="4.52" fill="#e2e7fc"/><circle cx="737.935" cy="329.235" r="4.295" fill="#cfdcff"/><circle cx="760.6500000000001" cy="329.23" r="4.07" fill="#aebcf7"/><circle cx="783.355" cy="329.235" r="3.845" fill="#d8dffb"/><circle cx="806.0600000000001" cy="329.23" r="3.62" fill="#cfdcff"/><circle cx="828.765" cy="329.23499999999996" r="3.395" fill="#bcceff"/><circle cx="851.4699999999999" cy="329.23" r="3.17" fill="#7890f1"/><circle cx="874.1750000000001" cy="329.235" r="2.945" fill="#4566ec"/><circle cx="896.88" cy="329.23" r="2.72" fill="#7089f0"/><circle cx="919.585" cy="329.235" r="2.495" fill="#395ceb"/><circle cx="11.35" cy="351.94" r="2.27" fill="#dce6ff"/><circle cx="34.06" cy="351.94" r="2.42" fill="#3659ea"/><circle cx="56.76" cy="351.94" r="2.57" fill="#879cf3"/><circle cx="79.47" cy="351.94000000000005" r="2.72" fill="#88a7ff"/><circle cx="102.18" cy="351.94" r="2.87" fill="#4979ff"/><circle cx="124.88" cy="351.94" r="3.02" fill="#8baaff"/><circle cx="147.58999999999997" cy="351.94" r="3.17" fill="#b9ccff"/><circle cx="170.29" cy="351.94" r="3.32" fill="#6e88f0"/><circle cx="193" cy="351.94000000000005" r="3.47" fill="#4a6aec"/><circle cx="215.70000000000002" cy="351.94" r="3.62" fill="#d8dffb"/><circle cx="238.41" cy="351.94" r="3.77" fill="#3f61eb"/><circle cx="261.12" cy="351.94" r="3.92" fill="#f2f5ff"/><circle cx="283.82" cy="351.94" r="4.07" fill="#f9faff"/><circle cx="306.53000000000003" cy="351.94000000000005" r="4.22" fill="#879cf3"/><circle cx="329.23" cy="351.94" r="4.37" fill="#5875ee"/><circle cx="351.94" cy="351.94" r="4.52" fill="#f0f3fd"/><circle cx="374.64000000000004" cy="351.94" r="4.67" fill="#fafbff"/><circle cx="397.35499999999996" cy="351.945" r="4.825" fill="#baccff"/><circle cx="420.055" cy="351.945" r="4.835" fill="#85a5ff"/><circle cx="442.765" cy="351.945" r="4.835" fill="#7197ff"/><circle cx="465.47499999999997" cy="351.945" r="4.835" fill="#b1bff7"/><circle cx="488.17499999999995" cy="351.945" r="4.835" fill="#bec9f8"/><circle cx="510.885" cy="351.945" r="4.835" fill="#b3c7ff"/><circle cx="533.585" cy="351.945" r="4.835" fill="#e2e7fc"/><circle cx="556.2950000000001" cy="351.945" r="4.825" fill="#c0d0ff"/><circle cx="579" cy="351.94" r="4.67" fill="#f7f9ff"/><circle cx="601.6999999999999" cy="351.94" r="4.52" fill="#d4dfff"/><circle cx="624.41" cy="351.94" r="4.37" fill="#9fb0f5"/><circle cx="647.12" cy="351.94000000000005" r="4.22" fill="#acbbf6"/><circle cx="669.82" cy="351.94" r="4.07" fill="#6f95ff"/><circle cx="692.53" cy="351.94" r="3.92" fill="#9daff5"/><circle cx="715.23" cy="351.94" r="3.77" fill="#8eacff"/><circle cx="737.94" cy="351.94" r="3.62" fill="#eff3ff"/><circle cx="760.65" cy="351.94000000000005" r="3.47" fill="#dae3ff"/><circle cx="783.35" cy="351.94" r="3.32" fill="#8dabff"/><circle cx="806.06" cy="351.94" r="3.17" fill="#c8d7ff"/><circle cx="828.76" cy="351.94" r="3.02" fill="#b1bff7"/><circle cx="851.47" cy="351.94" r="2.87" fill="#e5e9fc"/><circle cx="874.1800000000001" cy="351.94000000000005" r="2.72" fill="#eef1fd"/><circle cx="896.88" cy="351.94" r="2.57" fill="#5b78ee"/><circle cx="919.5899999999999" cy="351.94" r="2.42" fill="#7095ff"/><circle cx="11.35" cy="374.65" r="2.27" fill="#6782ef"/><circle cx="34.055" cy="374.64500000000004" r="2.345" fill="#a0b9ff"/><circle cx="56.760000000000005" cy="374.65000000000003" r="2.42" fill="#dbe1fb"/><circle cx="79.465" cy="374.645" r="2.495" fill="#93a6f4"/><circle cx="102.17999999999999" cy="374.65" r="2.57" fill="#d9e3ff"/><circle cx="124.88499999999999" cy="374.645" r="2.645" fill="#c9d3f9"/><circle cx="147.59" cy="374.65000000000003" r="2.72" fill="#a9c0ff"/><circle cx="170.295" cy="374.64500000000004" r="2.795" fill="#9bb5ff"/><circle cx="193" cy="374.65" r="2.87" fill="#a1b1f5"/><circle cx="215.70499999999998" cy="374.645" r="2.945" fill="#6c86f0"/><circle cx="238.41" cy="374.65" r="3.02" fill="#98b3ff"/><circle cx="261.115" cy="374.64500000000004" r="3.095" fill="#496aec"/><circle cx="283.82" cy="374.65000000000003" r="3.17" fill="#5674ee"/><circle cx="306.525" cy="374.645" r="3.245" fill="#6782ef"/><circle cx="329.23" cy="374.65" r="3.32" fill="#edf1ff"/><circle cx="351.935" cy="374.645" r="3.395" fill="#bcceff"/><circle cx="374.65000000000003" cy="374.65000000000003" r="3.47" fill="#3f72ff"/><circle cx="397.355" cy="374.64500000000004" r="3.545" fill="#81a3ff"/><circle cx="420.065" cy="374.645" r="3.555" fill="#5775ee"/><circle cx="442.765" cy="374.645" r="3.555" fill="#4566ec"/><circle cx="465.475" cy="374.645" r="3.555" fill="#d0d8fa"/><circle cx="488.175" cy="374.645" r="3.555" fill="#bcc8f8"/><circle cx="510.885" cy="374.645" r="3.555" fill="#6984f0"/><circle cx="533.5949999999999" cy="374.645" r="3.555" fill="#ecf1ff"/><circle cx="556.295" cy="374.64500000000004" r="3.545" fill="#94a7f4"/><circle cx="579" cy="374.65000000000003" r="3.47" fill="#b1c5ff"/><circle cx="601.7049999999999" cy="374.645" r="3.395" fill="#5f89ff"/><circle cx="624.4100000000001" cy="374.65" r="3.32" fill="#f9fbff"/><circle cx="647.115" cy="374.645" r="3.245" fill="#7890f1"/><circle cx="669.8199999999999" cy="374.65000000000003" r="3.17" fill="#e1e9ff"/><circle cx="692.525" cy="374.64500000000004" r="3.095" fill="#8cabff"/><circle cx="715.23" cy="374.65" r="3.02" fill="#c5cff9"/><circle cx="737.945" cy="374.645" r="2.945" fill="#dbe5ff"/><circle cx="760.65" cy="374.65" r="2.87" fill="#647fef"/><circle cx="783.3549999999999" cy="374.64500000000004" r="2.795" fill="#5170ed"/><circle cx="806.0600000000001" cy="374.65000000000003" r="2.72" fill="#3e71ff"/><circle cx="828.765" cy="374.645" r="2.645" fill="#8cabff"/><circle cx="851.47" cy="374.65" r="2.57" fill="#dfe5fc"/><circle cx="874.175" cy="374.645" r="2.495" fill="#eaeefd"/><circle cx="896.88" cy="374.65000000000003" r="2.42" fill="#6681ef"/><circle cx="919.585" cy="374.64500000000004" r="2.345" fill="#4576ff"/></g></svg>