<?xml version="1.0" standalone="no"?><svg xmlns:xlink="http://www.w3.org/1999/xlink" xmlns="http://www.w3.org/2000/svg" viewBox="0 0 1000 477.27975270479135" preserveAspectRatio="xMaxYMax slice"><g transform="scale(1.2364760432766615)"><rect x="0" y="0" width="808.7619047619047" height="386" fill="#ffffff"/><rect x="441.1428571428571" y="18.38095238095238" width="18.38095238095238" height="18.38095238095238" fill="#ffffff"/><circle cx="454.925" cy="22.974999999999998" r="4.595" fill="#4552ff"/><rect x="496.2857142857142" y="18.38095238095238" width="18.38095238095238" height="18.38095238095238" fill="#ffffff"/><circle cx="500.88500000000005" cy="22.974999999999998" r="4.595" fill="#a2a9ff"/><rect x="165.42857142857142" y="36.76190476190476" width="18.38095238095238" height="18.38095238095238" fill="#ffffff"/><circle cx="179.215" cy="50.545" r="4.595" fill="#c3ddd7"/><rect x="183.8095238095238" y="36.76190476190476" width="18.38095238095238" height="18.38095238095238" fill="#ffffff"/><circle cx="188.405" cy="50.545" r="4.595" fill="#cae1dc"/><rect x="294.0952380952381" y="36.76190476190476" width="18.38095238095238" height="18.38095238095238" fill="#ffffff"/><circle cx="307.88500000000005" cy="41.355" r="4.595" fill="#b3d5cd"/><rect x="312.4761904761905" y="36.76190476190476" width="18.38095238095238" height="18.38095238095238" fill="#ffffff"/><rect x="330.85714285714283" y="36.76190476190476" width="18.38095238095238" height="18.38095238095238" fill="#ffffff"/><circle cx="344.64500000000004" cy="50.545" r="4.595" fill="#3744ff"/><rect x="349.2380952380952" y="36.76190476190476" width="18.38095238095238" height="18.38095238095238" fill="#ffffff"/><rect x="404.38095238095235" y="36.76190476190476" width="18.38095238095238" height="18.38095238095238" fill="#ffffff"/><rect x="477.90476190476187" y="36.76190476190476" width="18.38095238095238" height="18.38095238095238" fill="#ffffff"/><circle cx="491.69500000000005" cy="41.355" r="4.595" fill="#b7bcff"/><circle cx="491.69500000000005" cy="50.545" r="4.595" fill="#edeeff"/><rect x="496.2857142857142" y="36.76190476190476" width="18.38095238095238" height="18.38095238095238" fill="#ffffff"/><rect x="661.7142857142857" y="36.76190476190476" width="18.38095238095238" height="18.38095238095238" fill="#ffffff"/><circle cx="675.495" cy="41.355" r="4.595" fill="#3341ff"/><circle cx="675.495" cy="50.545" r="4.595" fill="#e8e9ff"/><rect x="128.66666666666666" y="55.14285714285714" width="18.38095238095238" height="18.38095238095238" fill="#ffffff"/><rect x="257.3333333333333" y="55.14285714285714" width="18.38095238095238" height="18.38095238095238" fill="#ffffff"/><rect x="294.0952380952381" y="55.14285714285714" width="18.38095238095238" height="18.38095238095238" fill="#ffffff"/><circle cx="298.69500000000005" cy="68.925" r="4.595" fill="#f4f9f7"/><rect x="330.85714285714283" y="55.14285714285714" width="18.38095238095238" height="18.38095238095238" fill="#ffffff"/><circle cx="335.45500000000004" cy="68.925" r="4.595" fill="#e4e5ff"/><rect x="404.38095238095235" y="55.14285714285714" width="18.38095238095238" height="18.38095238095238" fill="#ffffff"/><circle cx="418.165" cy="68.925" r="4.595" fill="#949cff"/><rect x="514.6666666666666" y="55.14285714285714" width="18.38095238095238" height="18.38095238095238" fill="#ffffff"/><circle cx="519.265" cy="59.735" r="4.595" fill="#d8dbff"/><circle cx="519.265" cy="68.925" r="4.595" fill="#7d86ff"/><rect x="569.8095238095237" y="55.14285714285714" width="18.38095238095238" height="18.38095238095238" fill="#ffffff"/><rect x="588.1904761904761" y="55.14285714285714" width="18.38095238095238" height="18.38095238095238" fill="#ffffff"/><rect x="624.952380952381" y="55.14285714285714" width="18.38095238095238" height="18.38095238095238" fill="#ffffff"/><circle cx="629.5450000000001" cy="59.735" r="4.595" fill="#5c67ff"/><circle cx="638.735" cy="68.925" r="4.595" fill="#8089ff"/><rect x="220.57142857142856" y="73.52380952380952" width="18.38095238095238" height="18.38095238095238" fill="#ffffff"/><rect x="238.95238095238093" y="73.52380952380952" width="18.38095238095238" height="18.38095238095238" fill="#ffffff"/><rect x="294.0952380952381" y="73.52380952380952" width="18.38095238095238" height="18.38095238095238" fill="#ffffff"/><circle cx="298.69500000000005" cy="87.30499999999999" r="4.595" fill="#828bff"/><rect x="330.85714285714283" y="73.52380952380952" width="18.38095238095238" height="18.38095238095238" fill="#ffffff"/><circle cx="335.45500000000004" cy="87.30499999999999" r="4.595" fill="#858dff"/><rect x="367.6190476190476" y="73.52380952380952" width="18.38095238095238" height="18.38095238095238" fill="#ffffff"/><circle cx="372.21500000000003" cy="78.115" r="4.595" fill="#848cff"/><circle cx="381.40500000000003" cy="87.30499999999999" r="4.595" fill="#ecf4f2"/><rect x="422.7619047619047" y="73.52380952380952" width="18.38095238095238" height="18.38095238095238" fill="#ffffff"/><circle cx="436.545" cy="87.30499999999999" r="4.595" fill="#cde3de"/><rect x="496.2857142857142" y="73.52380952380952" width="18.38095238095238" height="18.38095238095238" fill="#ffffff"/><circle cx="510.07500000000005" cy="78.115" r="4.595" fill="#63a798"/><circle cx="510.07500000000005" cy="87.30499999999999" r="4.595" fill="#ecedff"/><rect x="514.6666666666666" y="73.52380952380952" width="18.38095238095238" height="18.38095238095238" fill="#ffffff"/><circle cx="519.265" cy="78.115" r="4.595" fill="#f9fbfb"/><circle cx="528.455" cy="87.30499999999999" r="4.595" fill="#459784"/><rect x="624.952380952381" y="73.52380952380952" width="18.38095238095238" height="18.38095238095238" fill="#ffffff"/><rect x="643.3333333333333" y="73.52380952380952" width="18.38095238095238" height="18.38095238095238" fill="#ffffff"/><circle cx="647.9250000000001" cy="78.115" r="4.595" fill="#187d66"/><circle cx="647.9250000000001" cy="87.30499999999999" r="4.595" fill="#858dff"/><rect x="147.04761904761904" y="91.9047619047619" width="18.38095238095238" height="18.38095238095238" fill="#ffffff"/><circle cx="151.645" cy="96.495" r="4.595" fill="#dbebe7"/><circle cx="160.835" cy="105.695" r="4.595" fill="#cdd0ff"/><rect x="202.19047619047618" y="91.9047619047619" width="18.38095238095238" height="18.38095238095238" fill="#ffffff"/><circle cx="206.785" cy="96.495" r="4.595" fill="#f0f1ff"/><circle cx="206.785" cy="105.695" r="4.595" fill="#c3ddd7"/><rect x="220.57142857142856" y="91.9047619047619" width="18.38095238095238" height="18.38095238095238" fill="#ffffff"/><circle cx="234.355" cy="105.695" r="4.595" fill="#b4b9ff"/><rect x="238.95238095238093" y="91.9047619047619" width="18.38095238095238" height="18.38095238095238" fill="#ffffff"/><circle cx="252.73499999999999" cy="96.495" r="4.595" fill="#f6faf9"/><circle cx="243.545" cy="105.695" r="4.595" fill="#f0f1ff"/><rect x="312.4761904761905" y="91.9047619047619" width="18.38095238095238" height="18.38095238095238" fill="#ffffff"/><circle cx="317.07500000000005" cy="96.495" r="4.595" fill="#737dff"/><circle cx="326.26500000000004" cy="96.495" r="4.595" fill="#68aa9b"/><circle cx="317.07500000000005" cy="105.695" r="4.595" fill="#a0a6ff"/><rect x="367.6190476190476" y="91.9047619047619" width="18.38095238095238" height="18.38095238095238" fill="#ffffff"/><circle cx="381.40500000000003" cy="96.495" r="4.595" fill="#459784"/><circle cx="372.21500000000003" cy="105.695" r="4.595" fill="#6faea0"/><rect x="386" y="91.9047619047619" width="18.38095238095238" height="18.38095238095238" fill="#ffffff"/><circle cx="390.595" cy="96.495" r="4.595" fill="#d8e9e5"/><circle cx="390.595" cy="105.695" r="4.595" fill="#4451ff"/><circle cx="399.785" cy="105.695" r="4.595" fill="#f5faf9"/><rect x="404.38095238095235" y="91.9047619047619" width="18.38095238095238" height="18.38095238095238" fill="#ffffff"/><circle cx="418.165" cy="96.495" r="4.595" fill="#2f8a76"/><circle cx="408.975" cy="105.695" r="4.595" fill="#80b8ab"/><circle cx="418.165" cy="105.695" r="4.595" fill="#878fff"/><rect x="422.7619047619047" y="91.9047619047619" width="18.38095238095238" height="18.38095238095238" fill="#ffffff"/><circle cx="427.355" cy="105.695" r="4.595" fill="#2a8772"/><rect x="441.1428571428571" y="91.9047619047619" width="18.38095238095238" height="18.38095238095238" fill="#ffffff"/><circle cx="454.925" cy="96.495" r="4.595" fill="#fbfbff"/><circle cx="445.735" cy="105.695" r="4.595" fill="#edf5f3"/><rect x="496.2857142857142" y="91.9047619047619" width="18.38095238095238" height="18.38095238095238" fill="#ffffff"/><circle cx="500.88500000000005" cy="96.495" r="4.595" fill="#3542ff"/><circle cx="500.88500000000005" cy="105.695" r="4.595" fill="#c8ccff"/><circle cx="510.07500000000005" cy="105.695" r="4.595" fill="#e4e6ff"/><rect x="569.8095238095237" y="91.9047619047619" width="18.38095238095238" height="18.38095238095238" fill="#ffffff"/><rect x="91.9047619047619" y="110.28571428571428" width="18.38095238095238" height="18.38095238095238" fill="#ffffff"/><rect x="110.28571428571428" y="110.28571428571428" width="18.38095238095238" height="18.38095238095238" fill="#ffffff"/><circle cx="114.885" cy="114.885" r="4.595" fill="#6faea0"/><rect x="202.19047619047618" y="110.28571428571428" width="18.38095238095238" height="18.38095238095238" fill="#ffffff"/><rect x="294.0952380952381" y="110.28571428571428" width="18.38095238095238" height="18.38095238095238" fill="#ffffff"/><circle cx="298.69500000000005" cy="114.885" r="4.595" fill="#edeeff"/><circle cx="307.88500000000005" cy="114.885" r="4.595" fill="#abb1ff"/><circle cx="298.69500000000005" cy="124.075" r="4.595" fill="#a5abff"/><rect x="312.4761904761905" y="110.28571428571428" width="18.38095238095238" height="18.38095238095238" fill="#ffffff"/><circle cx="317.07500000000005" cy="114.885" r="4.595" fill="#25846f"/><circle cx="326.26500000000004" cy="114.885" r="4.595" fill="#4a56ff"/><circle cx="326.26500000000004" cy="124.075" r="4.595" fill="#6cac9d"/><rect x="330.85714285714283" y="110.28571428571428" width="18.38095238095238" height="18.38095238095238" fill="#ffffff"/><circle cx="335.45500000000004" cy="114.885" r="4.595" fill="#c2c6ff"/><circle cx="344.64500000000004" cy="114.885" r="4.595" fill="#39907c"/><circle cx="335.45500000000004" cy="124.075" r="4.595" fill="#b2b7ff"/><circle cx="344.64500000000004" cy="124.075" r="4.595" fill="#5aa292"/><rect x="349.2380952380952" y="110.28571428571428" width="18.38095238095238" height="18.38095238095238" fill="#ffffff"/><circle cx="353.83500000000004" cy="124.075" r="4.595" fill="#4956ff"/><circle cx="363.02500000000003" cy="124.075" r="4.595" fill="#f1f2ff"/><rect x="367.6190476190476" y="110.28571428571428" width="18.38095238095238" height="18.38095238095238" fill="#ffffff"/><circle cx="372.21500000000003" cy="114.885" r="4.595" fill="#b1d3cc"/><circle cx="381.40500000000003" cy="114.885" r="4.595" fill="#157c64"/><rect x="386" y="110.28571428571428" width="18.38095238095238" height="18.38095238095238" fill="#ffffff"/><circle cx="390.595" cy="114.885" r="4.595" fill="#fafbff"/><circle cx="390.595" cy="124.075" r="4.595" fill="#f3f8f7"/><circle cx="399.785" cy="124.075" r="4.595" fill="#e2e4ff"/><rect x="404.38095238095235" y="110.28571428571428" width="18.38095238095238" height="18.38095238095238" fill="#ffffff"/><circle cx="408.975" cy="114.885" r="4.595" fill="#3b917d"/><circle cx="418.165" cy="114.885" r="4.595" fill="#318b77"/><circle cx="408.975" cy="124.075" r="4.595" fill="#a2a9ff"/><circle cx="418.165" cy="124.075" r="4.595" fill="#24846e"/><rect x="422.7619047619047" y="110.28571428571428" width="18.38095238095238" height="18.38095238095238" fill="#ffffff"/><circle cx="427.355" cy="114.885" r="4.595" fill="#caceff"/><circle cx="427.355" cy="124.075" r="4.595" fill="#6873ff"/><circle cx="436.545" cy="124.075" r="4.595" fill="#ced1ff"/><rect x="441.1428571428571" y="110.28571428571428" width="18.38095238095238" height="18.38095238095238" fill="#ffffff"/><circle cx="445.735" cy="124.075" r="4.595" fill="#b2b7ff"/><circle cx="454.925" cy="124.075" r="4.595" fill="#bcc1ff"/><rect x="477.90476190476187" y="110.28571428571428" width="18.38095238095238" height="18.38095238095238" fill="#ffffff"/><circle cx="491.69500000000005" cy="114.885" r="4.595" fill="#8cbeb3"/><circle cx="491.69500000000005" cy="124.075" r="4.595" fill="#2e8a75"/><rect x="496.2857142857142" y="110.28571428571428" width="18.38095238095238" height="18.38095238095238" fill="#ffffff"/><circle cx="510.07500000000005" cy="124.075" r="4.595" fill="#959cff"/><rect x="514.6666666666666" y="110.28571428571428" width="18.38095238095238" height="18.38095238095238" fill="#ffffff"/><circle cx="519.265" cy="114.885" r="4.595" fill="#8b93ff"/><circle cx="519.265" cy="124.075" r="4.595" fill="#eaf3f1"/><circle cx="528.455" cy="124.075" r="4.595" fill="#e4f0ed"/><rect x="533.047619047619" y="110.28571428571428" width="18.38095238095238" height="18.38095238095238" fill="#ffffff"/><circle cx="537.645" cy="114.885" r="4.595" fill="#424fff"/><circle cx="546.835" cy="114.885" r="4.595" fill="#edeeff"/><circle cx="546.835" cy="124.075" r="4.595" fill="#328c77"/><rect x="569.8095238095237" y="110.28571428571428" width="18.38095238095238" height="18.38095238095238" fill="#ffffff"/><circle cx="583.595" cy="114.885" r="4.595" fill="#fdfdff"/><circle cx="574.405" cy="124.075" r="4.595" fill="#747dff"/><circle cx="583.595" cy="124.075" r="4.595" fill="#d4d7ff"/><rect x="606.5714285714286" y="110.28571428571428" width="18.38095238095238" height="18.38095238095238" fill="#ffffff"/><circle cx="611.1650000000001" cy="114.885" r="4.595" fill="#525eff"/><circle cx="611.1650000000001" cy="124.075" r="4.595" fill="#167c65"/><rect x="643.3333333333333" y="110.28571428571428" width="18.38095238095238" height="18.38095238095238" fill="#ffffff"/><rect x="735.2380952380952" y="110.28571428571428" width="18.38095238095238" height="18.38095238095238" fill="#ffffff"/><circle cx="739.835" cy="124.075" r="4.595" fill="#7a83ff"/><rect x="753.6190476190476" y="110.28571428571428" width="18.38095238095238" height="18.38095238095238" fill="#ffffff"/><circle cx="767.405" cy="114.885" r="4.595" fill="#d9e9e6"/><circle cx="767.405" cy="124.075" r="4.595" fill="#424fff"/><rect x="147.04761904761904" y="128.66666666666666" width="18.38095238095238" height="18.38095238095238" fill="#ffffff"/><circle cx="151.645" cy="133.265" r="4.595" fill="#767fff"/><circle cx="160.835" cy="133.265" r="4.595" fill="#a8aeff"/><circle cx="151.645" cy="142.455" r="4.595" fill="#727cff"/><circle cx="160.835" cy="142.455" r="4.595" fill="#4b58ff"/><rect x="183.8095238095238" y="128.66666666666666" width="18.38095238095238" height="18.38095238095238" fill="#ffffff"/><circle cx="197.595" cy="133.265" r="4.595" fill="#aab0ff"/><circle cx="197.595" cy="142.455" r="4.595" fill="#378f7b"/><rect x="220.57142857142856" y="128.66666666666666" width="18.38095238095238" height="18.38095238095238" fill="#ffffff"/><circle cx="225.165" cy="142.455" r="4.595" fill="#9097ff"/><rect x="238.95238095238093" y="128.66666666666666" width="18.38095238095238" height="18.38095238095238" fill="#ffffff"/><circle cx="243.545" cy="133.265" r="4.595" fill="#c9ccff"/><circle cx="252.73499999999999" cy="133.265" r="4.595" fill="#6faea0"/><circle cx="243.545" cy="142.455" r="4.595" fill="#e0e2ff"/><rect x="257.3333333333333" y="128.66666666666666" width="18.38095238095238" height="18.38095238095238" fill="#ffffff"/><circle cx="271.115" cy="133.265" r="4.595" fill="#daeae6"/><rect x="275.71428571428567" y="128.66666666666666" width="18.38095238095238" height="18.38095238095238" fill="#ffffff"/><circle cx="280.305" cy="133.265" r="4.595" fill="#b2d4cc"/><circle cx="280.305" cy="142.455" r="4.595" fill="#8abdb2"/><rect x="330.85714285714283" y="128.66666666666666" width="18.38095238095238" height="18.38095238095238" fill="#ffffff"/><circle cx="344.64500000000004" cy="133.265" r="4.595" fill="#3543ff"/><circle cx="335.45500000000004" cy="142.455" r="4.595" fill="#5a65ff"/><circle cx="344.64500000000004" cy="142.455" r="4.595" fill="#9ec9bf"/><rect x="349.2380952380952" y="128.66666666666666" width="18.38095238095238" height="18.38095238095238" fill="#ffffff"/><circle cx="363.02500000000003" cy="133.265" r="4.595" fill="#66a99a"/><circle cx="353.83500000000004" cy="142.455" r="4.595" fill="#509d8b"/><circle cx="363.02500000000003" cy="142.455" r="4.595" fill="#2c8873"/><rect x="367.6190476190476" y="128.66666666666666" width="18.38095238095238" height="18.38095238095238" fill="#ffffff"/><circle cx="372.21500000000003" cy="133.265" r="4.595" fill="#cee3de"/><circle cx="381.40500000000003" cy="133.265" r="4.595" fill="#9098ff"/><circle cx="381.40500000000003" cy="142.455" r="4.595" fill="#a2cbc2"/><rect x="386" y="128.66666666666666" width="18.38095238095238" height="18.38095238095238" fill="#ffffff"/><circle cx="390.595" cy="133.265" r="4.595" fill="#5a65ff"/><circle cx="399.785" cy="133.265" r="4.595" fill="#9dc8be"/><circle cx="390.595" cy="142.455" r="4.595" fill="#7881ff"/><circle cx="399.785" cy="142.455" r="4.595" fill="#22836d"/><rect x="422.7619047619047" y="128.66666666666666" width="18.38095238095238" height="18.38095238095238" fill="#ffffff"/><circle cx="427.355" cy="133.265" r="4.595" fill="#449683"/><circle cx="436.545" cy="133.265" r="4.595" fill="#c3c7ff"/><circle cx="427.355" cy="142.455" r="4.595" fill="#d5d8ff"/><circle cx="436.545" cy="142.455" r="4.595" fill="#d5d8ff"/><rect x="459.5238095238095" y="128.66666666666666" width="18.38095238095238" height="18.38095238095238" fill="#ffffff"/><circle cx="464.115" cy="133.265" r="4.595" fill="#8cbeb3"/><circle cx="473.305" cy="133.265" r="4.595" fill="#318b76"/><circle cx="464.115" cy="142.455" r="4.595" fill="#aeb3ff"/><circle cx="473.305" cy="142.455" r="4.595" fill="#cae1dc"/><rect x="477.90476190476187" y="128.66666666666666" width="18.38095238095238" height="18.38095238095238" fill="#ffffff"/><circle cx="482.495" cy="133.265" r="4.595" fill="#308b76"/><circle cx="491.69500000000005" cy="133.265" r="4.595" fill="#9ec9bf"/><circle cx="482.495" cy="142.455" r="4.595" fill="#e0e2ff"/><rect x="514.6666666666666" y="128.66666666666666" width="18.38095238095238" height="18.38095238095238" fill="#ffffff"/><circle cx="519.265" cy="133.265" r="4.595" fill="#f0f1ff"/><rect x="533.047619047619" y="128.66666666666666" width="18.38095238095238" height="18.38095238095238" fill="#ffffff"/><circle cx="537.645" cy="142.455" r="4.595" fill="#646fff"/><rect x="551.4285714285713" y="128.66666666666666" width="18.38095238095238" height="18.38095238095238" fill="#ffffff"/><circle cx="556.025" cy="133.265" r="4.595" fill="#828aff"/><circle cx="556.025" cy="142.455" r="4.595" fill="#0d775f"/><rect x="569.8095238095237" y="128.66666666666666" width="18.38095238095238" height="18.38095238095238" fill="#ffffff"/><circle cx="574.405" cy="133.265" r="4.595" fill="#c9e1db"/><circle cx="574.405" cy="142.455" r="4.595" fill="#fefeff"/><circle cx="583.595" cy="142.455" r="4.595" fill="#8088ff"/><rect x="606.5714285714286" y="128.66666666666666" width="18.38095238095238" height="18.38095238095238" fill="#ffffff"/><circle cx="611.1650000000001" cy="133.265" r="4.595" fill="#b5d5ce"/><circle cx="620.355" cy="133.265" r="4.595" fill="#7bb5a7"/><circle cx="611.1650000000001" cy="142.455" r="4.595" fill="#63a798"/><rect x="698.4761904761904" y="128.66666666666666" width="18.38095238095238" height="18.38095238095238" fill="#ffffff"/><rect x="128.66666666666666" y="147.04761904761904" width="18.38095238095238" height="18.38095238095238" fill="#ffffff"/><circle cx="142.455" cy="151.645" r="4.595" fill="#6e78ff"/><rect x="147.04761904761904" y="147.04761904761904" width="18.38095238095238" height="18.38095238095238" fill="#ffffff"/><circle cx="160.835" cy="151.645" r="4.595" fill="#838bff"/><rect x="165.42857142857142" y="147.04761904761904" width="18.38095238095238" height="18.38095238095238" fill="#ffffff"/><circle cx="179.215" cy="151.645" r="4.595" fill="#5da494"/><circle cx="170.025" cy="160.835" r="4.595" fill="#2b8873"/><circle cx="179.215" cy="160.835" r="4.595" fill="#2e8a75"/><rect x="183.8095238095238" y="147.04761904761904" width="18.38095238095238" height="18.38095238095238" fill="#ffffff"/><circle cx="188.405" cy="151.645" r="4.595" fill="#1e816a"/><circle cx="197.595" cy="151.645" r="4.595" fill="#bad8d1"/><circle cx="188.405" cy="160.835" r="4.595" fill="#daeae7"/><rect x="202.19047619047618" y="147.04761904761904" width="18.38095238095238" height="18.38095238095238" fill="#ffffff"/><circle cx="206.785" cy="151.645" r="4.595" fill="#98c5bb"/><circle cx="215.975" cy="151.645" r="4.595" fill="#4d9b89"/><circle cx="206.785" cy="160.835" r="4.595" fill="#9aa1ff"/><circle cx="215.975" cy="160.835" r="4.595" fill="#4f9c8b"/><rect x="220.57142857142856" y="147.04761904761904" width="18.38095238095238" height="18.38095238095238" fill="#ffffff"/><circle cx="225.165" cy="151.645" r="4.595" fill="#ecedff"/><circle cx="234.355" cy="151.645" r="4.595" fill="#288671"/><circle cx="225.165" cy="160.835" r="4.595" fill="#979eff"/><rect x="257.3333333333333" y="147.04761904761904" width="18.38095238095238" height="18.38095238095238" fill="#ffffff"/><circle cx="271.115" cy="151.645" r="4.595" fill="#509d8b"/><circle cx="261.925" cy="160.835" r="4.595" fill="#117962"/><circle cx="271.115" cy="160.835" r="4.595" fill="#aeb4ff"/><rect x="275.71428571428567" y="147.04761904761904" width="18.38095238095238" height="18.38095238095238" fill="#ffffff"/><circle cx="289.495" cy="151.645" r="4.595" fill="#fbfcff"/><circle cx="289.495" cy="160.835" r="4.595" fill="#74b1a3"/><rect x="294.0952380952381" y="147.04761904761904" width="18.38095238095238" height="18.38095238095238" fill="#ffffff"/><circle cx="298.69500000000005" cy="151.645" r="4.595" fill="#daddff"/><circle cx="307.88500000000005" cy="151.645" r="4.595" fill="#99c6bc"/><circle cx="298.69500000000005" cy="160.835" r="4.595" fill="#3a48ff"/><circle cx="307.88500000000005" cy="160.835" r="4.595" fill="#f0f7f5"/><rect x="312.4761904761905" y="147.04761904761904" width="18.38095238095238" height="18.38095238095238" fill="#ffffff"/><circle cx="317.07500000000005" cy="151.645" r="4.595" fill="#3442ff"/><circle cx="326.26500000000004" cy="151.645" r="4.595" fill="#d6d9ff"/><circle cx="317.07500000000005" cy="160.835" r="4.595" fill="#6b75ff"/><rect x="330.85714285714283" y="147.04761904761904" width="18.38095238095238" height="18.38095238095238" fill="#ffffff"/><circle cx="344.64500000000004" cy="151.645" r="4.595" fill="#459784"/><circle cx="335.45500000000004" cy="160.835" r="4.595" fill="#f7f8ff"/><circle cx="344.64500000000004" cy="160.835" r="4.595" fill="#368e7a"/><rect x="349.2380952380952" y="147.04761904761904" width="18.38095238095238" height="18.38095238095238" fill="#ffffff"/><circle cx="353.83500000000004" cy="151.645" r="4.595" fill="#4f5bff"/><circle cx="363.02500000000003" cy="151.645" r="4.595" fill="#b7bcff"/><circle cx="353.83500000000004" cy="160.835" r="4.595" fill="#92c2b7"/><circle cx="363.02500000000003" cy="160.835" r="4.595" fill="#e7e9ff"/><rect x="367.6190476190476" y="147.04761904761904" width="18.38095238095238" height="18.38095238095238" fill="#ffffff"/><circle cx="372.21500000000003" cy="151.645" r="4.595" fill="#5fa595"/><circle cx="381.40500000000003" cy="151.645" r="4.595" fill="#7e87ff"/><circle cx="372.21500000000003" cy="160.835" r="4.595" fill="#9dc8be"/><circle cx="381.40500000000003" cy="160.835" r="4.595" fill="#5561ff"/><rect x="386" y="147.04761904761904" width="18.38095238095238" height="18.38095238095238" fill="#ffffff"/><circle cx="390.595" cy="151.645" r="4.595" fill="#606bff"/><circle cx="399.785" cy="151.645" r="4.595" fill="#8c94ff"/><circle cx="390.595" cy="160.835" r="4.595" fill="#7f88ff"/><circle cx="399.785" cy="160.835" r="4.595" fill="#aeb4ff"/><rect x="404.38095238095235" y="147.04761904761904" width="18.38095238095238" height="18.38095238095238" fill="#ffffff"/><circle cx="408.975" cy="151.645" r="4.595" fill="#79b4a6"/><circle cx="418.165" cy="151.645" r="4.595" fill="#147b64"/><circle cx="408.975" cy="160.835" r="4.595" fill="#4854ff"/><circle cx="418.165" cy="160.835" r="4.595" fill="#5a65ff"/><rect x="422.7619047619047" y="147.04761904761904" width="18.38095238095238" height="18.38095238095238" fill="#ffffff"/><circle cx="427.355" cy="151.645" r="4.595" fill="#bfdbd5"/><circle cx="436.545" cy="151.645" r="4.595" fill="#b3d4cd"/><circle cx="427.355" cy="160.835" r="4.595" fill="#a3aaff"/><circle cx="436.545" cy="160.835" r="4.595" fill="#757fff"/><rect x="441.1428571428571" y="147.04761904761904" width="18.38095238095238" height="18.38095238095238" fill="#ffffff"/><circle cx="445.735" cy="151.645" r="4.595" fill="#646fff"/><circle cx="454.925" cy="151.645" r="4.595" fill="#8e96ff"/><circle cx="445.735" cy="160.835" r="4.595" fill="#429582"/><circle cx="454.925" cy="160.835" r="4.595" fill="#3d927f"/><rect x="459.5238095238095" y="147.04761904761904" width="18.38095238095238" height="18.38095238095238" fill="#ffffff"/><circle cx="464.115" cy="151.645" r="4.595" fill="#4c58ff"/><circle cx="473.305" cy="151.645" r="4.595" fill="#f6faf9"/><circle cx="464.115" cy="160.835" r="4.595" fill="#f1f2ff"/><circle cx="473.305" cy="160.835" r="4.595" fill="#daeae6"/><rect x="477.90476190476187" y="147.04761904761904" width="18.38095238095238" height="18.38095238095238" fill="#ffffff"/><circle cx="482.495" cy="151.645" r="4.595" fill="#7f88ff"/><circle cx="491.69500000000005" cy="151.645" r="4.595" fill="#8ec0b5"/><circle cx="482.495" cy="160.835" r="4.595" fill="#7982ff"/><circle cx="491.69500000000005" cy="160.835" r="4.595" fill="#939aff"/><rect x="514.6666666666666" y="147.04761904761904" width="18.38095238095238" height="18.38095238095238" fill="#ffffff"/><circle cx="519.265" cy="160.835" r="4.595" fill="#c2ddd7"/><circle cx="528.455" cy="160.835" r="4.595" fill="#dcebe8"/><rect x="533.047619047619" y="147.04761904761904" width="18.38095238095238" height="18.38095238095238" fill="#ffffff"/><circle cx="546.835" cy="151.645" r="4.595" fill="#dcdeff"/><circle cx="537.645" cy="160.835" r="4.595" fill="#757eff"/><circle cx="546.835" cy="160.835" r="4.595" fill="#939bff"/><rect x="551.4285714285713" y="147.04761904761904" width="18.38095238095238" height="18.38095238095238" fill="#ffffff"/><circle cx="565.215" cy="151.645" r="4.595" fill="#288671"/><circle cx="556.025" cy="160.835" r="4.595" fill="#b7d6cf"/><circle cx="565.215" cy="160.835" r="4.595" fill="#dbdeff"/><rect x="569.8095238095237" y="147.04761904761904" width="18.38095238095238" height="18.38095238095238" fill="#ffffff"/><circle cx="583.595" cy="151.645" r="4.595" fill="#8bbeb2"/><circle cx="574.405" cy="160.835" r="4.595" fill="#404dff"/><rect x="624.952380952381" y="147.04761904761904" width="18.38095238095238" height="18.38095238095238" fill="#ffffff"/><circle cx="629.5450000000001" cy="151.645" r="4.595" fill="#5d69ff"/><circle cx="629.5450000000001" cy="160.835" r="4.595" fill="#68aa9b"/><circle cx="638.735" cy="160.835" r="4.595" fill="#b6d6cf"/><rect x="735.2380952380952" y="147.04761904761904" width="18.38095238095238" height="18.38095238095238" fill="#ffffff"/><circle cx="749.025" cy="151.645" r="4.595" fill="#8f97ff"/><circle cx="739.835" cy="160.835" r="4.595" fill="#6973ff"/><circle cx="749.025" cy="160.835" r="4.595" fill="#298772"/><rect x="790.3809523809523" y="147.04761904761904" width="18.38095238095238" height="18.38095238095238" fill="#ffffff"/><rect x="55.14285714285714" y="165.42857142857142" width="18.38095238095238" height="18.38095238095238" fill="#ffffff"/><rect x="73.52380952380952" y="165.42857142857142" width="18.38095238095238" height="18.38095238095238" fill="#ffffff"/><circle cx="87.30499999999999" cy="179.215" r="4.595" fill="#c4c8ff"/><rect x="147.04761904761904" y="165.42857142857142" width="18.38095238095238" height="18.38095238095238" fill="#ffffff"/><circle cx="151.645" cy="170.025" r="4.595" fill="#58a191"/><circle cx="160.835" cy="170.025" r="4.595" fill="#3c927e"/><circle cx="160.835" cy="179.215" r="4.595" fill="#3543ff"/><rect x="165.42857142857142" y="165.42857142857142" width="18.38095238095238" height="18.38095238095238" fill="#ffffff"/><circle cx="170.025" cy="170.025" r="4.595" fill="#b1b6ff"/><circle cx="170.025" cy="179.215" r="4.595" fill="#ffffff"/><rect x="183.8095238095238" y="165.42857142857142" width="18.38095238095238" height="18.38095238095238" fill="#ffffff"/><circle cx="188.405" cy="170.025" r="4.595" fill="#1a7e68"/><circle cx="188.405" cy="179.215" r="4.595" fill="#86bbaf"/><rect x="202.19047619047618" y="165.42857142857142" width="18.38095238095238" height="18.38095238095238" fill="#ffffff"/><circle cx="206.785" cy="170.025" r="4.595" fill="#bcd9d3"/><circle cx="215.975" cy="179.215" r="4.595" fill="#348d79"/><rect x="220.57142857142856" y="165.42857142857142" width="18.38095238095238" height="18.38095238095238" fill="#ffffff"/><circle cx="225.165" cy="170.025" r="4.595" fill="#f4f9f8"/><circle cx="234.355" cy="170.025" r="4.595" fill="#5762ff"/><circle cx="234.355" cy="179.215" r="4.595" fill="#84baae"/><rect x="238.95238095238093" y="165.42857142857142" width="18.38095238095238" height="18.38095238095238" fill="#ffffff"/><circle cx="243.545" cy="170.025" r="4.595" fill="#d5e8e3"/><circle cx="252.73499999999999" cy="170.025" r="4.595" fill="#8089ff"/><circle cx="243.545" cy="179.215" r="4.595" fill="#5ea595"/><circle cx="252.73499999999999" cy="179.215" r="4.595" fill="#c2c6ff"/><rect x="257.3333333333333" y="165.42857142857142" width="18.38095238095238" height="18.38095238095238" fill="#ffffff"/><circle cx="271.115" cy="170.025" r="4.595" fill="#e4f0ed"/><circle cx="261.925" cy="179.215" r="4.595" fill="#509d8c"/><circle cx="271.115" cy="179.215" r="4.595" fill="#747eff"/><rect x="275.71428571428567" y="165.42857142857142" width="18.38095238095238" height="18.38095238095238" fill="#ffffff"/><circle cx="289.495" cy="170.025" r="4.595" fill="#9bc7bd"/><circle cx="280.305" cy="179.215" r="4.595" fill="#81b8ac"/><rect x="312.4761904761905" y="165.42857142857142" width="18.38095238095238" height="18.38095238095238" fill="#ffffff"/><circle cx="326.26500000000004" cy="170.025" r="4.595" fill="#edf5f3"/><circle cx="317.07500000000005" cy="179.215" r="4.595" fill="#3a47ff"/><circle cx="326.26500000000004" cy="179.215" r="4.595" fill="#f3f4ff"/><rect x="330.85714285714283" y="165.42857142857142" width="18.38095238095238" height="18.38095238095238" fill="#ffffff"/><circle cx="335.45500000000004" cy="170.025" r="4.595" fill="#535fff"/><circle cx="344.64500000000004" cy="170.025" r="4.595" fill="#eff0ff"/><circle cx="335.45500000000004" cy="179.215" r="4.595" fill="#65a899"/><circle cx="344.64500000000004" cy="179.215" r="4.595" fill="#58a191"/><rect x="349.2380952380952" y="165.42857142857142" width="18.38095238095238" height="18.38095238095238" fill="#ffffff"/><circle cx="353.83500000000004" cy="170.025" r="4.595" fill="#cbceff"/><circle cx="363.02500000000003" cy="170.025" r="4.595" fill="#414eff"/><circle cx="353.83500000000004" cy="179.215" r="4.595" fill="#9da3ff"/><circle cx="363.02500000000003" cy="179.215" r="4.595" fill="#b6bbff"/><rect x="367.6190476190476" y="165.42857142857142" width="18.38095238095238" height="18.38095238095238" fill="#ffffff"/><circle cx="372.21500000000003" cy="170.025" r="4.595" fill="#a4aaff"/><circle cx="381.40500000000003" cy="170.025" r="4.595" fill="#a4aaff"/><circle cx="372.21500000000003" cy="179.215" r="4.595" fill="#cce2dd"/><circle cx="381.40500000000003" cy="179.215" r="4.595" fill="#348d79"/><rect x="386" y="165.42857142857142" width="18.38095238095238" height="18.38095238095238" fill="#ffffff"/><circle cx="390.595" cy="170.025" r="4.595" fill="#c6c9ff"/><circle cx="399.785" cy="170.025" r="4.595" fill="#549f8e"/><circle cx="390.595" cy="179.215" r="4.595" fill="#d5e7e3"/><circle cx="399.785" cy="179.215" r="4.595" fill="#77b3a5"/><rect x="404.38095238095235" y="165.42857142857142" width="18.38095238095238" height="18.38095238095238" fill="#ffffff"/><circle cx="408.975" cy="170.025" r="4.595" fill="#dde0ff"/><circle cx="418.165" cy="170.025" r="4.595" fill="#5864ff"/><circle cx="408.975" cy="179.215" r="4.595" fill="#f2f3ff"/><circle cx="418.165" cy="179.215" r="4.595" fill="#939aff"/><rect x="422.7619047619047" y="165.42857142857142" width="18.38095238095238" height="18.38095238095238" fill="#ffffff"/><circle cx="427.355" cy="170.025" r="4.595" fill="#4e9c8a"/><circle cx="436.545" cy="170.025" r="4.595" fill="#c9e1dc"/><circle cx="427.355" cy="179.215" r="4.595" fill="#76b2a4"/><circle cx="436.545" cy="179.215" r="4.595" fill="#9ba2ff"/><rect x="441.1428571428571" y="165.42857142857142" width="18.38095238095238" height="18.38095238095238" fill="#ffffff"/><circle cx="445.735" cy="170.025" r="4.595" fill="#ddece8"/><circle cx="454.925" cy="170.025" r="4.595" fill="#65a999"/><circle cx="445.735" cy="179.215" r="4.595" fill="#c1dcd6"/><circle cx="454.925" cy="179.215" r="4.595" fill="#adb2ff"/><rect x="459.5238095238095" y="165.42857142857142" width="18.38095238095238" height="18.38095238095238" fill="#ffffff"/><circle cx="464.115" cy="170.025" r="4.595" fill="#3d4bff"/><circle cx="473.305" cy="170.025" r="4.595" fill="#5e69ff"/><circle cx="464.115" cy="179.215" r="4.595" fill="#6570ff"/><circle cx="473.305" cy="179.215" r="4.595" fill="#197e67"/><rect x="477.90476190476187" y="165.42857142857142" width="18.38095238095238" height="18.38095238095238" fill="#ffffff"/><circle cx="482.495" cy="170.025" r="4.595" fill="#add1c9"/><circle cx="491.69500000000005" cy="170.025" r="4.595" fill="#7781ff"/><circle cx="482.495" cy="179.215" r="4.595" fill="#c2c6ff"/><circle cx="491.69500000000005" cy="179.215" r="4.595" fill="#f9faff"/><rect x="496.2857142857142" y="165.42857142857142" width="18.38095238095238" height="18.38095238095238" fill="#ffffff"/><circle cx="500.88500000000005" cy="170.025" r="4.595" fill="#ced2ff"/><circle cx="510.07500000000005" cy="170.025" r="4.595" fill="#3744ff"/><circle cx="500.88500000000005" cy="179.215" r="4.595" fill="#b6d6cf"/><circle cx="510.07500000000005" cy="179.215" r="4.595" fill="#6671ff"/><rect x="533.047619047619" y="165.42857142857142" width="18.38095238095238" height="18.38095238095238" fill="#ffffff"/><circle cx="537.645" cy="170.025" r="4.595" fill="#737dff"/><circle cx="546.835" cy="170.025" r="4.595" fill="#6dad9f"/><circle cx="537.645" cy="179.215" r="4.595" fill="#dfe1ff"/><rect x="588.1904761904761" y="165.42857142857142" width="18.38095238095238" height="18.38095238095238" fill="#ffffff"/><circle cx="592.7850000000001" cy="170.025" r="4.595" fill="#d7e9e5"/><circle cx="592.7850000000001" cy="179.215" r="4.595" fill="#8c94ff"/><circle cx="601.975" cy="179.215" r="4.595" fill="#308b76"/><rect x="606.5714285714286" y="165.42857142857142" width="18.38095238095238" height="18.38095238095238" fill="#ffffff"/><circle cx="611.1650000000001" cy="170.025" r="4.595" fill="#737dff"/><circle cx="611.1650000000001" cy="179.215" r="4.595" fill="#c8ccff"/><circle cx="620.355" cy="179.215" r="4.595" fill="#cbe2dd"/><rect x="624.952380952381" y="165.42857142857142" width="18.38095238095238" height="18.38095238095238" fill="#ffffff"/><circle cx="629.5450000000001" cy="170.025" r="4.595" fill="#eaf3f1"/><circle cx="638.735" cy="170.025" r="4.595" fill="#3947ff"/><circle cx="629.5450000000001" cy="179.215" r="4.595" fill="#eef6f4"/><rect x="643.3333333333333" y="165.42857142857142" width="18.38095238095238" height="18.38095238095238" fill="#ffffff"/><rect x="716.8571428571428" y="165.42857142857142" width="18.38095238095238" height="18.38095238095238" fill="#ffffff"/><circle cx="721.455" cy="170.025" r="4.595" fill="#cbe2dc"/><circle cx="730.645" cy="170.025" r="4.595" fill="#97c5ba"/><circle cx="730.645" cy="179.215" r="4.595" fill="#fbfcff"/><rect x="91.9047619047619" y="183.8095238095238" width="18.38095238095238" height="18.38095238095238" fill="#ffffff"/><circle cx="96.495" cy="188.405" r="4.595" fill="#f2f3ff"/><rect x="128.66666666666666" y="183.8095238095238" width="18.38095238095238" height="18.38095238095238" fill="#ffffff"/><rect x="183.8095238095238" y="183.8095238095238" width="18.38095238095238" height="18.38095238095238" fill="#ffffff"/><circle cx="188.405" cy="197.595" r="4.595" fill="#757eff"/><circle cx="197.595" cy="197.595" r="4.595" fill="#187d66"/><rect x="220.57142857142856" y="183.8095238095238" width="18.38095238095238" height="18.38095238095238" fill="#ffffff"/><circle cx="225.165" cy="188.405" r="4.595" fill="#bfc3ff"/><circle cx="234.355" cy="188.405" r="4.595" fill="#81b8ac"/><circle cx="225.165" cy="197.595" r="4.595" fill="#1a7e67"/><circle cx="234.355" cy="197.595" r="4.595" fill="#1a7e68"/><rect x="257.3333333333333" y="183.8095238095238" width="18.38095238095238" height="18.38095238095238" fill="#ffffff"/><circle cx="261.925" cy="188.405" r="4.595" fill="#5ba393"/><circle cx="271.115" cy="188.405" r="4.595" fill="#bcc1ff"/><circle cx="261.925" cy="197.595" r="4.595" fill="#f1f2ff"/><circle cx="271.115" cy="197.595" r="4.595" fill="#9098ff"/><rect x="294.0952380952381" y="183.8095238095238" width="18.38095238095238" height="18.38095238095238" fill="#ffffff"/><circle cx="298.69500000000005" cy="188.405" r="4.595" fill="#959dff"/><circle cx="307.88500000000005" cy="188.405" r="4.595" fill="#95c4b9"/><circle cx="298.69500000000005" cy="197.595" r="4.595" fill="#61a697"/><circle cx="307.88500000000005" cy="197.595" r="4.595" fill="#b8bcff"/><rect x="312.4761904761905" y="183.8095238095238" width="18.38095238095238" height="18.38095238095238" fill="#ffffff"/><circle cx="317.07500000000005" cy="188.405" r="4.595" fill="#edf5f3"/><circle cx="326.26500000000004" cy="188.405" r="4.595" fill="#328c77"/><circle cx="317.07500000000005" cy="197.595" r="4.595" fill="#f3f4ff"/><circle cx="326.26500000000004" cy="197.595" r="4.595" fill="#1f816b"/><rect x="330.85714285714283" y="183.8095238095238" width="18.38095238095238" height="18.38095238095238" fill="#ffffff"/><circle cx="335.45500000000004" cy="188.405" r="4.595" fill="#ecf4f3"/><circle cx="344.64500000000004" cy="188.405" r="4.595" fill="#d6e8e4"/><circle cx="335.45500000000004" cy="197.595" r="4.595" fill="#a5ccc3"/><circle cx="344.64500000000004" cy="197.595" r="4.595" fill="#157c65"/><rect x="349.2380952380952" y="183.8095238095238" width="18.38095238095238" height="18.38095238095238" fill="#ffffff"/><circle cx="353.83500000000004" cy="188.405" r="4.595" fill="#90c1b6"/><circle cx="363.02500000000003" cy="188.405" r="4.595" fill="#717bff"/><circle cx="353.83500000000004" cy="197.595" r="4.595" fill="#fbfdfc"/><circle cx="363.02500000000003" cy="197.595" r="4.595" fill="#8abdb1"/><rect x="367.6190476190476" y="183.8095238095238" width="18.38095238095238" height="18.38095238095238" fill="#ffffff"/><circle cx="372.21500000000003" cy="188.405" r="4.595" fill="#fbfbff"/><circle cx="381.40500000000003" cy="188.405" r="4.595" fill="#7ab4a7"/><circle cx="372.21500000000003" cy="197.595" r="4.595" fill="#e5e7ff"/><circle cx="381.40500000000003" cy="197.595" r="4.595" fill="#81b8ab"/><rect x="386" y="183.8095238095238" width="18.38095238095238" height="18.38095238095238" fill="#ffffff"/><circle cx="390.595" cy="188.405" r="4.595" fill="#ced1ff"/><circle cx="399.785" cy="188.405" r="4.595" fill="#167c65"/><circle cx="390.595" cy="197.595" r="4.595" fill="#cae1dc"/><circle cx="399.785" cy="197.595" r="4.595" fill="#d0d4ff"/><rect x="404.38095238095235" y="183.8095238095238" width="18.38095238095238" height="18.38095238095238" fill="#ffffff"/><circle cx="408.975" cy="188.405" r="4.595" fill="#adb3ff"/><circle cx="418.165" cy="188.405" r="4.595" fill="#3a48ff"/><circle cx="408.975" cy="197.595" r="4.595" fill="#414eff"/><circle cx="418.165" cy="197.595" r="4.595" fill="#288671"/><rect x="422.7619047619047" y="183.8095238095238" width="18.38095238095238" height="18.38095238095238" fill="#ffffff"/><circle cx="427.355" cy="188.405" r="4.595" fill="#3b48ff"/><circle cx="436.545" cy="188.405" r="4.595" fill="#90c1b6"/><circle cx="427.355" cy="197.595" r="4.595" fill="#c6caff"/><circle cx="436.545" cy="197.595" r="4.595" fill="#107961"/><rect x="441.1428571428571" y="183.8095238095238" width="18.38095238095238" height="18.38095238095238" fill="#ffffff"/><circle cx="445.735" cy="188.405" r="4.595" fill="#b3b8ff"/><circle cx="454.925" cy="188.405" r="4.595" fill="#c8e0db"/><circle cx="445.735" cy="197.595" r="4.595" fill="#b0d3cb"/><circle cx="454.925" cy="197.595" r="4.595" fill="#f6f6ff"/><rect x="459.5238095238095" y="183.8095238095238" width="18.38095238095238" height="18.38095238095238" fill="#ffffff"/><circle cx="464.115" cy="188.405" r="4.595" fill="#acd1c8"/><circle cx="473.305" cy="188.405" r="4.595" fill="#84baad"/><circle cx="464.115" cy="197.595" r="4.595" fill="#99a0ff"/><circle cx="473.305" cy="197.595" r="4.595" fill="#b9beff"/><rect x="477.90476190476187" y="183.8095238095238" width="18.38095238095238" height="18.38095238095238" fill="#ffffff"/><circle cx="482.495" cy="188.405" r="4.595" fill="#0e7860"/><circle cx="491.69500000000005" cy="188.405" r="4.595" fill="#b4d5cd"/><circle cx="482.495" cy="197.595" r="4.595" fill="#c4c8ff"/><circle cx="491.69500000000005" cy="197.595" r="4.595" fill="#a1a7ff"/><rect x="496.2857142857142" y="183.8095238095238" width="18.38095238095238" height="18.38095238095238" fill="#ffffff"/><circle cx="500.88500000000005" cy="188.405" r="4.595" fill="#89bdb1"/><circle cx="510.07500000000005" cy="188.405" r="4.595" fill="#6faea0"/><circle cx="500.88500000000005" cy="197.595" r="4.595" fill="#fbfbff"/><circle cx="510.07500000000005" cy="197.595" r="4.595" fill="#197e67"/><rect x="514.6666666666666" y="183.8095238095238" width="18.38095238095238" height="18.38095238095238" fill="#ffffff"/><circle cx="519.265" cy="188.405" r="4.595" fill="#9dc8be"/><circle cx="528.455" cy="188.405" r="4.595" fill="#0e7760"/><circle cx="519.265" cy="197.595" r="4.595" fill="#8ebfb4"/><circle cx="528.455" cy="197.595" r="4.595" fill="#f5f6ff"/><rect x="569.8095238095237" y="183.8095238095238" width="18.38095238095238" height="18.38095238095238" fill="#ffffff"/><circle cx="574.405" cy="188.405" r="4.595" fill="#dde0ff"/><circle cx="583.595" cy="188.405" r="4.595" fill="#5f6aff"/><circle cx="574.405" cy="197.595" r="4.595" fill="#f0f7f5"/><rect x="588.1904761904761" y="183.8095238095238" width="18.38095238095238" height="18.38095238095238" fill="#ffffff"/><circle cx="592.7850000000001" cy="188.405" r="4.595" fill="#93c2b8"/><circle cx="601.975" cy="188.405" r="4.595" fill="#c5ded8"/><circle cx="592.7850000000001" cy="197.595" r="4.595" fill="#fafaff"/><rect x="680.0952380952381" y="183.8095238095238" width="18.38095238095238" height="18.38095238095238" fill="#ffffff"/><circle cx="693.885" cy="197.595" r="4.595" fill="#c1c5ff"/><rect x="716.8571428571428" y="183.8095238095238" width="18.38095238095238" height="18.38095238095238" fill="#ffffff"/><rect x="91.9047619047619" y="202.19047619047618" width="18.38095238095238" height="18.38095238095238" fill="#ffffff"/><rect x="183.8095238095238" y="202.19047619047618" width="18.38095238095238" height="18.38095238095238" fill="#ffffff"/><circle cx="188.405" cy="215.975" r="4.595" fill="#459684"/><rect x="202.19047619047618" y="202.19047619047618" width="18.38095238095238" height="18.38095238095238" fill="#ffffff"/><circle cx="215.975" cy="215.975" r="4.595" fill="#525eff"/><rect x="220.57142857142856" y="202.19047619047618" width="18.38095238095238" height="18.38095238095238" fill="#ffffff"/><circle cx="225.165" cy="206.785" r="4.595" fill="#6d77ff"/><circle cx="225.165" cy="215.975" r="4.595" fill="#eff0ff"/><rect x="238.95238095238093" y="202.19047619047618" width="18.38095238095238" height="18.38095238095238" fill="#ffffff"/><circle cx="252.73499999999999" cy="206.785" r="4.595" fill="#aed1c9"/><circle cx="243.545" cy="215.975" r="4.595" fill="#57a190"/><circle cx="252.73499999999999" cy="215.975" r="4.595" fill="#e8f2f0"/><rect x="275.71428571428567" y="202.19047619047618" width="18.38095238095238" height="18.38095238095238" fill="#ffffff"/><circle cx="280.305" cy="206.785" r="4.595" fill="#b1d3cc"/><circle cx="289.495" cy="206.785" r="4.595" fill="#add1c9"/><circle cx="280.305" cy="215.975" r="4.595" fill="#7bb5a8"/><circle cx="289.495" cy="215.975" r="4.595" fill="#9ca3ff"/><rect x="294.0952380952381" y="202.19047619047618" width="18.38095238095238" height="18.38095238095238" fill="#ffffff"/><circle cx="307.88500000000005" cy="206.785" r="4.595" fill="#c4ded8"/><circle cx="307.88500000000005" cy="215.975" r="4.595" fill="#a0a7ff"/><rect x="312.4761904761905" y="202.19047619047618" width="18.38095238095238" height="18.38095238095238" fill="#ffffff"/><circle cx="317.07500000000005" cy="206.785" r="4.595" fill="#bddad3"/><circle cx="326.26500000000004" cy="206.785" r="4.595" fill="#e1eeeb"/><circle cx="317.07500000000005" cy="215.975" r="4.595" fill="#b4b9ff"/><circle cx="326.26500000000004" cy="215.975" r="4.595" fill="#b4d5cd"/><rect x="330.85714285714283" y="202.19047619047618" width="18.38095238095238" height="18.38095238095238" fill="#ffffff"/><circle cx="335.45500000000004" cy="206.785" r="4.595" fill="#6872ff"/><circle cx="344.64500000000004" cy="206.785" r="4.595" fill="#298772"/><circle cx="335.45500000000004" cy="215.975" r="4.595" fill="#479885"/><circle cx="344.64500000000004" cy="215.975" r="4.595" fill="#aab0ff"/><rect x="349.2380952380952" y="202.19047619047618" width="18.38095238095238" height="18.38095238095238" fill="#ffffff"/><circle cx="353.83500000000004" cy="206.785" r="4.595" fill="#5a65ff"/><circle cx="363.02500000000003" cy="206.785" r="4.595" fill="#89bdb1"/><circle cx="353.83500000000004" cy="215.975" r="4.595" fill="#4b57ff"/><circle cx="363.02500000000003" cy="215.975" r="4.595" fill="#7bb5a8"/><rect x="367.6190476190476" y="202.19047619047618" width="18.38095238095238" height="18.38095238095238" fill="#ffffff"/><circle cx="372.21500000000003" cy="206.785" r="4.595" fill="#bbc0ff"/><circle cx="381.40500000000003" cy="206.785" r="4.595" fill="#a3cbc2"/><circle cx="372.21500000000003" cy="215.975" r="4.595" fill="#d0e5e0"/><circle cx="381.40500000000003" cy="215.975" r="4.595" fill="#edeeff"/><rect x="386" y="202.19047619047618" width="18.38095238095238" height="18.38095238095238" fill="#ffffff"/><circle cx="390.595" cy="206.785" r="4.595" fill="#9ec9bf"/><circle cx="399.785" cy="206.785" r="4.595" fill="#cfe4df"/><circle cx="390.595" cy="215.975" r="4.595" fill="#bbc0ff"/><circle cx="399.785" cy="215.975" r="4.595" fill="#9ea4ff"/><rect x="404.38095238095235" y="202.19047619047618" width="18.38095238095238" height="18.38095238095238" fill="#ffffff"/><circle cx="408.975" cy="206.785" r="4.595" fill="#bdc2ff"/><circle cx="418.165" cy="206.785" r="4.595" fill="#d0e5e0"/><circle cx="408.975" cy="215.975" r="4.595" fill="#2a8772"/><circle cx="418.165" cy="215.975" r="4.595" fill="#6e78ff"/><rect x="422.7619047619047" y="202.19047619047618" width="18.38095238095238" height="18.38095238095238" fill="#ffffff"/><circle cx="427.355" cy="206.785" r="4.595" fill="#f7f8ff"/><circle cx="436.545" cy="206.785" r="4.595" fill="#8890ff"/><circle cx="427.355" cy="215.975" r="4.595" fill="#414eff"/><circle cx="436.545" cy="215.975" r="4.595" fill="#b6bbff"/><rect x="441.1428571428571" y="202.19047619047618" width="18.38095238095238" height="18.38095238095238" fill="#ffffff"/><circle cx="445.735" cy="206.785" r="4.595" fill="#278570"/><circle cx="454.925" cy="206.785" r="4.595" fill="#c1dcd6"/><circle cx="445.735" cy="215.975" r="4.595" fill="#eff0ff"/><circle cx="454.925" cy="215.975" r="4.595" fill="#85bbae"/><rect x="459.5238095238095" y="202.19047619047618" width="18.38095238095238" height="18.38095238095238" fill="#ffffff"/><circle cx="464.115" cy="206.785" r="4.595" fill="#a2cbc1"/><circle cx="473.305" cy="206.785" r="4.595" fill="#bfdbd5"/><circle cx="464.115" cy="215.975" r="4.595" fill="#5fa595"/><circle cx="473.305" cy="215.975" r="4.595" fill="#ddece9"/><rect x="477.90476190476187" y="202.19047619047618" width="18.38095238095238" height="18.38095238095238" fill="#ffffff"/><circle cx="482.495" cy="206.785" r="4.595" fill="#7fb7aa"/><circle cx="491.69500000000005" cy="206.785" r="4.595" fill="#7a83ff"/><circle cx="482.495" cy="215.975" r="4.595" fill="#d1d4ff"/><circle cx="491.69500000000005" cy="215.975" r="4.595" fill="#9aa1ff"/><rect x="496.2857142857142" y="202.19047619047618" width="18.38095238095238" height="18.38095238095238" fill="#ffffff"/><circle cx="500.88500000000005" cy="206.785" r="4.595" fill="#858dff"/><circle cx="510.07500000000005" cy="206.785" r="4.595" fill="#489886"/><circle cx="500.88500000000005" cy="215.975" r="4.595" fill="#636eff"/><circle cx="510.07500000000005" cy="215.975" r="4.595" fill="#d2e6e1"/><rect x="514.6666666666666" y="202.19047619047618" width="18.38095238095238" height="18.38095238095238" fill="#ffffff"/><circle cx="519.265" cy="206.785" r="4.595" fill="#868eff"/><circle cx="528.455" cy="206.785" r="4.595" fill="#71afa1"/><circle cx="519.265" cy="215.975" r="4.595" fill="#4f5bff"/><circle cx="528.455" cy="215.975" r="4.595" fill="#3542ff"/><rect x="533.047619047619" y="202.19047619047618" width="18.38095238095238" height="18.38095238095238" fill="#ffffff"/><circle cx="537.645" cy="206.785" r="4.595" fill="#cfe4df"/><circle cx="546.835" cy="206.785" r="4.595" fill="#a7adff"/><circle cx="537.645" cy="215.975" r="4.595" fill="#abd0c7"/><circle cx="546.835" cy="215.975" r="4.595" fill="#505cff"/><rect x="551.4285714285713" y="202.19047619047618" width="18.38095238095238" height="18.38095238095238" fill="#ffffff"/><circle cx="565.215" cy="206.785" r="4.595" fill="#c9ccff"/><circle cx="556.025" cy="215.975" r="4.595" fill="#1f816b"/><circle cx="565.215" cy="215.975" r="4.595" fill="#cbcfff"/><rect x="569.8095238095237" y="202.19047619047618" width="18.38095238095238" height="18.38095238095238" fill="#ffffff"/><circle cx="574.405" cy="206.785" r="4.595" fill="#92c2b7"/><circle cx="574.405" cy="215.975" r="4.595" fill="#7ab4a7"/><circle cx="583.595" cy="215.975" r="4.595" fill="#9ac6bc"/><rect x="588.1904761904761" y="202.19047619047618" width="18.38095238095238" height="18.38095238095238" fill="#ffffff"/><circle cx="601.975" cy="206.785" r="4.595" fill="#e8f2ef"/><rect x="606.5714285714286" y="202.19047619047618" width="18.38095238095238" height="18.38095238095238" fill="#ffffff"/><circle cx="611.1650000000001" cy="215.975" r="4.595" fill="#ffffff"/><circle cx="620.355" cy="215.975" r="4.595" fill="#eef5f4"/><rect x="624.952380952381" y="202.19047619047618" width="18.38095238095238" height="18.38095238095238" fill="#ffffff"/><circle cx="638.735" cy="206.785" r="4.595" fill="#dcdeff"/><circle cx="638.735" cy="215.975" r="4.595" fill="#bfdbd5"/><rect x="643.3333333333333" y="202.19047619047618" width="18.38095238095238" height="18.38095238095238" fill="#ffffff"/><circle cx="647.9250000000001" cy="206.785" r="4.595" fill="#cde3de"/><circle cx="657.115" cy="206.785" r="4.595" fill="#3e9380"/><circle cx="647.9250000000001" cy="215.975" r="4.595" fill="#298772"/><rect x="661.7142857142857" y="202.19047619047618" width="18.38095238095238" height="18.38095238095238" fill="#ffffff"/><circle cx="666.3050000000001" cy="206.785" r="4.595" fill="#409481"/><circle cx="675.495" cy="206.785" r="4.595" fill="#dbddff"/><circle cx="675.495" cy="215.975" r="4.595" fill="#d2e6e1"/><rect x="716.8571428571428" y="202.19047619047618" width="18.38095238095238" height="18.38095238095238" fill="#ffffff"/><circle cx="721.455" cy="206.785" r="4.595" fill="#b8bdff"/><circle cx="730.645" cy="206.785" r="4.595" fill="#4f9c8a"/><rect x="128.66666666666666" y="220.57142857142856" width="18.38095238095238" height="18.38095238095238" fill="#ffffff"/><circle cx="142.455" cy="225.165" r="4.595" fill="#6d77ff"/><circle cx="133.265" cy="234.355" r="4.595" fill="#6974ff"/><rect x="147.04761904761904" y="220.57142857142856" width="18.38095238095238" height="18.38095238095238" fill="#ffffff"/><circle cx="151.645" cy="225.165" r="4.595" fill="#f8f9ff"/><circle cx="160.835" cy="234.355" r="4.595" fill="#515dff"/><rect x="165.42857142857142" y="220.57142857142856" width="18.38095238095238" height="18.38095238095238" fill="#ffffff"/><circle cx="179.215" cy="225.165" r="4.595" fill="#e0e2ff"/><circle cx="170.025" cy="234.355" r="4.595" fill="#afb4ff"/><circle cx="179.215" cy="234.355" r="4.595" fill="#e3efec"/><rect x="183.8095238095238" y="220.57142857142856" width="18.38095238095238" height="18.38095238095238" fill="#ffffff"/><rect x="202.19047619047618" y="220.57142857142856" width="18.38095238095238" height="18.38095238095238" fill="#ffffff"/><circle cx="206.785" cy="234.355" r="4.595" fill="#727cff"/><circle cx="215.975" cy="234.355" r="4.595" fill="#0e7860"/><rect x="220.57142857142856" y="220.57142857142856" width="18.38095238095238" height="18.38095238095238" fill="#ffffff"/><circle cx="225.165" cy="225.165" r="4.595" fill="#4d59ff"/><circle cx="234.355" cy="225.165" r="4.595" fill="#848cff"/><circle cx="225.165" cy="234.355" r="4.595" fill="#d8e9e5"/><rect x="238.95238095238093" y="220.57142857142856" width="18.38095238095238" height="18.38095238095238" fill="#ffffff"/><circle cx="243.545" cy="225.165" r="4.595" fill="#6bac9d"/><circle cx="252.73499999999999" cy="225.165" r="4.595" fill="#7680ff"/><circle cx="243.545" cy="234.355" r="4.595" fill="#7c85ff"/><circle cx="252.73499999999999" cy="234.355" r="4.595" fill="#cbcfff"/><rect x="257.3333333333333" y="220.57142857142856" width="18.38095238095238" height="18.38095238095238" fill="#ffffff"/><circle cx="261.925" cy="225.165" r="4.595" fill="#3845ff"/><circle cx="271.115" cy="225.165" r="4.595" fill="#fbfdfd"/><circle cx="261.925" cy="234.355" r="4.595" fill="#8bbeb2"/><circle cx="271.115" cy="234.355" r="4.595" fill="#a9cfc6"/><rect x="312.4761904761905" y="220.57142857142856" width="18.38095238095238" height="18.38095238095238" fill="#ffffff"/><circle cx="317.07500000000005" cy="225.165" r="4.595" fill="#4b57ff"/><circle cx="326.26500000000004" cy="225.165" r="4.595" fill="#2d8974"/><circle cx="317.07500000000005" cy="234.355" r="4.595" fill="#bddad3"/><circle cx="326.26500000000004" cy="234.355" r="4.595" fill="#ced1ff"/><rect x="330.85714285714283" y="220.57142857142856" width="18.38095238095238" height="18.38095238095238" fill="#ffffff"/><circle cx="335.45500000000004" cy="225.165" r="4.595" fill="#6faea0"/><circle cx="344.64500000000004" cy="225.165" r="4.595" fill="#d2e6e1"/><circle cx="335.45500000000004" cy="234.355" r="4.595" fill="#e2e4ff"/><circle cx="344.64500000000004" cy="234.355" r="4.595" fill="#3c49ff"/><rect x="349.2380952380952" y="220.57142857142856" width="18.38095238095238" height="18.38095238095238" fill="#ffffff"/><circle cx="353.83500000000004" cy="225.165" r="4.595" fill="#5460ff"/><circle cx="363.02500000000003" cy="225.165" r="4.595" fill="#b0d2cb"/><circle cx="353.83500000000004" cy="234.355" r="4.595" fill="#b7bcff"/><circle cx="363.02500000000003" cy="234.355" r="4.595" fill="#bcd9d3"/><rect x="367.6190476190476" y="220.57142857142856" width="18.38095238095238" height="18.38095238095238" fill="#ffffff"/><circle cx="372.21500000000003" cy="225.165" r="4.595" fill="#7db6a9"/><circle cx="381.40500000000003" cy="225.165" r="4.595" fill="#eeefff"/><circle cx="372.21500000000003" cy="234.355" r="4.595" fill="#d2d5ff"/><circle cx="381.40500000000003" cy="234.355" r="4.595" fill="#6670ff"/><rect x="386" y="220.57142857142856" width="18.38095238095238" height="18.38095238095238" fill="#ffffff"/><circle cx="390.595" cy="225.165" r="4.595" fill="#f5f6ff"/><circle cx="399.785" cy="225.165" r="4.595" fill="#8c94ff"/><circle cx="390.595" cy="234.355" r="4.595" fill="#656fff"/><circle cx="399.785" cy="234.355" r="4.595" fill="#858dff"/><rect x="404.38095238095235" y="220.57142857142856" width="18.38095238095238" height="18.38095238095238" fill="#ffffff"/><circle cx="408.975" cy="225.165" r="4.595" fill="#308b76"/><circle cx="418.165" cy="225.165" r="4.595" fill="#559f8e"/><circle cx="408.975" cy="234.355" r="4.595" fill="#b4b9ff"/><circle cx="418.165" cy="234.355" r="4.595" fill="#e9f3f1"/><rect x="422.7619047619047" y="220.57142857142856" width="18.38095238095238" height="18.38095238095238" fill="#ffffff"/><circle cx="427.355" cy="225.165" r="4.595" fill="#daeae6"/><circle cx="436.545" cy="225.165" r="4.595" fill="#25846f"/><circle cx="427.355" cy="234.355" r="4.595" fill="#3c917e"/><circle cx="436.545" cy="234.355" r="4.595" fill="#bcdad3"/><rect x="441.1428571428571" y="220.57142857142856" width="18.38095238095238" height="18.38095238095238" fill="#ffffff"/><circle cx="445.735" cy="225.165" r="4.595" fill="#969dff"/><circle cx="454.925" cy="225.165" r="4.595" fill="#e6e8ff"/><circle cx="445.735" cy="234.355" r="4.595" fill="#bec2ff"/><circle cx="454.925" cy="234.355" r="4.595" fill="#1d806a"/><rect x="459.5238095238095" y="220.57142857142856" width="18.38095238095238" height="18.38095238095238" fill="#ffffff"/><circle cx="464.115" cy="225.165" r="4.595" fill="#3c4aff"/><circle cx="473.305" cy="225.165" r="4.595" fill="#6973ff"/><circle cx="464.115" cy="234.355" r="4.595" fill="#dfedea"/><circle cx="473.305" cy="234.355" r="4.595" fill="#3b48ff"/><rect x="477.90476190476187" y="220.57142857142856" width="18.38095238095238" height="18.38095238095238" fill="#ffffff"/><circle cx="482.495" cy="225.165" r="4.595" fill="#bfdbd5"/><circle cx="491.69500000000005" cy="225.165" r="4.595" fill="#707aff"/><circle cx="482.495" cy="234.355" r="4.595" fill="#f2f3ff"/><circle cx="491.69500000000005" cy="234.355" r="4.595" fill="#b0b5ff"/><rect x="514.6666666666666" y="220.57142857142856" width="18.38095238095238" height="18.38095238095238" fill="#ffffff"/><circle cx="519.265" cy="225.165" r="4.595" fill="#f5f9f8"/><circle cx="528.455" cy="225.165" r="4.595" fill="#c6caff"/><circle cx="519.265" cy="234.355" r="4.595" fill="#eff0ff"/><circle cx="528.455" cy="234.355" r="4.595" fill="#22836d"/><rect x="533.047619047619" y="220.57142857142856" width="18.38095238095238" height="18.38095238095238" fill="#ffffff"/><circle cx="537.645" cy="225.165" r="4.595" fill="#56a090"/><circle cx="546.835" cy="225.165" r="4.595" fill="#8d95ff"/><circle cx="537.645" cy="234.355" r="4.595" fill="#93c3b8"/><circle cx="546.835" cy="234.355" r="4.595" fill="#147b64"/><rect x="551.4285714285713" y="220.57142857142856" width="18.38095238095238" height="18.38095238095238" fill="#ffffff"/><circle cx="556.025" cy="225.165" r="4.595" fill="#969dff"/><rect x="588.1904761904761" y="220.57142857142856" width="18.38095238095238" height="18.38095238095238" fill="#ffffff"/><circle cx="592.7850000000001" cy="225.165" r="4.595" fill="#4b57ff"/><circle cx="592.7850000000001" cy="234.355" r="4.595" fill="#949cff"/><circle cx="601.975" cy="234.355" r="4.595" fill="#5aa292"/><rect x="624.952380952381" y="220.57142857142856" width="18.38095238095238" height="18.38095238095238" fill="#ffffff"/><circle cx="629.5450000000001" cy="234.355" r="4.595" fill="#717bff"/><circle cx="638.735" cy="234.355" r="4.595" fill="#d4e7e3"/><rect x="661.7142857142857" y="220.57142857142856" width="18.38095238095238" height="18.38095238095238" fill="#ffffff"/><circle cx="666.3050000000001" cy="225.165" r="4.595" fill="#8cbeb3"/><circle cx="675.495" cy="234.355" r="4.595" fill="#f2f2ff"/><rect x="165.42857142857142" y="238.95238095238093" width="18.38095238095238" height="18.38095238095238" fill="#ffffff"/><circle cx="170.025" cy="243.545" r="4.595" fill="#57a190"/><circle cx="179.215" cy="243.545" r="4.595" fill="#aacfc7"/><circle cx="170.025" cy="252.73499999999999" r="4.595" fill="#4d9b89"/><circle cx="179.215" cy="252.73499999999999" r="4.595" fill="#acb2ff"/><rect x="238.95238095238093" y="238.95238095238093" width="18.38095238095238" height="18.38095238095238" fill="#ffffff"/><circle cx="252.73499999999999" cy="243.545" r="4.595" fill="#dbebe7"/><circle cx="243.545" cy="252.73499999999999" r="4.595" fill="#989fff"/><circle cx="252.73499999999999" cy="252.73499999999999" r="4.595" fill="#6670ff"/><rect x="294.0952380952381" y="238.95238095238093" width="18.38095238095238" height="18.38095238095238" fill="#ffffff"/><circle cx="298.69500000000005" cy="243.545" r="4.595" fill="#6aab9c"/><circle cx="307.88500000000005" cy="243.545" r="4.595" fill="#4754ff"/><circle cx="298.69500000000005" cy="252.73499999999999" r="4.595" fill="#d1e5e0"/><circle cx="307.88500000000005" cy="252.73499999999999" r="4.595" fill="#4c58ff"/><rect x="312.4761904761905" y="238.95238095238093" width="18.38095238095238" height="18.38095238095238" fill="#ffffff"/><circle cx="317.07500000000005" cy="243.545" r="4.595" fill="#757fff"/><circle cx="326.26500000000004" cy="243.545" r="4.595" fill="#3543ff"/><circle cx="317.07500000000005" cy="252.73499999999999" r="4.595" fill="#eef0ff"/><rect x="330.85714285714283" y="238.95238095238093" width="18.38095238095238" height="18.38095238095238" fill="#ffffff"/><circle cx="335.45500000000004" cy="243.545" r="4.595" fill="#6d77ff"/><circle cx="344.64500000000004" cy="243.545" r="4.595" fill="#8bbeb3"/><circle cx="335.45500000000004" cy="252.73499999999999" r="4.595" fill="#549f8e"/><circle cx="344.64500000000004" cy="252.73499999999999" r="4.595" fill="#c7dfda"/><rect x="349.2380952380952" y="238.95238095238093" width="18.38095238095238" height="18.38095238095238" fill="#ffffff"/><circle cx="353.83500000000004" cy="243.545" r="4.595" fill="#c1c5ff"/><circle cx="363.02500000000003" cy="243.545" r="4.595" fill="#6c76ff"/><circle cx="353.83500000000004" cy="252.73499999999999" r="4.595" fill="#afd2ca"/><circle cx="363.02500000000003" cy="252.73499999999999" r="4.595" fill="#8abdb2"/><rect x="367.6190476190476" y="238.95238095238093" width="18.38095238095238" height="18.38095238095238" fill="#ffffff"/><circle cx="372.21500000000003" cy="243.545" r="4.595" fill="#7a83ff"/><circle cx="381.40500000000003" cy="243.545" r="4.595" fill="#3341ff"/><circle cx="381.40500000000003" cy="252.73499999999999" r="4.595" fill="#a6cdc4"/><rect x="404.38095238095235" y="238.95238095238093" width="18.38095238095238" height="18.38095238095238" fill="#ffffff"/><circle cx="408.975" cy="243.545" r="4.595" fill="#7b84ff"/><circle cx="418.165" cy="243.545" r="4.595" fill="#acd1c8"/><circle cx="408.975" cy="252.73499999999999" r="4.595" fill="#8cbeb3"/><circle cx="418.165" cy="252.73499999999999" r="4.595" fill="#278670"/><rect x="422.7619047619047" y="238.95238095238093" width="18.38095238095238" height="18.38095238095238" fill="#ffffff"/><circle cx="427.355" cy="243.545" r="4.595" fill="#5da494"/><circle cx="436.545" cy="243.545" r="4.595" fill="#b9beff"/><circle cx="427.355" cy="252.73499999999999" r="4.595" fill="#a4ccc3"/><rect x="441.1428571428571" y="238.95238095238093" width="18.38095238095238" height="18.38095238095238" fill="#ffffff"/><circle cx="445.735" cy="243.545" r="4.595" fill="#308b76"/><circle cx="454.925" cy="243.545" r="4.595" fill="#b0b5ff"/><circle cx="445.735" cy="252.73499999999999" r="4.595" fill="#515dff"/><circle cx="454.925" cy="252.73499999999999" r="4.595" fill="#adb2ff"/><rect x="459.5238095238095" y="238.95238095238093" width="18.38095238095238" height="18.38095238095238" fill="#ffffff"/><circle cx="464.115" cy="243.545" r="4.595" fill="#39907c"/><circle cx="473.305" cy="243.545" r="4.595" fill="#b8bdff"/><circle cx="464.115" cy="252.73499999999999" r="4.595" fill="#a8aeff"/><circle cx="473.305" cy="252.73499999999999" r="4.595" fill="#83b9ad"/><rect x="477.90476190476187" y="238.95238095238093" width="18.38095238095238" height="18.38095238095238" fill="#ffffff"/><circle cx="482.495" cy="243.545" r="4.595" fill="#727cff"/><circle cx="491.69500000000005" cy="243.545" r="4.595" fill="#c1c6ff"/><rect x="496.2857142857142" y="238.95238095238093" width="18.38095238095238" height="18.38095238095238" fill="#ffffff"/><circle cx="500.88500000000005" cy="243.545" r="4.595" fill="#dfe1ff"/><circle cx="510.07500000000005" cy="243.545" r="4.595" fill="#5460ff"/><circle cx="500.88500000000005" cy="252.73499999999999" r="4.595" fill="#1d8069"/><circle cx="510.07500000000005" cy="252.73499999999999" r="4.595" fill="#268570"/><rect x="533.047619047619" y="238.95238095238093" width="18.38095238095238" height="18.38095238095238" fill="#ffffff"/><circle cx="537.645" cy="243.545" r="4.595" fill="#167c65"/><circle cx="546.835" cy="243.545" r="4.595" fill="#75b1a4"/><circle cx="537.645" cy="252.73499999999999" r="4.595" fill="#4a9988"/><circle cx="546.835" cy="252.73499999999999" r="4.595" fill="#6eae9f"/><rect x="551.4285714285713" y="238.95238095238093" width="18.38095238095238" height="18.38095238095238" fill="#ffffff"/><circle cx="556.025" cy="243.545" r="4.595" fill="#f3f3ff"/><circle cx="565.215" cy="243.545" r="4.595" fill="#3442ff"/><rect x="569.8095238095237" y="238.95238095238093" width="18.38095238095238" height="18.38095238095238" fill="#ffffff"/><circle cx="574.405" cy="243.545" r="4.595" fill="#8cbeb3"/><circle cx="574.405" cy="252.73499999999999" r="4.595" fill="#72b0a2"/><circle cx="583.595" cy="252.73499999999999" r="4.595" fill="#70afa1"/><rect x="588.1904761904761" y="238.95238095238093" width="18.38095238095238" height="18.38095238095238" fill="#ffffff"/><circle cx="601.975" cy="252.73499999999999" r="4.595" fill="#a0a7ff"/><rect x="73.52380952380952" y="257.3333333333333" width="18.38095238095238" height="18.38095238095238" fill="#ffffff"/><rect x="91.9047619047619" y="257.3333333333333" width="18.38095238095238" height="18.38095238095238" fill="#ffffff"/><rect x="128.66666666666666" y="257.3333333333333" width="18.38095238095238" height="18.38095238095238" fill="#ffffff"/><circle cx="142.455" cy="261.925" r="4.595" fill="#157b64"/><circle cx="142.455" cy="271.115" r="4.595" fill="#f0f1ff"/><rect x="183.8095238095238" y="257.3333333333333" width="18.38095238095238" height="18.38095238095238" fill="#ffffff"/><rect x="202.19047619047618" y="257.3333333333333" width="18.38095238095238" height="18.38095238095238" fill="#ffffff"/><circle cx="215.975" cy="271.115" r="4.595" fill="#737dff"/><rect x="238.95238095238093" y="257.3333333333333" width="18.38095238095238" height="18.38095238095238" fill="#ffffff"/><circle cx="243.545" cy="261.925" r="4.595" fill="#c9cdff"/><circle cx="252.73499999999999" cy="261.925" r="4.595" fill="#4f5bff"/><circle cx="252.73499999999999" cy="271.115" r="4.595" fill="#72b0a2"/><rect x="257.3333333333333" y="257.3333333333333" width="18.38095238095238" height="18.38095238095238" fill="#ffffff"/><circle cx="261.925" cy="261.925" r="4.595" fill="#c8e0db"/><rect x="275.71428571428567" y="257.3333333333333" width="18.38095238095238" height="18.38095238095238" fill="#ffffff"/><circle cx="289.495" cy="261.925" r="4.595" fill="#66a99a"/><circle cx="280.305" cy="271.115" r="4.595" fill="#167c65"/><circle cx="289.495" cy="271.115" r="4.595" fill="#69ab9c"/><rect x="294.0952380952381" y="257.3333333333333" width="18.38095238095238" height="18.38095238095238" fill="#ffffff"/><circle cx="298.69500000000005" cy="261.925" r="4.595" fill="#39907c"/><circle cx="307.88500000000005" cy="261.925" r="4.595" fill="#424fff"/><rect x="330.85714285714283" y="257.3333333333333" width="18.38095238095238" height="18.38095238095238" fill="#ffffff"/><circle cx="335.45500000000004" cy="271.115" r="4.595" fill="#7fb7aa"/><circle cx="344.64500000000004" cy="271.115" r="4.595" fill="#bbc0ff"/><rect x="349.2380952380952" y="257.3333333333333" width="18.38095238095238" height="18.38095238095238" fill="#ffffff"/><circle cx="353.83500000000004" cy="271.115" r="4.595" fill="#3d4aff"/><rect x="367.6190476190476" y="257.3333333333333" width="18.38095238095238" height="18.38095238095238" fill="#ffffff"/><circle cx="372.21500000000003" cy="261.925" r="4.595" fill="#449683"/><circle cx="381.40500000000003" cy="261.925" r="4.595" fill="#a5ccc4"/><circle cx="372.21500000000003" cy="271.115" r="4.595" fill="#818aff"/><circle cx="381.40500000000003" cy="271.115" r="4.595" fill="#288671"/><rect x="386" y="257.3333333333333" width="18.38095238095238" height="18.38095238095238" fill="#ffffff"/><circle cx="390.595" cy="261.925" r="4.595" fill="#ebedff"/><circle cx="390.595" cy="271.115" r="4.595" fill="#529e8d"/><circle cx="399.785" cy="271.115" r="4.595" fill="#197e67"/><rect x="404.38095238095235" y="257.3333333333333" width="18.38095238095238" height="18.38095238095238" fill="#ffffff"/><circle cx="408.975" cy="261.925" r="4.595" fill="#83b9ad"/><circle cx="418.165" cy="261.925" r="4.595" fill="#9fa6ff"/><circle cx="408.975" cy="271.115" r="4.595" fill="#99a0ff"/><circle cx="418.165" cy="271.115" r="4.595" fill="#9fc9c0"/><rect x="422.7619047619047" y="257.3333333333333" width="18.38095238095238" height="18.38095238095238" fill="#ffffff"/><circle cx="427.355" cy="271.115" r="4.595" fill="#8abdb1"/><circle cx="436.545" cy="271.115" r="4.595" fill="#5b67ff"/><rect x="441.1428571428571" y="257.3333333333333" width="18.38095238095238" height="18.38095238095238" fill="#ffffff"/><circle cx="454.925" cy="261.925" r="4.595" fill="#388f7c"/><circle cx="445.735" cy="271.115" r="4.595" fill="#25846f"/><circle cx="454.925" cy="271.115" r="4.595" fill="#d3e6e2"/><rect x="459.5238095238095" y="257.3333333333333" width="18.38095238095238" height="18.38095238095238" fill="#ffffff"/><circle cx="464.115" cy="271.115" r="4.595" fill="#9ca3ff"/><circle cx="473.305" cy="271.115" r="4.595" fill="#3a47ff"/><rect x="477.90476190476187" y="257.3333333333333" width="18.38095238095238" height="18.38095238095238" fill="#ffffff"/><circle cx="482.495" cy="261.925" r="4.595" fill="#bcc1ff"/><circle cx="491.69500000000005" cy="261.925" r="4.595" fill="#62a797"/><circle cx="482.495" cy="271.115" r="4.595" fill="#767fff"/><circle cx="491.69500000000005" cy="271.115" r="4.595" fill="#8089ff"/><rect x="496.2857142857142" y="257.3333333333333" width="18.38095238095238" height="18.38095238095238" fill="#ffffff"/><circle cx="500.88500000000005" cy="261.925" r="4.595" fill="#3f4cff"/><rect x="551.4285714285713" y="257.3333333333333" width="18.38095238095238" height="18.38095238095238" fill="#ffffff"/><circle cx="556.025" cy="261.925" r="4.595" fill="#94c3b8"/><circle cx="565.215" cy="261.925" r="4.595" fill="#cae1dc"/><circle cx="565.215" cy="271.115" r="4.595" fill="#6570ff"/><rect x="588.1904761904761" y="257.3333333333333" width="18.38095238095238" height="18.38095238095238" fill="#ffffff"/><circle cx="592.7850000000001" cy="261.925" r="4.595" fill="#55a08f"/><circle cx="592.7850000000001" cy="271.115" r="4.595" fill="#368e7a"/><circle cx="601.975" cy="271.115" r="4.595" fill="#e5e6ff"/><rect x="606.5714285714286" y="257.3333333333333" width="18.38095238095238" height="18.38095238095238" fill="#ffffff"/><circle cx="620.355" cy="261.925" r="4.595" fill="#6cac9e"/><circle cx="611.1650000000001" cy="271.115" r="4.595" fill="#818aff"/><circle cx="620.355" cy="271.115" r="4.595" fill="#6974ff"/><rect x="661.7142857142857" y="257.3333333333333" width="18.38095238095238" height="18.38095238095238" fill="#ffffff"/><circle cx="675.495" cy="261.925" r="4.595" fill="#e9f3f0"/><rect x="698.4761904761904" y="257.3333333333333" width="18.38095238095238" height="18.38095238095238" fill="#ffffff"/><circle cx="712.265" cy="271.115" r="4.595" fill="#afd2ca"/><rect x="165.42857142857142" y="275.71428571428567" width="18.38095238095238" height="18.38095238095238" fill="#ffffff"/><circle cx="170.025" cy="280.305" r="4.595" fill="#a6acff"/><circle cx="170.025" cy="289.495" r="4.595" fill="#197e67"/><circle cx="179.215" cy="289.495" r="4.595" fill="#5ba392"/><rect x="202.19047619047618" y="275.71428571428567" width="18.38095238095238" height="18.38095238095238" fill="#ffffff"/><circle cx="215.975" cy="280.305" r="4.595" fill="#4551ff"/><rect x="275.71428571428567" y="275.71428571428567" width="18.38095238095238" height="18.38095238095238" fill="#ffffff"/><circle cx="280.305" cy="280.305" r="4.595" fill="#3745ff"/><circle cx="280.305" cy="289.495" r="4.595" fill="#a1cac1"/><rect x="312.4761904761905" y="275.71428571428567" width="18.38095238095238" height="18.38095238095238" fill="#ffffff"/><circle cx="326.26500000000004" cy="280.305" r="4.595" fill="#9299ff"/><circle cx="317.07500000000005" cy="289.495" r="4.595" fill="#2d8974"/><rect x="330.85714285714283" y="275.71428571428567" width="18.38095238095238" height="18.38095238095238" fill="#ffffff"/><circle cx="344.64500000000004" cy="280.305" r="4.595" fill="#c2ddd6"/><circle cx="335.45500000000004" cy="289.495" r="4.595" fill="#f1f2ff"/><rect x="349.2380952380952" y="275.71428571428567" width="18.38095238095238" height="18.38095238095238" fill="#ffffff"/><circle cx="363.02500000000003" cy="280.305" r="4.595" fill="#aacfc7"/><circle cx="353.83500000000004" cy="289.495" r="4.595" fill="#5662ff"/><circle cx="363.02500000000003" cy="289.495" r="4.595" fill="#d3d6ff"/><rect x="367.6190476190476" y="275.71428571428567" width="18.38095238095238" height="18.38095238095238" fill="#ffffff"/><circle cx="372.21500000000003" cy="280.305" r="4.595" fill="#d6e8e4"/><circle cx="372.21500000000003" cy="289.495" r="4.595" fill="#4d9b89"/><circle cx="381.40500000000003" cy="289.495" r="4.595" fill="#3c4aff"/><rect x="386" y="275.71428571428567" width="18.38095238095238" height="18.38095238095238" fill="#ffffff"/><circle cx="390.595" cy="280.305" r="4.595" fill="#69ab9c"/><circle cx="399.785" cy="280.305" r="4.595" fill="#6cad9e"/><circle cx="399.785" cy="289.495" r="4.595" fill="#f1f2ff"/><rect x="422.7619047619047" y="275.71428571428567" width="18.38095238095238" height="18.38095238095238" fill="#ffffff"/><circle cx="436.545" cy="280.305" r="4.595" fill="#edeeff"/><circle cx="436.545" cy="289.495" r="4.595" fill="#4c9a88"/><rect x="441.1428571428571" y="275.71428571428567" width="18.38095238095238" height="18.38095238095238" fill="#ffffff"/><circle cx="445.735" cy="289.495" r="4.595" fill="#969eff"/><rect x="477.90476190476187" y="275.71428571428567" width="18.38095238095238" height="18.38095238095238" fill="#ffffff"/><circle cx="482.495" cy="280.305" r="4.595" fill="#8991ff"/><circle cx="491.69500000000005" cy="280.305" r="4.595" fill="#aacfc7"/><circle cx="482.495" cy="289.495" r="4.595" fill="#656fff"/><rect x="496.2857142857142" y="275.71428571428567" width="18.38095238095238" height="18.38095238095238" fill="#ffffff"/><circle cx="500.88500000000005" cy="280.305" r="4.595" fill="#4d59ff"/><circle cx="500.88500000000005" cy="289.495" r="4.595" fill="#a9afff"/><circle cx="510.07500000000005" cy="289.495" r="4.595" fill="#4b58ff"/><rect x="514.6666666666666" y="275.71428571428567" width="18.38095238095238" height="18.38095238095238" fill="#ffffff"/><circle cx="519.265" cy="280.305" r="4.595" fill="#3e4cff"/><circle cx="528.455" cy="280.305" r="4.595" fill="#fcfdff"/><circle cx="519.265" cy="289.495" r="4.595" fill="#76b2a4"/><circle cx="528.455" cy="289.495" r="4.595" fill="#89bdb1"/><rect x="533.047619047619" y="275.71428571428567" width="18.38095238095238" height="18.38095238095238" fill="#ffffff"/><circle cx="537.645" cy="280.305" r="4.595" fill="#92c1b7"/><circle cx="546.835" cy="280.305" r="4.595" fill="#b0b6ff"/><circle cx="537.645" cy="289.495" r="4.595" fill="#429582"/><circle cx="546.835" cy="289.495" r="4.595" fill="#bad8d2"/><rect x="588.1904761904761" y="275.71428571428567" width="18.38095238095238" height="18.38095238095238" fill="#ffffff"/><circle cx="592.7850000000001" cy="280.305" r="4.595" fill="#8fc0b5"/><circle cx="601.975" cy="280.305" r="4.595" fill="#4b9a88"/><circle cx="601.975" cy="289.495" r="4.595" fill="#eaebff"/><rect x="643.3333333333333" y="275.71428571428567" width="18.38095238095238" height="18.38095238095238" fill="#ffffff"/><circle cx="647.9250000000001" cy="289.495" r="4.595" fill="#519d8c"/><rect x="698.4761904761904" y="275.71428571428567" width="18.38095238095238" height="18.38095238095238" fill="#ffffff"/><circle cx="712.265" cy="280.305" r="4.595" fill="#8c94ff"/><circle cx="703.075" cy="289.495" r="4.595" fill="#c6caff"/><rect x="753.6190476190476" y="275.71428571428567" width="18.38095238095238" height="18.38095238095238" fill="#ffffff"/><rect x="36.76190476190476" y="294.0952380952381" width="18.38095238095238" height="18.38095238095238" fill="#ffffff"/><rect x="202.19047619047618" y="294.0952380952381" width="18.38095238095238" height="18.38095238095238" fill="#ffffff"/><circle cx="215.975" cy="298.69500000000005" r="4.595" fill="#22836d"/><circle cx="206.785" cy="307.88500000000005" r="4.595" fill="#9dc8be"/><circle cx="215.975" cy="307.88500000000005" r="4.595" fill="#409481"/><rect x="257.3333333333333" y="294.0952380952381" width="18.38095238095238" height="18.38095238095238" fill="#ffffff"/><circle cx="271.115" cy="298.69500000000005" r="4.595" fill="#6670ff"/><circle cx="271.115" cy="307.88500000000005" r="4.595" fill="#22836d"/><rect x="275.71428571428567" y="294.0952380952381" width="18.38095238095238" height="18.38095238095238" fill="#ffffff"/><circle cx="280.305" cy="298.69500000000005" r="4.595" fill="#7a83ff"/><circle cx="289.495" cy="307.88500000000005" r="4.595" fill="#a9afff"/><rect x="294.0952380952381" y="294.0952380952381" width="18.38095238095238" height="18.38095238095238" fill="#ffffff"/><circle cx="298.69500000000005" cy="298.69500000000005" r="4.595" fill="#77b3a5"/><circle cx="307.88500000000005" cy="298.69500000000005" r="4.595" fill="#e2e4ff"/><circle cx="298.69500000000005" cy="307.88500000000005" r="4.595" fill="#fcfcff"/><rect x="312.4761904761905" y="294.0952380952381" width="18.38095238095238" height="18.38095238095238" fill="#ffffff"/><circle cx="326.26500000000004" cy="298.69500000000005" r="4.595" fill="#60a696"/><rect x="367.6190476190476" y="294.0952380952381" width="18.38095238095238" height="18.38095238095238" fill="#ffffff"/><circle cx="372.21500000000003" cy="298.69500000000005" r="4.595" fill="#fbfdfc"/><circle cx="381.40500000000003" cy="298.69500000000005" r="4.595" fill="#3947ff"/><circle cx="381.40500000000003" cy="307.88500000000005" r="4.595" fill="#66a99a"/><rect x="386" y="294.0952380952381" width="18.38095238095238" height="18.38095238095238" fill="#ffffff"/><circle cx="399.785" cy="298.69500000000005" r="4.595" fill="#68aa9b"/><circle cx="399.785" cy="307.88500000000005" r="4.595" fill="#dcdeff"/><rect x="404.38095238095235" y="294.0952380952381" width="18.38095238095238" height="18.38095238095238" fill="#ffffff"/><circle cx="408.975" cy="298.69500000000005" r="4.595" fill="#e7e8ff"/><rect x="422.7619047619047" y="294.0952380952381" width="18.38095238095238" height="18.38095238095238" fill="#ffffff"/><circle cx="436.545" cy="298.69500000000005" r="4.595" fill="#f7faf9"/><circle cx="427.355" cy="307.88500000000005" r="4.595" fill="#69ab9c"/><rect x="441.1428571428571" y="294.0952380952381" width="18.38095238095238" height="18.38095238095238" fill="#ffffff"/><circle cx="445.735" cy="298.69500000000005" r="4.595" fill="#818aff"/><circle cx="454.925" cy="298.69500000000005" r="4.595" fill="#636dff"/><circle cx="445.735" cy="307.88500000000005" r="4.595" fill="#7780ff"/><rect x="496.2857142857142" y="294.0952380952381" width="18.38095238095238" height="18.38095238095238" fill="#ffffff"/><circle cx="510.07500000000005" cy="298.69500000000005" r="4.595" fill="#424fff"/><circle cx="500.88500000000005" cy="307.88500000000005" r="4.595" fill="#e3e5ff"/><rect x="514.6666666666666" y="294.0952380952381" width="18.38095238095238" height="18.38095238095238" fill="#ffffff"/><circle cx="528.455" cy="298.69500000000005" r="4.595" fill="#eff0ff"/><circle cx="519.265" cy="307.88500000000005" r="4.595" fill="#dbddff"/><rect x="533.047619047619" y="294.0952380952381" width="18.38095238095238" height="18.38095238095238" fill="#ffffff"/><circle cx="537.645" cy="298.69500000000005" r="4.595" fill="#a3a9ff"/><circle cx="546.835" cy="298.69500000000005" r="4.595" fill="#9dc8be"/><circle cx="537.645" cy="307.88500000000005" r="4.595" fill="#137b63"/><rect x="569.8095238095237" y="294.0952380952381" width="18.38095238095238" height="18.38095238095238" fill="#ffffff"/><circle cx="574.405" cy="298.69500000000005" r="4.595" fill="#969dff"/><circle cx="583.595" cy="298.69500000000005" r="4.595" fill="#414eff"/><circle cx="574.405" cy="307.88500000000005" r="4.595" fill="#9ba2ff"/><rect x="588.1904761904761" y="294.0952380952381" width="18.38095238095238" height="18.38095238095238" fill="#ffffff"/><circle cx="592.7850000000001" cy="298.69500000000005" r="4.595" fill="#127a62"/><circle cx="601.975" cy="298.69500000000005" r="4.595" fill="#747eff"/><circle cx="601.975" cy="307.88500000000005" r="4.595" fill="#3543ff"/><rect x="735.2380952380952" y="294.0952380952381" width="18.38095238095238" height="18.38095238095238" fill="#ffffff"/><rect x="753.6190476190476" y="294.0952380952381" width="18.38095238095238" height="18.38095238095238" fill="#ffffff"/><circle cx="767.405" cy="307.88500000000005" r="4.595" fill="#318b77"/><rect x="772" y="294.0952380952381" width="18.38095238095238" height="18.38095238095238" fill="#ffffff"/><rect x="36.76190476190476" y="312.4761904761905" width="18.38095238095238" height="18.38095238095238" fill="#ffffff"/><rect x="91.9047619047619" y="312.4761904761905" width="18.38095238095238" height="18.38095238095238" fill="#ffffff"/><rect x="128.66666666666666" y="312.4761904761905" width="18.38095238095238" height="18.38095238095238" fill="#ffffff"/><circle cx="133.265" cy="326.26500000000004" r="4.595" fill="#c4c8ff"/><rect x="147.04761904761904" y="312.4761904761905" width="18.38095238095238" height="18.38095238095238" fill="#ffffff"/><circle cx="160.835" cy="317.07500000000005" r="4.595" fill="#6d77ff"/><circle cx="151.645" cy="326.26500000000004" r="4.595" fill="#dbdeff"/><rect x="294.0952380952381" y="312.4761904761905" width="18.38095238095238" height="18.38095238095238" fill="#ffffff"/><rect x="367.6190476190476" y="312.4761904761905" width="18.38095238095238" height="18.38095238095238" fill="#ffffff"/><circle cx="381.40500000000003" cy="317.07500000000005" r="4.595" fill="#1e806a"/><rect x="441.1428571428571" y="312.4761904761905" width="18.38095238095238" height="18.38095238095238" fill="#ffffff"/><circle cx="454.925" cy="317.07500000000005" r="4.595" fill="#cde3de"/><rect x="606.5714285714286" y="312.4761904761905" width="18.38095238095238" height="18.38095238095238" fill="#ffffff"/><circle cx="620.355" cy="326.26500000000004" r="4.595" fill="#737cff"/><rect x="680.0952380952381" y="312.4761904761905" width="18.38095238095238" height="18.38095238095238" fill="#ffffff"/><circle cx="684.695" cy="317.07500000000005" r="4.595" fill="#b2d4cc"/><circle cx="684.695" cy="326.26500000000004" r="4.595" fill="#4350ff"/><circle cx="693.885" cy="326.26500000000004" r="4.595" fill="#6570ff"/><rect x="698.4761904761904" y="312.4761904761905" width="18.38095238095238" height="18.38095238095238" fill="#ffffff"/><circle cx="703.075" cy="326.26500000000004" r="4.595" fill="#56a08f"/><rect x="202.19047619047618" y="330.85714285714283" width="18.38095238095238" height="18.38095238095238" fill="#ffffff"/><rect x="312.4761904761905" y="330.85714285714283" width="18.38095238095238" height="18.38095238095238" fill="#ffffff"/><rect x="477.90476190476187" y="330.85714285714283" width="18.38095238095238" height="18.38095238095238" fill="#ffffff"/><circle cx="491.69500000000005" cy="335.45500000000004" r="4.595" fill="#4a56ff"/><circle cx="491.69500000000005" cy="344.64500000000004" r="4.595" fill="#d8e9e5"/><rect x="496.2857142857142" y="330.85714285714283" width="18.38095238095238" height="18.38095238095238" fill="#ffffff"/><circle cx="500.88500000000005" cy="335.45500000000004" r="4.595" fill="#5ba392"/><rect x="533.047619047619" y="330.85714285714283" width="18.38095238095238" height="18.38095238095238" fill="#ffffff"/><circle cx="537.645" cy="335.45500000000004" r="4.595" fill="#aeb3ff"/><circle cx="537.645" cy="344.64500000000004" r="4.595" fill="#f6f7ff"/><rect x="569.8095238095237" y="330.85714285714283" width="18.38095238095238" height="18.38095238095238" fill="#ffffff"/><circle cx="574.405" cy="344.64500000000004" r="4.595" fill="#9da4ff"/><rect x="165.42857142857142" y="349.2380952380952" width="18.38095238095238" height="18.38095238095238" fill="#ffffff"/><rect x="312.4761904761905" y="349.2380952380952" width="18.38095238095238" height="18.38095238095238" fill="#ffffff"/><circle cx="317.07500000000005" cy="353.83500000000004" r="4.595" fill="#f9f9ff"/><circle cx="326.26500000000004" cy="353.83500000000004" r="4.595" fill="#bcc0ff"/><rect x="441.1428571428571" y="349.2380952380952" width="18.38095238095238" height="18.38095238095238" fill="#ffffff"/><circle cx="454.925" cy="363.02500000000003" r="4.595" fill="#ffffff"/><rect x="496.2857142857142" y="349.2380952380952" width="18.38095238095238" height="18.38095238095238" fill="#ffffff"/><rect x="588.1904761904761" y="349.2380952380952" width="18.38095238095238" height="18.38095238095238" fill="#ffffff"/><circle cx="592.7850000000001" cy="353.83500000000004" r="4.595" fill="#147b63"/><rect x="643.3333333333333" y="349.2380952380952" width="18.38095238095238" height="18.38095238095238" fill="#ffffff"/><rect x="257.3333333333333" y="367.6190476190476" width="18.38095238095238" height="18.38095238095238" fill="#ffffff"/><rect x="294.0952380952381" y="367.6190476190476" width="18.38095238095238" height="18.38095238095238" fill="#ffffff"/><rect x="569.8095238095237" y="367.6190476190476" width="18.38095238095238" height="18.38095238095238" fill="#ffffff"/></g></svg>