<?xml version="1.0" standalone="no"?><svg xmlns:xlink="http://www.w3.org/1999/xlink" xmlns="http://www.w3.org/2000/svg" viewBox="0 0 1000 477.27766671902805" preserveAspectRatio="xMaxYMax slice"><g transform="scale(1.0759189962106133)"><rect x="0" y="0" width="929.447619047619" height="443.59999999999997" fill="#ffffff"/><circle cx="221.8" cy="31.68" r="10.56" fill="#cee3de"/><circle cx="454.16" cy="31.68" r="10.56" fill="#e4e6ff"/><circle cx="517.53" cy="31.68" r="10.56" fill="#278670"/><circle cx="559.78" cy="31.68" r="10.56" fill="#ffffff"/><rect x="422.4761904761905" y="42.24761904761905" width="21.123809523809523" height="21.123809523809523" fill="#ffffff"/><circle cx="517.53" cy="52.81" r="10.56" fill="#a4ccc3"/><rect x="697.0857142857143" y="42.24761904761905" width="21.123809523809523" height="21.123809523809523" fill="#ffffff"/><circle cx="728.77" cy="52.81" r="10.56" fill="#5b66ff"/><rect x="739.3333333333334" y="42.24761904761905" width="21.123809523809523" height="21.123809523809523" fill="#ffffff"/><circle cx="744.61" cy="47.53" r="5.28" fill="#e2e4ff"/><circle cx="834.39" cy="52.81" r="10.56" fill="#6974ff"/><rect x="84.4952380952381" y="63.37142857142857" width="21.123809523809523" height="21.123809523809523" fill="#ffffff"/><circle cx="158.43" cy="73.92999999999999" r="10.56" fill="#23846e"/><circle cx="327.42" cy="73.92999999999999" r="10.56" fill="#77b3a5"/><circle cx="348.54" cy="73.92999999999999" r="10.56" fill="#9dc8be"/><circle cx="433.04" cy="73.92999999999999" r="10.56" fill="#cee3de"/><circle cx="475.28000000000003" cy="73.92999999999999" r="10.56" fill="#68aa9b"/><circle cx="538.66" cy="73.92999999999999" r="10.56" fill="#cfd2ff"/><rect x="549.2190476190476" y="63.37142857142857" width="21.123809523809523" height="21.123809523809523" fill="#ffffff"/><circle cx="554.5" cy="68.64999999999999" r="5.28" fill="#8088ff"/><circle cx="644.27" cy="73.92999999999999" r="10.56" fill="#b1d3cc"/><rect x="675.9619047619047" y="63.37142857142857" width="21.123809523809523" height="21.123809523809523" fill="#ffffff"/><circle cx="221.8" cy="95.06" r="10.56" fill="#f6faf9"/><rect x="253.48571428571427" y="84.4952380952381" width="21.123809523809523" height="21.123809523809523" fill="#ffffff"/><circle cx="285.17" cy="95.06" r="10.56" fill="#4552ff"/><circle cx="348.54" cy="95.06" r="10.56" fill="#0d775f"/><circle cx="369.66" cy="95.06" r="10.56" fill="#b7bcff"/><rect x="422.4761904761905" y="84.4952380952381" width="21.123809523809523" height="21.123809523809523" fill="#ffffff"/><circle cx="438.32" cy="100.34" r="5.28" fill="#6b75ff"/><circle cx="454.16" cy="95.06" r="10.56" fill="#8a92ff"/><circle cx="496.41" cy="95.06" r="10.56" fill="#f0f1ff"/><circle cx="538.66" cy="95.06" r="10.56" fill="#308b76"/><circle cx="559.78" cy="95.06" r="10.56" fill="#b4b9ff"/><circle cx="623.15" cy="95.06" r="10.56" fill="#7f88ff"/><rect x="633.7142857142857" y="84.4952380952381" width="21.123809523809523" height="21.123809523809523" fill="#ffffff"/><circle cx="638.99" cy="100.34" r="5.28" fill="#539e8d"/><rect x="654.8380952380952" y="84.4952380952381" width="21.123809523809523" height="21.123809523809523" fill="#ffffff"/><circle cx="686.52" cy="95.06" r="10.56" fill="#c1c6ff"/><circle cx="707.65" cy="95.06" r="10.56" fill="#9ba2ff"/><circle cx="749.89" cy="95.06" r="10.56" fill="#515dff"/><circle cx="52.81" cy="116.18" r="10.56" fill="#3e9380"/><circle cx="221.8" cy="116.18" r="10.56" fill="#f6faf9"/><circle cx="242.92000000000002" cy="116.18" r="10.56" fill="#278670"/><circle cx="264.05" cy="116.18" r="10.56" fill="#9bc7bd"/><circle cx="327.42" cy="116.18" r="10.56" fill="#d7daff"/><circle cx="369.66" cy="116.18" r="10.56" fill="#328c78"/><rect x="380.2285714285714" y="105.61904761904762" width="21.123809523809523" height="21.123809523809523" fill="#ffffff"/><circle cx="396.07" cy="110.9" r="5.28" fill="#b6d6cf"/><circle cx="385.51" cy="121.46000000000001" r="5.28" fill="#fefeff"/><circle cx="433.04" cy="116.18" r="10.56" fill="#4350ff"/><rect x="443.59999999999997" y="105.61904761904762" width="21.123809523809523" height="21.123809523809523" fill="#ffffff"/><circle cx="448.88" cy="110.9" r="5.28" fill="#c6dfd9"/><circle cx="448.88" cy="121.46000000000001" r="5.28" fill="#4955ff"/><circle cx="496.41" cy="116.18" r="10.56" fill="#abb1ff"/><circle cx="517.53" cy="116.18" r="10.56" fill="#8890ff"/><circle cx="580.9" cy="116.18" r="10.56" fill="#fafbff"/><rect x="591.4666666666667" y="105.61904761904762" width="21.123809523809523" height="21.123809523809523" fill="#ffffff"/><circle cx="596.75" cy="121.46000000000001" r="5.28" fill="#3543ff"/><circle cx="607.31" cy="121.46000000000001" r="5.28" fill="#1c7f69"/><circle cx="623.15" cy="116.18" r="10.56" fill="#7e87ff"/><circle cx="749.89" cy="116.18" r="10.56" fill="#d1d4ff"/><circle cx="137.29999999999998" cy="137.29999999999998" r="10.56" fill="#6dad9e"/><circle cx="200.67000000000002" cy="137.29999999999998" r="10.56" fill="#f1f2ff"/><circle cx="221.8" cy="137.29999999999998" r="10.56" fill="#5da494"/><circle cx="306.29" cy="137.29999999999998" r="10.56" fill="#b2d4cc"/><circle cx="369.66" cy="137.29999999999998" r="10.56" fill="#3e9380"/><circle cx="390.79" cy="137.29999999999998" r="10.56" fill="#b2b7ff"/><circle cx="411.91" cy="137.29999999999998" r="10.56" fill="#5c67ff"/><circle cx="433.04" cy="137.29999999999998" r="10.56" fill="#ebecff"/><rect x="464.7238095238095" y="126.74285714285713" width="21.123809523809523" height="21.123809523809523" fill="#ffffff"/><circle cx="480.57" cy="142.58" r="5.28" fill="#f3f8f7"/><circle cx="517.53" cy="137.29999999999998" r="10.56" fill="#edefff"/><circle cx="538.66" cy="137.29999999999998" r="10.56" fill="#3d927e"/><circle cx="559.78" cy="137.29999999999998" r="10.56" fill="#ced1ff"/><rect x="570.3428571428572" y="126.74285714285713" width="21.123809523809523" height="21.123809523809523" fill="#ffffff"/><circle cx="575.62" cy="132.01999999999998" r="5.28" fill="#757fff"/><circle cx="586.18" cy="132.01999999999998" r="5.28" fill="#c9e1db"/><circle cx="623.15" cy="137.29999999999998" r="10.56" fill="#828bff"/><circle cx="644.27" cy="137.29999999999998" r="10.56" fill="#82b8ac"/><circle cx="686.52" cy="137.29999999999998" r="10.56" fill="#b1d3cc"/><circle cx="707.65" cy="137.29999999999998" r="10.56" fill="#636eff"/><rect x="739.3333333333334" y="126.74285714285713" width="21.123809523809523" height="21.123809523809523" fill="#ffffff"/><circle cx="744.61" cy="132.01999999999998" r="5.28" fill="#f9f9ff"/><circle cx="744.61" cy="142.58" r="5.28" fill="#cae1dc"/><circle cx="755.18" cy="142.58" r="5.28" fill="#5864ff"/><circle cx="771.02" cy="137.29999999999998" r="10.56" fill="#3542ff"/><circle cx="834.39" cy="137.29999999999998" r="10.56" fill="#66a99a"/><circle cx="95.06" cy="158.43" r="10.56" fill="#acd0c8"/><circle cx="200.67000000000002" cy="158.43" r="10.56" fill="#dde0ff"/><rect x="211.23809523809524" y="147.86666666666667" width="21.123809523809523" height="21.123809523809523" fill="#ffffff"/><circle cx="216.52" cy="153.15" r="5.28" fill="#f2f3ff"/><circle cx="216.52" cy="163.71" r="5.28" fill="#fafcfc"/><circle cx="227.08" cy="163.71" r="5.28" fill="#c6caff"/><circle cx="285.17" cy="158.43" r="10.56" fill="#525eff"/><circle cx="348.54" cy="158.43" r="10.56" fill="#757eff"/><rect x="359.1047619047619" y="147.86666666666667" width="21.123809523809523" height="21.123809523809523" fill="#ffffff"/><circle cx="364.38" cy="153.15" r="5.28" fill="#939aff"/><circle cx="374.95" cy="153.15" r="5.28" fill="#979fff"/><circle cx="364.38" cy="163.71" r="5.28" fill="#c3c7ff"/><circle cx="374.95" cy="163.71" r="5.28" fill="#4c58ff"/><circle cx="390.79" cy="158.43" r="10.56" fill="#3e4bff"/><circle cx="433.04" cy="158.43" r="10.56" fill="#c4c8ff"/><rect x="443.59999999999997" y="147.86666666666667" width="21.123809523809523" height="21.123809523809523" fill="#ffffff"/><circle cx="448.88" cy="153.15" r="5.28" fill="#fafcfc"/><circle cx="448.88" cy="163.71" r="5.28" fill="#dfe2ff"/><circle cx="459.44" cy="163.71" r="5.28" fill="#eaf3f1"/><circle cx="475.28000000000003" cy="158.43" r="10.56" fill="#757eff"/><circle cx="496.41" cy="158.43" r="10.56" fill="#137a63"/><circle cx="517.53" cy="158.43" r="10.56" fill="#838bff"/><circle cx="538.66" cy="158.43" r="10.56" fill="#6671ff"/><circle cx="559.78" cy="158.43" r="10.56" fill="#378f7b"/><circle cx="602.03" cy="158.43" r="10.56" fill="#aab0ff"/><circle cx="623.15" cy="158.43" r="10.56" fill="#b0d3cb"/><circle cx="644.27" cy="158.43" r="10.56" fill="#6eae9f"/><circle cx="665.4" cy="158.43" r="10.56" fill="#cdd0ff"/><rect x="718.2095238095238" y="147.86666666666667" width="21.123809523809523" height="21.123809523809523" fill="#ffffff"/><circle cx="723.49" cy="153.15" r="5.28" fill="#d4d7ff"/><circle cx="734.05" cy="153.15" r="5.28" fill="#3d927f"/><circle cx="723.49" cy="163.71" r="5.28" fill="#daeae6"/><circle cx="734.05" cy="163.71" r="5.28" fill="#d3e6e2"/><circle cx="792.14" cy="158.43" r="10.56" fill="#4c58ff"/><circle cx="834.39" cy="158.43" r="10.56" fill="#f7fafa"/><circle cx="897.76" cy="158.43" r="10.56" fill="#f8fbfa"/><circle cx="52.81" cy="179.55" r="10.56" fill="#727bff"/><circle cx="95.06" cy="179.55" r="10.56" fill="#d5d8ff"/><circle cx="158.43" cy="179.55" r="10.56" fill="#167c65"/><rect x="232.36190476190475" y="168.9904761904762" width="21.123809523809523" height="21.123809523809523" fill="#ffffff"/><circle cx="264.05" cy="179.55" r="10.56" fill="#b1d3cb"/><circle cx="306.29" cy="179.55" r="10.56" fill="#d3d6ff"/><circle cx="327.42" cy="179.55" r="10.56" fill="#5762ff"/><rect x="337.9809523809524" y="168.9904761904762" width="21.123809523809523" height="21.123809523809523" fill="#ffffff"/><circle cx="343.26" cy="174.27" r="5.28" fill="#20826b"/><circle cx="353.82" cy="174.27" r="5.28" fill="#dcdeff"/><circle cx="343.26" cy="184.83" r="5.28" fill="#f9fcfb"/><circle cx="353.82" cy="184.83" r="5.28" fill="#a4abff"/><circle cx="369.66" cy="179.55" r="10.56" fill="#f2f8f7"/><circle cx="390.79" cy="179.55" r="10.56" fill="#7a83ff"/><circle cx="433.04" cy="179.55" r="10.56" fill="#187d66"/><circle cx="454.16" cy="179.55" r="10.56" fill="#b3b8ff"/><circle cx="475.28000000000003" cy="179.55" r="10.56" fill="#fefeff"/><rect x="485.84761904761905" y="168.9904761904762" width="21.123809523809523" height="21.123809523809523" fill="#ffffff"/><circle cx="491.13" cy="174.27" r="5.28" fill="#99c6bc"/><circle cx="501.69" cy="174.27" r="5.28" fill="#c9cdff"/><circle cx="491.13" cy="184.83" r="5.28" fill="#636eff"/><circle cx="501.69" cy="184.83" r="5.28" fill="#f0f6f5"/><circle cx="517.53" cy="179.55" r="10.56" fill="#f8fbfb"/><circle cx="538.66" cy="179.55" r="10.56" fill="#509d8b"/><circle cx="559.78" cy="179.55" r="10.56" fill="#68aa9b"/><rect x="570.3428571428572" y="168.9904761904762" width="21.123809523809523" height="21.123809523809523" fill="#ffffff"/><circle cx="575.62" cy="174.27" r="5.28" fill="#eaecff"/><circle cx="575.62" cy="184.83" r="5.28" fill="#81b8ac"/><circle cx="586.18" cy="184.83" r="5.28" fill="#b4b9ff"/><circle cx="623.15" cy="179.55" r="10.56" fill="#338c78"/><rect x="654.8380952380952" y="168.9904761904762" width="21.123809523809523" height="21.123809523809523" fill="#ffffff"/><circle cx="660.12" cy="174.27" r="5.28" fill="#b8bdff"/><circle cx="670.68" cy="174.27" r="5.28" fill="#87bbaf"/><circle cx="670.68" cy="184.83" r="5.28" fill="#b9d8d1"/><rect x="675.9619047619047" y="168.9904761904762" width="21.123809523809523" height="21.123809523809523" fill="#ffffff"/><circle cx="681.24" cy="174.27" r="5.28" fill="#e3e5ff"/><circle cx="691.8" cy="174.27" r="5.28" fill="#737cff"/><circle cx="691.8" cy="184.83" r="5.28" fill="#6bac9d"/><rect x="760.4571428571428" y="168.9904761904762" width="21.123809523809523" height="21.123809523809523" fill="#ffffff"/><circle cx="776.3" cy="174.27" r="5.28" fill="#549f8e"/><circle cx="876.64" cy="179.55" r="10.56" fill="#eaf3f1"/><rect x="63.37142857142857" y="190.1142857142857" width="21.123809523809523" height="21.123809523809523" fill="#ffffff"/><circle cx="68.64999999999999" cy="205.96" r="5.28" fill="#519d8c"/><circle cx="116.18" cy="200.67000000000002" r="10.56" fill="#b8d7d0"/><circle cx="179.55" cy="200.67000000000002" r="10.56" fill="#edeeff"/><rect x="211.23809523809524" y="190.1142857142857" width="21.123809523809523" height="21.123809523809523" fill="#ffffff"/><circle cx="264.05" cy="200.67000000000002" r="10.56" fill="#c9cdff"/><circle cx="285.17" cy="200.67000000000002" r="10.56" fill="#858dff"/><rect x="295.73333333333335" y="190.1142857142857" width="21.123809523809523" height="21.123809523809523" fill="#ffffff"/><circle cx="311.58" cy="195.39000000000001" r="5.28" fill="#25846f"/><circle cx="311.58" cy="205.96" r="5.28" fill="#6d77ff"/><rect x="337.9809523809524" y="190.1142857142857" width="21.123809523809523" height="21.123809523809523" fill="#ffffff"/><circle cx="343.26" cy="195.39000000000001" r="5.28" fill="#3341ff"/><circle cx="343.26" cy="205.96" r="5.28" fill="#c7dfda"/><circle cx="353.82" cy="205.96" r="5.28" fill="#fbfbff"/><rect x="380.2285714285714" y="190.1142857142857" width="21.123809523809523" height="21.123809523809523" fill="#ffffff"/><circle cx="385.51" cy="195.39000000000001" r="5.28" fill="#6eae9f"/><circle cx="396.07" cy="195.39000000000001" r="5.28" fill="#5c67ff"/><circle cx="385.51" cy="205.96" r="5.28" fill="#fefefe"/><circle cx="396.07" cy="205.96" r="5.28" fill="#ebecff"/><rect x="401.35238095238094" y="190.1142857142857" width="21.123809523809523" height="21.123809523809523" fill="#ffffff"/><circle cx="406.63" cy="195.39000000000001" r="5.28" fill="#afd2ca"/><circle cx="417.19" cy="195.39000000000001" r="5.28" fill="#4e5aff"/><circle cx="406.63" cy="205.96" r="5.28" fill="#e8e9ff"/><circle cx="417.19" cy="205.96" r="5.28" fill="#95c3b9"/><circle cx="433.04" cy="200.67000000000002" r="10.56" fill="#bad8d1"/><circle cx="454.16" cy="200.67000000000002" r="10.56" fill="#424fff"/><circle cx="475.28000000000003" cy="200.67000000000002" r="10.56" fill="#b2b7ff"/><circle cx="496.41" cy="200.67000000000002" r="10.56" fill="#414eff"/><circle cx="517.53" cy="200.67000000000002" r="10.56" fill="#e3efec"/><circle cx="538.66" cy="200.67000000000002" r="10.56" fill="#5762ff"/><circle cx="559.78" cy="200.67000000000002" r="10.56" fill="#8abdb2"/><circle cx="602.03" cy="200.67000000000002" r="10.56" fill="#6b75ff"/><circle cx="686.52" cy="200.67000000000002" r="10.56" fill="#b3d4cd"/><circle cx="707.65" cy="200.67000000000002" r="10.56" fill="#5f6aff"/><circle cx="749.89" cy="200.67000000000002" r="10.56" fill="#e5f0ee"/><circle cx="813.26" cy="200.67000000000002" r="10.56" fill="#21826c"/><rect x="105.61904761904762" y="211.23809523809524" width="21.123809523809523" height="21.123809523809523" fill="#ffffff"/><circle cx="110.9" cy="216.52" r="5.28" fill="#e6e7ff"/><circle cx="121.46000000000001" cy="227.08" r="5.28" fill="#1d8069"/><circle cx="221.8" cy="221.8" r="10.56" fill="#3745ff"/><rect x="232.36190476190475" y="211.23809523809524" width="21.123809523809523" height="21.123809523809523" fill="#ffffff"/><circle cx="237.64000000000001" cy="227.08" r="5.28" fill="#8a92ff"/><circle cx="264.05" cy="221.8" r="10.56" fill="#8fc0b5"/><circle cx="285.17" cy="221.8" r="10.56" fill="#7b84ff"/><circle cx="306.29" cy="221.8" r="10.56" fill="#147b64"/><circle cx="348.54" cy="221.8" r="10.56" fill="#549f8e"/><circle cx="369.66" cy="221.8" r="10.56" fill="#368e7a"/><circle cx="390.79" cy="221.8" r="10.56" fill="#a1cac1"/><circle cx="411.91" cy="221.8" r="10.56" fill="#4e5aff"/><circle cx="433.04" cy="221.8" r="10.56" fill="#3a48ff"/><circle cx="454.16" cy="221.8" r="10.56" fill="#99c5bb"/><circle cx="475.28000000000003" cy="221.8" r="10.56" fill="#c2c7ff"/><rect x="485.84761904761905" y="211.23809523809524" width="21.123809523809523" height="21.123809523809523" fill="#ffffff"/><circle cx="491.13" cy="216.52" r="5.28" fill="#c0c5ff"/><circle cx="501.69" cy="216.52" r="5.28" fill="#404dff"/><circle cx="491.13" cy="227.08" r="5.28" fill="#e2efec"/><circle cx="501.69" cy="227.08" r="5.28" fill="#fdfefe"/><circle cx="517.53" cy="221.8" r="10.56" fill="#d9eae6"/><rect x="528.0952380952381" y="211.23809523809524" width="21.123809523809523" height="21.123809523809523" fill="#ffffff"/><circle cx="533.38" cy="216.52" r="5.28" fill="#509d8b"/><circle cx="543.9399999999999" cy="216.52" r="5.28" fill="#f8f8ff"/><circle cx="533.38" cy="227.08" r="5.28" fill="#3a917d"/><circle cx="543.9399999999999" cy="227.08" r="5.28" fill="#8a92ff"/><circle cx="559.78" cy="221.8" r="10.56" fill="#404dff"/><rect x="570.3428571428572" y="211.23809523809524" width="21.123809523809523" height="21.123809523809523" fill="#ffffff"/><circle cx="575.62" cy="216.52" r="5.28" fill="#757eff"/><circle cx="586.18" cy="216.52" r="5.28" fill="#e2e4ff"/><circle cx="575.62" cy="227.08" r="5.28" fill="#aed2ca"/><circle cx="586.18" cy="227.08" r="5.28" fill="#4b57ff"/><circle cx="602.03" cy="221.8" r="10.56" fill="#e9f2f0"/><circle cx="623.15" cy="221.8" r="10.56" fill="#d4d7ff"/><circle cx="644.27" cy="221.8" r="10.56" fill="#308b76"/><circle cx="665.4" cy="221.8" r="10.56" fill="#9199ff"/><circle cx="707.65" cy="221.8" r="10.56" fill="#cdd0ff"/><circle cx="728.77" cy="221.8" r="10.56" fill="#9198ff"/><circle cx="749.89" cy="221.8" r="10.56" fill="#f1f7f6"/><rect x="781.5809523809523" y="211.23809523809524" width="21.123809523809523" height="21.123809523809523" fill="#ffffff"/><circle cx="786.86" cy="216.52" r="5.28" fill="#61a697"/><circle cx="797.42" cy="216.52" r="5.28" fill="#c2ddd7"/><circle cx="797.42" cy="227.08" r="5.28" fill="#3845ff"/><circle cx="834.39" cy="221.8" r="10.56" fill="#6973ff"/><circle cx="221.8" cy="242.92000000000002" r="10.56" fill="#6d77ff"/><circle cx="264.05" cy="242.92000000000002" r="10.56" fill="#a8cec5"/><circle cx="285.17" cy="242.92000000000002" r="10.56" fill="#1c8069"/><circle cx="348.54" cy="242.92000000000002" r="10.56" fill="#3d4aff"/><rect x="359.1047619047619" y="232.36190476190475" width="21.123809523809523" height="21.123809523809523" fill="#ffffff"/><circle cx="364.38" cy="237.64000000000001" r="5.28" fill="#499886"/><circle cx="374.95" cy="237.64000000000001" r="5.28" fill="#e5e6ff"/><circle cx="364.38" cy="248.2" r="5.28" fill="#1e816b"/><circle cx="374.95" cy="248.2" r="5.28" fill="#4350ff"/><rect x="380.2285714285714" y="232.36190476190475" width="21.123809523809523" height="21.123809523809523" fill="#ffffff"/><circle cx="385.51" cy="237.64000000000001" r="5.28" fill="#2a8772"/><circle cx="396.07" cy="237.64000000000001" r="5.28" fill="#167c65"/><circle cx="385.51" cy="248.2" r="5.28" fill="#8f97ff"/><circle cx="396.07" cy="248.2" r="5.28" fill="#a2cbc2"/><circle cx="411.91" cy="242.92000000000002" r="10.56" fill="#59a291"/><circle cx="433.04" cy="242.92000000000002" r="10.56" fill="#636dff"/><circle cx="454.16" cy="242.92000000000002" r="10.56" fill="#5e69ff"/><rect x="464.7238095238095" y="232.36190476190475" width="21.123809523809523" height="21.123809523809523" fill="#ffffff"/><circle cx="470" cy="237.64000000000001" r="5.28" fill="#757eff"/><circle cx="480.57" cy="237.64000000000001" r="5.28" fill="#d9eae6"/><circle cx="470" cy="248.2" r="5.28" fill="#ebecff"/><circle cx="480.57" cy="248.2" r="5.28" fill="#daeae6"/><rect x="485.84761904761905" y="232.36190476190475" width="21.123809523809523" height="21.123809523809523" fill="#ffffff"/><circle cx="491.13" cy="237.64000000000001" r="5.28" fill="#bddad3"/><circle cx="501.69" cy="237.64000000000001" r="5.28" fill="#3543ff"/><circle cx="491.13" cy="248.2" r="5.28" fill="#b4d5ce"/><circle cx="501.69" cy="248.2" r="5.28" fill="#3b49ff"/><rect x="506.97142857142853" y="232.36190476190475" width="21.123809523809523" height="21.123809523809523" fill="#ffffff"/><circle cx="512.25" cy="237.64000000000001" r="5.28" fill="#a9cfc6"/><circle cx="522.81" cy="237.64000000000001" r="5.28" fill="#eaebff"/><circle cx="512.25" cy="248.2" r="5.28" fill="#858dff"/><circle cx="522.81" cy="248.2" r="5.28" fill="#0d775f"/><circle cx="538.66" cy="242.92000000000002" r="10.56" fill="#4955ff"/><circle cx="559.78" cy="242.92000000000002" r="10.56" fill="#858dff"/><circle cx="580.9" cy="242.92000000000002" r="10.56" fill="#a0c9c0"/><circle cx="602.03" cy="242.92000000000002" r="10.56" fill="#86bbaf"/><circle cx="623.15" cy="242.92000000000002" r="10.56" fill="#4e5aff"/><circle cx="644.27" cy="242.92000000000002" r="10.56" fill="#f1f7f6"/><circle cx="665.4" cy="242.92000000000002" r="10.56" fill="#56a08f"/><circle cx="707.65" cy="242.92000000000002" r="10.56" fill="#eff6f4"/><circle cx="728.77" cy="242.92000000000002" r="10.56" fill="#c4ded8"/><circle cx="749.89" cy="242.92000000000002" r="10.56" fill="#eaebff"/><circle cx="771.02" cy="242.92000000000002" r="10.56" fill="#dde0ff"/><rect x="781.5809523809523" y="232.36190476190475" width="21.123809523809523" height="21.123809523809523" fill="#ffffff"/><circle cx="797.42" cy="237.64000000000001" r="5.28" fill="#f4f5ff"/><circle cx="786.86" cy="248.2" r="5.28" fill="#2a8772"/><circle cx="797.42" cy="248.2" r="5.28" fill="#eaf3f1"/><circle cx="834.39" cy="242.92000000000002" r="10.56" fill="#c8e0db"/><circle cx="855.51" cy="242.92000000000002" r="10.56" fill="#afb4ff"/><circle cx="137.29999999999998" cy="264.05" r="10.56" fill="#4e9c8a"/><circle cx="179.55" cy="264.05" r="10.56" fill="#d0e4e0"/><rect x="211.23809523809524" y="253.48571428571427" width="21.123809523809523" height="21.123809523809523" fill="#ffffff"/><circle cx="216.52" cy="269.33" r="5.28" fill="#c8cbff"/><circle cx="227.08" cy="269.33" r="5.28" fill="#63a898"/><circle cx="264.05" cy="264.05" r="10.56" fill="#147b64"/><rect x="274.6095238095238" y="253.48571428571427" width="21.123809523809523" height="21.123809523809523" fill="#ffffff"/><circle cx="279.89" cy="258.77" r="5.28" fill="#6a74ff"/><circle cx="290.45" cy="258.77" r="5.28" fill="#707aff"/><circle cx="279.89" cy="269.33" r="5.28" fill="#3f4cff"/><circle cx="290.45" cy="269.33" r="5.28" fill="#bedbd4"/><circle cx="327.42" cy="264.05" r="10.56" fill="#8cbeb3"/><circle cx="369.66" cy="264.05" r="10.56" fill="#969dff"/><circle cx="390.79" cy="264.05" r="10.56" fill="#3a907d"/><circle cx="411.91" cy="264.05" r="10.56" fill="#a0a6ff"/><circle cx="433.04" cy="264.05" r="10.56" fill="#b8d7d0"/><circle cx="454.16" cy="264.05" r="10.56" fill="#58a191"/><circle cx="475.28000000000003" cy="264.05" r="10.56" fill="#868eff"/><circle cx="496.41" cy="264.05" r="10.56" fill="#2b8873"/><circle cx="517.53" cy="264.05" r="10.56" fill="#424fff"/><circle cx="538.66" cy="264.05" r="10.56" fill="#babeff"/><circle cx="559.78" cy="264.05" r="10.56" fill="#c3ddd7"/><circle cx="580.9" cy="264.05" r="10.56" fill="#2a8772"/><circle cx="623.15" cy="264.05" r="10.56" fill="#eeefff"/><circle cx="644.27" cy="264.05" r="10.56" fill="#d3d6ff"/><circle cx="665.4" cy="264.05" r="10.56" fill="#75b1a4"/><rect x="675.9619047619047" y="253.48571428571427" width="21.123809523809523" height="21.123809523809523" fill="#ffffff"/><circle cx="681.24" cy="258.77" r="5.28" fill="#fdfefe"/><circle cx="691.8" cy="258.77" r="5.28" fill="#56a090"/><circle cx="707.65" cy="264.05" r="10.56" fill="#70afa0"/><circle cx="771.02" cy="264.05" r="10.56" fill="#6973ff"/><circle cx="792.14" cy="264.05" r="10.56" fill="#737dff"/><circle cx="897.76" cy="264.05" r="10.56" fill="#a1cac1"/><circle cx="73.92999999999999" cy="285.17" r="10.56" fill="#529e8c"/><circle cx="221.8" cy="285.17" r="10.56" fill="#70aea0"/><circle cx="264.05" cy="285.17" r="10.56" fill="#a3cbc2"/><rect x="295.73333333333335" y="274.6095238095238" width="21.123809523809523" height="21.123809523809523" fill="#ffffff"/><circle cx="301.01" cy="279.89" r="5.28" fill="#b2b7ff"/><circle cx="311.58" cy="290.45" r="5.28" fill="#3d927f"/><circle cx="327.42" cy="285.17" r="10.56" fill="#b3b8ff"/><rect x="337.9809523809524" y="274.6095238095238" width="21.123809523809523" height="21.123809523809523" fill="#ffffff"/><circle cx="343.26" cy="279.89" r="5.28" fill="#c9e1db"/><circle cx="353.82" cy="279.89" r="5.28" fill="#20826b"/><circle cx="343.26" cy="290.45" r="5.28" fill="#d2e6e1"/><circle cx="353.82" cy="290.45" r="5.28" fill="#bedbd4"/><circle cx="369.66" cy="285.17" r="10.56" fill="#9dc8be"/><circle cx="390.79" cy="285.17" r="10.56" fill="#6872ff"/><rect x="401.35238095238094" y="274.6095238095238" width="21.123809523809523" height="21.123809523809523" fill="#ffffff"/><circle cx="406.63" cy="279.89" r="5.28" fill="#c1c5ff"/><circle cx="417.19" cy="279.89" r="5.28" fill="#58a190"/><circle cx="406.63" cy="290.45" r="5.28" fill="#afb5ff"/><circle cx="417.19" cy="290.45" r="5.28" fill="#ccd0ff"/><circle cx="433.04" cy="285.17" r="10.56" fill="#c8e0db"/><circle cx="454.16" cy="285.17" r="10.56" fill="#636dff"/><circle cx="475.28000000000003" cy="285.17" r="10.56" fill="#a6acff"/><circle cx="496.41" cy="285.17" r="10.56" fill="#949cff"/><circle cx="538.66" cy="285.17" r="10.56" fill="#358d79"/><circle cx="559.78" cy="285.17" r="10.56" fill="#bad8d1"/><circle cx="580.9" cy="285.17" r="10.56" fill="#dee0ff"/><rect x="612.5904761904761" y="274.6095238095238" width="21.123809523809523" height="21.123809523809523" fill="#ffffff"/><circle cx="628.43" cy="279.89" r="5.28" fill="#348d79"/><circle cx="617.87" cy="290.45" r="5.28" fill="#8cbeb3"/><circle cx="644.27" cy="285.17" r="10.56" fill="#8a92ff"/><circle cx="665.4" cy="285.17" r="10.56" fill="#6b75ff"/><circle cx="686.52" cy="285.17" r="10.56" fill="#b1d3cc"/><circle cx="707.65" cy="285.17" r="10.56" fill="#747dff"/><circle cx="728.77" cy="285.17" r="10.56" fill="#3c4aff"/><circle cx="771.02" cy="285.17" r="10.56" fill="#39907c"/><circle cx="792.14" cy="285.17" r="10.56" fill="#c2c6ff"/><circle cx="876.64" cy="285.17" r="10.56" fill="#4e5aff"/><circle cx="897.76" cy="285.17" r="10.56" fill="#5f6aff"/><circle cx="95.06" cy="306.29" r="10.56" fill="#f6faf9"/><circle cx="137.29999999999998" cy="306.29" r="10.56" fill="#969dff"/><circle cx="158.43" cy="306.29" r="10.56" fill="#525eff"/><circle cx="179.55" cy="306.29" r="10.56" fill="#7c85ff"/><circle cx="264.05" cy="306.29" r="10.56" fill="#404dff"/><circle cx="285.17" cy="306.29" r="10.56" fill="#e3efec"/><circle cx="327.42" cy="306.29" r="10.56" fill="#e5e7ff"/><circle cx="369.66" cy="306.29" r="10.56" fill="#439582"/><circle cx="390.79" cy="306.29" r="10.56" fill="#a2cbc1"/><circle cx="411.91" cy="306.29" r="10.56" fill="#8dbfb4"/><circle cx="433.04" cy="306.29" r="10.56" fill="#e7e9ff"/><circle cx="475.28000000000003" cy="306.29" r="10.56" fill="#a7adff"/><circle cx="496.41" cy="306.29" r="10.56" fill="#b3d4cc"/><circle cx="517.53" cy="306.29" r="10.56" fill="#9ba2ff"/><circle cx="538.66" cy="306.29" r="10.56" fill="#add1c9"/><rect x="549.2190476190476" y="295.73333333333335" width="21.123809523809523" height="21.123809523809523" fill="#ffffff"/><circle cx="554.5" cy="301.01" r="5.28" fill="#eff6f4"/><circle cx="565.06" cy="301.01" r="5.28" fill="#dddfff"/><circle cx="565.06" cy="311.58" r="5.28" fill="#5964ff"/><circle cx="580.9" cy="306.29" r="10.56" fill="#4754ff"/><circle cx="602.03" cy="306.29" r="10.56" fill="#e9f3f0"/><circle cx="644.27" cy="306.29" r="10.56" fill="#5ea494"/><circle cx="707.65" cy="306.29" r="10.56" fill="#dfe1ff"/><rect x="781.5809523809523" y="295.73333333333335" width="21.123809523809523" height="21.123809523809523" fill="#ffffff"/><circle cx="797.42" cy="301.01" r="5.28" fill="#727bff"/><circle cx="834.39" cy="306.29" r="10.56" fill="#6aab9d"/><circle cx="31.68" cy="327.42" r="10.56" fill="#7d86ff"/><rect x="84.4952380952381" y="316.85714285714283" width="21.123809523809523" height="21.123809523809523" fill="#ffffff"/><circle cx="89.78" cy="332.7" r="5.28" fill="#1e806a"/><circle cx="327.42" cy="327.42" r="10.56" fill="#55a08f"/><circle cx="348.54" cy="327.42" r="10.56" fill="#439583"/><rect x="359.1047619047619" y="316.85714285714283" width="21.123809523809523" height="21.123809523809523" fill="#ffffff"/><circle cx="364.38" cy="322.14" r="5.28" fill="#73b0a2"/><circle cx="374.95" cy="322.14" r="5.28" fill="#a7cdc5"/><circle cx="374.95" cy="332.7" r="5.28" fill="#f7f8ff"/><rect x="401.35238095238094" y="316.85714285714283" width="21.123809523809523" height="21.123809523809523" fill="#ffffff"/><circle cx="406.63" cy="322.14" r="5.28" fill="#cbceff"/><circle cx="417.19" cy="332.7" r="5.28" fill="#8b93ff"/><circle cx="433.04" cy="327.42" r="10.56" fill="#3e927f"/><circle cx="475.28000000000003" cy="327.42" r="10.56" fill="#e3e5ff"/><circle cx="496.41" cy="327.42" r="10.56" fill="#8d95ff"/><circle cx="517.53" cy="327.42" r="10.56" fill="#80b7ab"/><circle cx="538.66" cy="327.42" r="10.56" fill="#23846e"/><circle cx="559.78" cy="327.42" r="10.56" fill="#4c9a88"/><circle cx="580.9" cy="327.42" r="10.56" fill="#ebf4f2"/><circle cx="602.03" cy="327.42" r="10.56" fill="#318b77"/><circle cx="623.15" cy="327.42" r="10.56" fill="#82b9ad"/><rect x="633.7142857142857" y="316.85714285714283" width="21.123809523809523" height="21.123809523809523" fill="#ffffff"/><circle cx="638.99" cy="322.14" r="5.28" fill="#f7fafa"/><circle cx="649.56" cy="322.14" r="5.28" fill="#6d77ff"/><circle cx="638.99" cy="332.7" r="5.28" fill="#4e9b8a"/><circle cx="649.56" cy="332.7" r="5.28" fill="#e5e6ff"/><rect x="675.9619047619047" y="316.85714285714283" width="21.123809523809523" height="21.123809523809523" fill="#ffffff"/><circle cx="681.24" cy="322.14" r="5.28" fill="#7d86ff"/><circle cx="691.8" cy="332.7" r="5.28" fill="#8fc0b5"/><circle cx="749.89" cy="327.42" r="10.56" fill="#daddff"/><circle cx="792.14" cy="327.42" r="10.56" fill="#68aa9b"/><circle cx="834.39" cy="327.42" r="10.56" fill="#83b9ad"/><circle cx="116.18" cy="348.54" r="10.56" fill="#82b9ac"/><circle cx="137.29999999999998" cy="348.54" r="10.56" fill="#4854ff"/><circle cx="200.67000000000002" cy="348.54" r="10.56" fill="#bad8d1"/><circle cx="264.05" cy="348.54" r="10.56" fill="#6aac9d"/><circle cx="285.17" cy="348.54" r="10.56" fill="#dbebe7"/><rect x="295.73333333333335" y="337.9809523809524" width="21.123809523809523" height="21.123809523809523" fill="#ffffff"/><circle cx="301.01" cy="343.26" r="5.28" fill="#8991ff"/><circle cx="301.01" cy="353.82" r="5.28" fill="#68aa9b"/><circle cx="327.42" cy="348.54" r="10.56" fill="#fafbff"/><circle cx="348.54" cy="348.54" r="10.56" fill="#ebecff"/><rect x="443.59999999999997" y="337.9809523809524" width="21.123809523809523" height="21.123809523809523" fill="#ffffff"/><circle cx="496.41" cy="348.54" r="10.56" fill="#8dbfb4"/><circle cx="538.66" cy="348.54" r="10.56" fill="#2b8873"/><circle cx="580.9" cy="348.54" r="10.56" fill="#c8ccff"/><circle cx="602.03" cy="348.54" r="10.56" fill="#d0d3ff"/><rect x="612.5904761904761" y="337.9809523809524" width="21.123809523809523" height="21.123809523809523" fill="#ffffff"/><circle cx="617.87" cy="353.82" r="5.28" fill="#3e4bff"/><circle cx="628.43" cy="353.82" r="5.28" fill="#606bff"/><circle cx="665.4" cy="348.54" r="10.56" fill="#1c8069"/><rect x="675.9619047619047" y="337.9809523809524" width="21.123809523809523" height="21.123809523809523" fill="#ffffff"/><circle cx="691.8" cy="353.82" r="5.28" fill="#7bb5a8"/><circle cx="728.77" cy="348.54" r="10.56" fill="#eef6f4"/><circle cx="749.89" cy="348.54" r="10.56" fill="#f5faf9"/><circle cx="771.02" cy="348.54" r="10.56" fill="#5c67ff"/><circle cx="918.88" cy="348.54" r="10.56" fill="#dcdfff"/><circle cx="158.43" cy="369.66" r="10.56" fill="#fafaff"/><circle cx="264.05" cy="369.66" r="10.56" fill="#1e816a"/><rect x="337.9809523809524" y="359.1047619047619" width="21.123809523809523" height="21.123809523809523" fill="#ffffff"/><circle cx="343.26" cy="364.38" r="5.28" fill="#cbceff"/><circle cx="353.82" cy="364.38" r="5.28" fill="#b0b6ff"/><circle cx="369.66" cy="369.66" r="10.56" fill="#bfc3ff"/><rect x="443.59999999999997" y="359.1047619047619" width="21.123809523809523" height="21.123809523809523" fill="#ffffff"/><circle cx="448.88" cy="364.38" r="5.28" fill="#6e78ff"/><circle cx="448.88" cy="374.95" r="5.28" fill="#b6bbff"/><circle cx="459.44" cy="374.95" r="5.28" fill="#2f8a75"/><rect x="760.4571428571428" y="359.1047619047619" width="21.123809523809523" height="21.123809523809523" fill="#ffffff"/><circle cx="765.74" cy="364.38" r="5.28" fill="#cbcfff"/><rect x="866.0761904761905" y="359.1047619047619" width="21.123809523809523" height="21.123809523809523" fill="#ffffff"/><circle cx="200.67000000000002" cy="390.79" r="10.56" fill="#bcdad3"/><circle cx="369.66" cy="390.79" r="10.56" fill="#308b76"/><rect x="401.35238095238094" y="380.2285714285714" width="21.123809523809523" height="21.123809523809523" fill="#ffffff"/><rect x="506.97142857142853" y="380.2285714285714" width="21.123809523809523" height="21.123809523809523" fill="#ffffff"/><circle cx="512.25" cy="385.51" r="5.28" fill="#eaf3f1"/><circle cx="522.81" cy="385.51" r="5.28" fill="#d1e5e0"/><circle cx="512.25" cy="396.07" r="5.28" fill="#7881ff"/><rect x="570.3428571428572" y="380.2285714285714" width="21.123809523809523" height="21.123809523809523" fill="#ffffff"/><circle cx="586.18" cy="385.51" r="5.28" fill="#4955ff"/><circle cx="602.03" cy="390.79" r="10.56" fill="#bdc1ff"/><circle cx="686.52" cy="390.79" r="10.56" fill="#b0d3cb"/><circle cx="707.65" cy="390.79" r="10.56" fill="#78b3a6"/><circle cx="855.51" cy="390.79" r="10.56" fill="#65a899"/><rect x="316.85714285714283" y="401.35238095238094" width="21.123809523809523" height="21.123809523809523" fill="#ffffff"/><circle cx="322.14" cy="406.63" r="5.28" fill="#7db6a9"/><circle cx="332.7" cy="406.63" r="5.28" fill="#419481"/><circle cx="390.79" cy="411.91" r="10.56" fill="#3442ff"/><circle cx="475.28000000000003" cy="411.91" r="10.56" fill="#bfc4ff"/><circle cx="264.05" cy="433.04" r="10.56" fill="#767fff"/><circle cx="538.66" cy="433.04" r="10.56" fill="#66a99a"/></g></svg>